Grotesk-Bold.ufo
<glyph name="exclam" format="2">
	<advance width="370"/>
	<unicode hex="0021"/>
	<guideline x="150" y="213" angle="0"/>
	<note>
		exclam
	</note>
	<outline>
		<contour>
			<point x="125" y="213" type="line"/>
			<point x="245" y="213" type="line"/>
			<point x="245" y="701" type="line"/>
			<point x="125" y="701" type="line"/>
		</contour>
		<contour>
			<point x="185" y="-5" type="curve" smooth="yes"/>
			<point x="232" y="-5"/>
			<point x="270" y="33"/>
			<point x="270" y="80" type="curve" smooth="yes"/>
			<point x="270" y="127"/>
			<point x="232" y="165"/>
			<point x="185" y="165" type="curve" smooth="yes"/>
			<point x="138" y="165"/>
			<point x="100" y="127"/>
			<point x="100" y="80" type="curve" smooth="yes"/>
			<point x="100" y="33"/>
			<point x="138" y="-5"/>
		</contour>
	</outline>
</glyph>
<glyph name="quotedbl" format="2">
	<advance width="455"/>
	<unicode hex="0022"/>
	<outline>
		<contour>
			<point x="90" y="425" type="line"/>
			<point x="195" y="425" type="line"/>
			<point x="195" y="649" type="line"/>
			<point x="90" y="649" type="line"/>
		</contour>
		<contour>
			<point x="250" y="425" type="line"/>
			<point x="355" y="425" type="line"/>
			<point x="355" y="649" type="line"/>
			<point x="250" y="649" type="line"/>
		</contour>
	</outline>
</glyph>
<glyph name="numbersign" format="2">
	<advance width="770"/>
	<unicode hex="0023"/>
	<outline>
		<contour>
			<point x="150" y="384" type="line"/>
			<point x="680" y="384" type="line"/>
			<point x="680" y="504" type="line"/>
			<point x="150" y="504" type="line"/>
		</contour>
		<contour>
			<point x="90" y="145" type="line"/>
			<point x="620" y="145" type="line"/>
			<point x="620" y="265" type="line"/>
			<point x="90" y="265" type="line"/>
		</contour>
		<contour>
			<point x="100" y="0" type="line"/>
			<point x="220" y="0" type="line"/>
			<point x="420" y="649" type="line"/>
			<point x="300" y="649" type="line"/>
		</contour>
		<contour>
			<point x="350" y="0" type="line"/>
			<point x="470" y="0" type="line"/>
			<point x="670" y="649" type="line"/>
			<point x="550" y="649" type="line"/>
		</contour>
	</outline>
</glyph>
<glyph name="dollar" format="2">
	<advance width="561"/>
	<unicode hex="0024"/>
	<anchor x="281" y="0" name="bottom"/>
	<anchor x="281" y="650" name="top"/>
	<outline>
		<contour>
			<point x="316" y="599" type="line"/>
			<point x="316" y="739" type="line"/>
			<point x="246" y="739" type="line"/>
			<point x="246" y="599" type="line"/>
		</contour>
		<contour>
			<point x="316" y="50" type="line"/>
			<point x="246" y="50" type="line"/>
			<point x="246" y="-90" type="line"/>
			<point x="316" y="-90" type="line"/>
		</contour>
		<contour>
			<point x="118" y="0" type="line"/>
			<point x="285" y="0" type="line" smooth="yes"/>
			<point x="429" y="0"/>
			<point x="501" y="109"/>
			<point x="501" y="218" type="curve" smooth="yes"/>
			<point x="501" y="327"/>
			<point x="429" y="426"/>
			<point x="285" y="426" type="curve" smooth="yes"/>
			<point x="278" y="426" type="line"/>
			<point x="278" y="311" type="line"/>
			<point x="280" y="311" type="line" smooth="yes"/>
			<point x="341" y="311"/>
			<point x="381" y="274"/>
			<point x="381" y="216" type="curve" smooth="yes"/>
			<point x="381" y="155"/>
			<point x="340" y="115"/>
			<point x="276" y="115" type="curve" smooth="yes"/>
			<point x="118" y="115" type="line"/>
		</contour>
		<contour>
			<point x="276" y="223" type="curve" smooth="yes"/>
			<point x="283" y="223" type="line"/>
			<point x="283" y="338" type="line"/>
			<point x="281" y="338" type="line" smooth="yes"/>
			<point x="220" y="338"/>
			<point x="180" y="375"/>
			<point x="180" y="433" type="curve" smooth="yes"/>
			<point x="180" y="494"/>
			<point x="221" y="535"/>
			<point x="285" y="535" type="curve" smooth="yes"/>
			<point x="393" y="535" type="line"/>
			<point x="393" y="650" type="line"/>
			<point x="276" y="650" type="line" smooth="yes"/>
			<point x="132" y="650"/>
			<point x="60" y="540"/>
			<point x="60" y="431" type="curve" smooth="yes"/>
			<point x="60" y="322"/>
			<point x="132" y="223"/>
		</contour>
	</outline>
</glyph>
<glyph name="percent" format="2">
	<advance width="848"/>
	<unicode hex="0025"/>
	<outline>
		<contour>
			<point x="138" y="0" type="line"/>
			<point x="281" y="0" type="line"/>
			<point x="700" y="649" type="line"/>
			<point x="567" y="649" type="line"/>
		</contour>
		<contour>
			<point x="639" y="-10" type="curve" smooth="yes"/>
			<point x="711" y="-10"/>
			<point x="768" y="47"/>
			<point x="768" y="119" type="curve" smooth="yes"/>
			<point x="768" y="191"/>
			<point x="711" y="248"/>
			<point x="639" y="248" type="curve" smooth="yes"/>
			<point x="567" y="248"/>
			<point x="510" y="191"/>
			<point x="510" y="119" type="curve" smooth="yes"/>
			<point x="510" y="47"/>
			<point x="567" y="-10"/>
		</contour>
		<contour>
			<point x="639" y="75" type="curve" smooth="yes"/>
			<point x="615" y="75"/>
			<point x="595" y="95"/>
			<point x="595" y="119" type="curve" smooth="yes"/>
			<point x="595" y="144"/>
			<point x="615" y="165"/>
			<point x="639" y="165" type="curve" smooth="yes"/>
			<point x="664" y="165"/>
			<point x="685" y="144"/>
			<point x="685" y="119" type="curve" smooth="yes"/>
			<point x="685" y="95"/>
			<point x="664" y="75"/>
		</contour>
		<contour>
			<point x="209" y="401" type="curve" smooth="yes"/>
			<point x="281" y="401"/>
			<point x="338" y="458"/>
			<point x="338" y="530" type="curve" smooth="yes"/>
			<point x="338" y="602"/>
			<point x="281" y="659"/>
			<point x="209" y="659" type="curve" smooth="yes"/>
			<point x="137" y="659"/>
			<point x="80" y="602"/>
			<point x="80" y="530" type="curve" smooth="yes"/>
			<point x="80" y="458"/>
			<point x="137" y="401"/>
		</contour>
		<contour>
			<point x="209" y="486" type="curve" smooth="yes"/>
			<point x="185" y="486"/>
			<point x="165" y="506"/>
			<point x="165" y="530" type="curve" smooth="yes"/>
			<point x="165" y="555"/>
			<point x="185" y="576"/>
			<point x="209" y="576" type="curve" smooth="yes"/>
			<point x="234" y="576"/>
			<point x="255" y="555"/>
			<point x="255" y="530" type="curve" smooth="yes"/>
			<point x="255" y="506"/>
			<point x="234" y="486"/>
		</contour>
	</outline>
</glyph>
<glyph name="ampersand" format="2">
	<advance width="660"/>
	<unicode hex="0026"/>
	<outline>
		<contour>
			<point x="260" y="0" type="curve" smooth="yes"/>
			<point x="610" y="0" type="line"/>
			<point x="610" y="115" type="line"/>
			<point x="260" y="115" type="line" smooth="yes"/>
			<point x="206" y="115"/>
			<point x="170" y="156"/>
			<point x="170" y="210" type="curve" smooth="yes"/>
			<point x="170" y="264"/>
			<point x="206" y="305"/>
			<point x="260" y="305" type="curve" smooth="yes"/>
			<point x="610" y="305" type="line"/>
			<point x="610" y="420" type="line"/>
			<point x="260" y="420" type="line" smooth="yes"/>
			<point x="134" y="420"/>
			<point x="50" y="336"/>
			<point x="50" y="210" type="curve" smooth="yes"/>
			<point x="50" y="84"/>
			<point x="134" y="0"/>
		</contour>
		<contour>
			<point x="290" y="534" type="curve" smooth="yes"/>
			<point x="475" y="534" type="line"/>
			<point x="475" y="649" type="line"/>
			<point x="290" y="649" type="line" smooth="yes"/>
			<point x="195" y="649"/>
			<point x="116" y="573"/>
			<point x="116" y="476" type="curve" smooth="yes"/>
			<point x="116" y="378"/>
			<point x="195" y="307"/>
			<point x="290" y="307" type="curve"/>
			<point x="290" y="420" type="line"/>
			<point x="260" y="419"/>
			<point x="236" y="444"/>
			<point x="236" y="476" type="curve" smooth="yes"/>
			<point x="236" y="505"/>
			<point x="260" y="534"/>
		</contour>
		<contour>
			<point x="400" y="0" type="line"/>
			<point x="520" y="0" type="line"/>
			<point x="520" y="650" type="line"/>
			<point x="400" y="650" type="line"/>
		</contour>
	</outline>
</glyph>
<glyph name="quotesingle" format="2">
	<advance width="285"/>
	<unicode hex="0027"/>
	<outline>
		<contour>
			<point x="90" y="425" type="line"/>
			<point x="195" y="425" type="line"/>
			<point x="195" y="649" type="line"/>
			<point x="90" y="649" type="line"/>
		</contour>
	</outline>
</glyph>
<glyph name="parenleft" format="2">
	<advance width="379"/>
	<unicode hex="0028"/>
	<outline>
		<contour>
			<point x="100" y="324" type="curve" smooth="yes"/>
			<point x="100" y="209"/>
			<point x="123" y="100"/>
			<point x="164" y="0" type="curve"/>
			<point x="289" y="0" type="line"/>
			<point x="248" y="100"/>
			<point x="225" y="209"/>
			<point x="225" y="324" type="curve" smooth="yes"/>
			<point x="225" y="439"/>
			<point x="248" y="549"/>
			<point x="289" y="649" type="curve"/>
			<point x="164" y="649" type="line"/>
			<point x="123" y="549"/>
			<point x="100" y="439"/>
		</contour>
	</outline>
</glyph>
<glyph name="parenright" format="2">
	<advance width="369"/>
	<unicode hex="0029"/>
	<outline>
		<contour>
			<point x="269" y="324" type="curve" smooth="yes"/>
			<point x="269" y="439"/>
			<point x="246" y="549"/>
			<point x="205" y="649" type="curve"/>
			<point x="80" y="649" type="line"/>
			<point x="121" y="549"/>
			<point x="144" y="439"/>
			<point x="144" y="324" type="curve" smooth="yes"/>
			<point x="144" y="209"/>
			<point x="121" y="100"/>
			<point x="80" y="0" type="curve"/>
			<point x="205" y="0" type="line"/>
			<point x="246" y="100"/>
			<point x="269" y="209"/>
		</contour>
	</outline>
</glyph>
<glyph name="asterisk" format="2">
	<advance width="516"/>
	<unicode hex="002A"/>
	<outline>
		<contour>
			<point x="228" y="709" type="line"/>
			<point x="228" y="374" type="line"/>
			<point x="288" y="374" type="line"/>
			<point x="288" y="709" type="line"/>
		</contour>
		<contour>
			<point x="355" y="681" type="line"/>
			<point x="118" y="444" type="line"/>
			<point x="161" y="402" type="line"/>
			<point x="398" y="639" type="line"/>
		</contour>
		<contour>
			<point x="425" y="572" type="line"/>
			<point x="90" y="572" type="line"/>
			<point x="91" y="512" type="line"/>
			<point x="426" y="512" type="line"/>
		</contour>
		<contour>
			<point x="398" y="445" type="line"/>
			<point x="161" y="682" type="line"/>
			<point x="118" y="638" type="line"/>
			<point x="355" y="401" type="line"/>
		</contour>
	</outline>
</glyph>
<glyph name="plus" format="2">
	<advance width="630"/>
	<unicode hex="002B"/>
	<outline>
		<contour>
			<point x="100" y="220" type="line"/>
			<point x="530" y="220" type="line"/>
			<point x="530" y="340" type="line"/>
			<point x="100" y="340" type="line"/>
		</contour>
		<contour>
			<point x="255" y="495" type="line"/>
			<point x="255" y="65" type="line"/>
			<point x="375" y="65" type="line"/>
			<point x="375" y="495" type="line"/>
		</contour>
	</outline>
</glyph>
<glyph name="comma" format="2">
	<advance width="250"/>
	<unicode hex="002C"/>
	<outline>
		<contour>
			<point x="-20" y="-200" type="line"/>
			<point x="97" y="-200" type="line"/>
			<point x="200" y="0" type="line"/>
			<point x="200" y="122" type="line"/>
			<point x="82" y="122" type="line"/>
			<point x="82" y="0" type="line"/>
		</contour>
	</outline>
</glyph>
<glyph name="hyphen" format="2">
	<advance width="530"/>
	<unicode hex="002D"/>
	<note>
		hyphen
	</note>
	<outline>
		<contour>
			<point x="100" y="220" type="line"/>
			<point x="430" y="220" type="line"/>
			<point x="430" y="340" type="line"/>
			<point x="100" y="340" type="line"/>
		</contour>
	</outline>
</glyph>
<glyph name="slash" format="2">
	<advance width="500"/>
	<unicode hex="002F"/>
	<outline>
		<contour>
			<point x="90" y="0" type="line"/>
			<point x="210" y="0" type="line"/>
			<point x="410" y="649" type="line"/>
			<point x="290" y="649" type="line"/>
		</contour>
	</outline>
</glyph>
<glyph name="zero" format="2">
	<advance width="620"/>
	<unicode hex="0030"/>
	<guideline x="766" y="-15" angle="0"/>
	<guideline x="500" y="665" angle="0"/>
	<note>
		zero
	</note>
	<outline>
		<contour>
			<point x="100" y="455" type="curve" smooth="yes"/>
			<point x="100" y="269" type="line"/>
			<point x="220" y="269" type="line"/>
			<point x="220" y="455" type="line" smooth="yes"/>
			<point x="220" y="509"/>
			<point x="256" y="545"/>
			<point x="310" y="545" type="curve" smooth="yes"/>
			<point x="364" y="545"/>
			<point x="400" y="509"/>
			<point x="400" y="455" type="curve" smooth="yes"/>
			<point x="400" y="269" type="line"/>
			<point x="520" y="269" type="line"/>
			<point x="520" y="455" type="line" smooth="yes"/>
			<point x="520" y="581"/>
			<point x="436" y="665"/>
			<point x="310" y="665" type="curve" smooth="yes"/>
			<point x="184" y="665"/>
			<point x="100" y="581"/>
		</contour>
		<contour>
			<point x="310" y="-15" type="curve" smooth="yes"/>
			<point x="436" y="-15"/>
			<point x="520" y="69"/>
			<point x="520" y="195" type="curve" smooth="yes"/>
			<point x="520" y="281" type="line"/>
			<point x="400" y="281" type="line"/>
			<point x="400" y="195" type="line" smooth="yes"/>
			<point x="400" y="141"/>
			<point x="364" y="105"/>
			<point x="310" y="105" type="curve" smooth="yes"/>
			<point x="256" y="105"/>
			<point x="220" y="141"/>
			<point x="220" y="195" type="curve" smooth="yes"/>
			<point x="220" y="281" type="line"/>
			<point x="100" y="281" type="line"/>
			<point x="100" y="195" type="line" smooth="yes"/>
			<point x="100" y="69"/>
			<point x="184" y="-15"/>
		</contour>
	</outline>
</glyph>
<glyph name="one" format="2">
	<advance width="387"/>
	<unicode hex="0031"/>
	<note>
		one
	</note>
	<outline>
		<contour>
			<point x="50" y="478" type="line"/>
			<point x="287" y="478" type="line"/>
			<point x="287" y="649" type="line"/>
			<point x="167" y="649" type="line"/>
		</contour>
		<contour>
			<point x="167" y="0" type="line"/>
			<point x="287" y="0" type="line"/>
			<point x="287" y="650" type="line"/>
			<point x="167" y="650" type="line"/>
		</contour>
	</outline>
</glyph>
<glyph name="two" format="2">
	<advance width="600"/>
	<unicode hex="0032"/>
	<guideline x="224" y="330" angle="0"/>
	<note>
		two
	</note>
	<outline>
		<contour>
			<point x="262" y="230" type="line"/>
			<point x="287" y="230" type="line" smooth="yes"/>
			<point x="413" y="230"/>
			<point x="497" y="314"/>
			<point x="497" y="440" type="curve" smooth="yes"/>
			<point x="497" y="566"/>
			<point x="413" y="650"/>
			<point x="287" y="650" type="curve" smooth="yes"/>
			<point x="172" y="650" type="line"/>
			<point x="172" y="535" type="line"/>
			<point x="287" y="535" type="line" smooth="yes"/>
			<point x="341" y="535"/>
			<point x="377" y="494"/>
			<point x="377" y="440" type="curve" smooth="yes"/>
			<point x="377" y="386"/>
			<point x="341" y="345"/>
			<point x="287" y="345" type="curve" smooth="yes"/>
			<point x="262" y="345" type="line"/>
		</contour>
		<contour>
			<point x="80" y="0" type="line"/>
			<point x="208" y="0" type="line"/>
			<point x="333" y="345" type="line"/>
			<point x="205" y="345" type="line"/>
		</contour>
		<contour>
			<point x="152" y="0" type="line"/>
			<point x="500" y="0" type="line"/>
			<point x="500" y="120" type="line"/>
			<point x="152" y="120" type="line"/>
		</contour>
	</outline>
</glyph>
<glyph name="three" format="2">
	<advance width="605"/>
	<unicode hex="0033"/>
	<note>
		three
	</note>
	<outline>
		<contour>
			<point x="100" y="0" type="line"/>
			<point x="305" y="0" type="line" smooth="yes"/>
			<point x="431" y="0"/>
			<point x="515" y="84"/>
			<point x="515" y="210" type="curve" smooth="yes"/>
			<point x="515" y="336"/>
			<point x="431" y="415"/>
			<point x="305" y="415" type="curve" smooth="yes"/>
			<point x="140" y="415" type="line"/>
			<point x="140" y="300" type="line"/>
			<point x="305" y="300" type="line" smooth="yes"/>
			<point x="359" y="300"/>
			<point x="395" y="264"/>
			<point x="395" y="210" type="curve" smooth="yes"/>
			<point x="395" y="156"/>
			<point x="359" y="115"/>
			<point x="305" y="115" type="curve" smooth="yes"/>
			<point x="100" y="115" type="line"/>
		</contour>
		<contour>
			<point x="100" y="534" type="line"/>
			<point x="275" y="534" type="line" smooth="yes"/>
			<point x="311" y="534"/>
			<point x="328" y="504"/>
			<point x="328" y="474" type="curve" smooth="yes"/>
			<point x="328" y="444"/>
			<point x="311" y="414"/>
			<point x="275" y="415" type="curve"/>
			<point x="275" y="300" type="line"/>
			<point x="389" y="300"/>
			<point x="448" y="387"/>
			<point x="448" y="475" type="curve" smooth="yes"/>
			<point x="448" y="563"/>
			<point x="389" y="649"/>
			<point x="275" y="649" type="curve" smooth="yes"/>
			<point x="100" y="649" type="line"/>
		</contour>
	</outline>
</glyph>
<glyph name="four" format="2">
	<advance width="638"/>
	<unicode hex="0034"/>
	<note>
		four
	</note>
	<outline>
		<contour>
			<point x="100" y="145" type="line"/>
			<point x="228" y="145" type="line"/>
			<point x="335" y="649" type="line"/>
			<point x="207" y="649" type="line"/>
		</contour>
		<contour>
			<point x="190" y="145" type="line"/>
			<point x="538" y="145" type="line"/>
			<point x="538" y="265" type="line"/>
			<point x="190" y="265" type="line"/>
		</contour>
		<contour>
			<point x="368" y="0" type="line"/>
			<point x="488" y="0" type="line"/>
			<point x="488" y="490" type="line"/>
			<point x="368" y="490" type="line"/>
		</contour>
	</outline>
</glyph>
<glyph name="five" format="2">
	<advance width="565"/>
	<unicode hex="0035"/>
	<guideline x="430" y="-151" angle="90"/>
	<note>
		five
	</note>
	<outline>
		<contour>
			<point x="100" y="0" type="line"/>
			<point x="275" y="0" type="line" smooth="yes"/>
			<point x="401" y="0"/>
			<point x="485" y="84"/>
			<point x="485" y="210" type="curve" smooth="yes"/>
			<point x="485" y="336"/>
			<point x="401" y="420"/>
			<point x="275" y="420" type="curve" smooth="yes"/>
			<point x="100" y="420" type="line"/>
			<point x="100" y="300" type="line"/>
			<point x="275" y="300" type="line" smooth="yes"/>
			<point x="329" y="300"/>
			<point x="365" y="264"/>
			<point x="365" y="210" type="curve" smooth="yes"/>
			<point x="365" y="156"/>
			<point x="329" y="120"/>
			<point x="275" y="120" type="curve" smooth="yes"/>
			<point x="100" y="120" type="line"/>
		</contour>
		<contour>
			<point x="100" y="300" type="line"/>
			<point x="220" y="300" type="line"/>
			<point x="220" y="649" type="line"/>
			<point x="100" y="649" type="line"/>
		</contour>
		<contour>
			<point x="100" y="534" type="line"/>
			<point x="430" y="534" type="line"/>
			<point x="430" y="649" type="line"/>
			<point x="100" y="649" type="line"/>
		</contour>
	</outline>
</glyph>
<glyph name="six" format="2">
	<advance width="620"/>
	<unicode hex="0036"/>
	<guideline x="520" y="448" angle="0"/>
	<guideline x="220" y="665" angle="0"/>
	<note>
		six
	</note>
	<outline>
		<contour>
			<point x="100" y="455" type="curve" smooth="yes"/>
			<point x="100" y="269" type="line"/>
			<point x="220" y="269" type="line"/>
			<point x="220" y="455" type="line" smooth="yes"/>
			<point x="220" y="515"/>
			<point x="267" y="545"/>
			<point x="313" y="545" type="curve" smooth="yes"/>
			<point x="357" y="545"/>
			<point x="400" y="518"/>
			<point x="400" y="465" type="curve"/>
			<point x="520" y="465" type="line"/>
			<point x="520" y="598"/>
			<point x="417" y="665"/>
			<point x="313" y="665" type="curve" smooth="yes"/>
			<point x="207" y="665"/>
			<point x="100" y="596"/>
		</contour>
		<contour>
			<point x="310" y="-15" type="curve" smooth="yes"/>
			<point x="436" y="-15"/>
			<point x="520" y="69"/>
			<point x="520" y="195" type="curve" smooth="yes"/>
			<point x="520" y="221" type="line"/>
			<point x="400" y="221" type="line"/>
			<point x="400" y="195" type="line" smooth="yes"/>
			<point x="400" y="141"/>
			<point x="364" y="105"/>
			<point x="310" y="105" type="curve" smooth="yes"/>
			<point x="256" y="105"/>
			<point x="220" y="141"/>
			<point x="220" y="195" type="curve" smooth="yes"/>
			<point x="220" y="281" type="line"/>
			<point x="100" y="281" type="line"/>
			<point x="100" y="195" type="line" smooth="yes"/>
			<point x="100" y="69"/>
			<point x="184" y="-15"/>
		</contour>
		<contour>
			<point x="150" y="221" type="curve" smooth="yes"/>
			<point x="150" y="205" type="line"/>
			<point x="220" y="205" type="line"/>
			<point x="220" y="221" type="line" smooth="yes"/>
			<point x="220" y="275"/>
			<point x="256" y="311"/>
			<point x="310" y="311" type="curve" smooth="yes"/>
			<point x="364" y="311"/>
			<point x="400" y="275"/>
			<point x="400" y="221" type="curve" smooth="yes"/>
			<point x="400" y="205" type="line"/>
			<point x="520" y="205" type="line"/>
			<point x="520" y="221" type="line" smooth="yes"/>
			<point x="520" y="362"/>
			<point x="427" y="432"/>
			<point x="335" y="432" type="curve" smooth="yes"/>
			<point x="242" y="432"/>
			<point x="150" y="362"/>
		</contour>
	</outline>
</glyph>
<glyph name="seven" format="2">
	<advance width="524"/>
	<unicode hex="0037"/>
	<note>
		seven
	</note>
	<outline>
		<contour>
			<point x="100" y="0" type="line"/>
			<point x="228" y="0" type="line"/>
			<point x="474" y="649" type="line"/>
			<point x="346" y="649" type="line"/>
		</contour>
		<contour>
			<point x="50" y="534" type="line"/>
			<point x="360" y="534" type="line"/>
			<point x="360" y="649" type="line"/>
			<point x="50" y="649" type="line"/>
		</contour>
	</outline>
</glyph>
<glyph name="eight" format="2">
	<advance width="620"/>
	<unicode hex="0038"/>
	<guideline x="500" y="665" angle="0"/>
	<note>
		eight
	</note>
	<outline>
		<contour>
			<point x="100" y="455" type="curve" smooth="yes"/>
			<point x="100" y="423" type="line"/>
			<point x="100" y="357"/>
			<point x="123" y="303"/>
			<point x="163" y="266" type="curve"/>
			<point x="248" y="354" type="line"/>
			<point x="230" y="370"/>
			<point x="220" y="394"/>
			<point x="220" y="423" type="curve" smooth="yes"/>
			<point x="220" y="455" type="line" smooth="yes"/>
			<point x="220" y="509"/>
			<point x="256" y="545"/>
			<point x="310" y="545" type="curve"/>
			<point x="310" y="665" type="line"/>
			<point x="184" y="665"/>
			<point x="100" y="581"/>
		</contour>
		<contour>
			<point x="520" y="423" type="curve" smooth="yes"/>
			<point x="520" y="455" type="line" smooth="yes"/>
			<point x="520" y="581"/>
			<point x="436" y="665"/>
			<point x="310" y="665" type="curve"/>
			<point x="310" y="545" type="line"/>
			<point x="364" y="545"/>
			<point x="400" y="509"/>
			<point x="400" y="455" type="curve" smooth="yes"/>
			<point x="400" y="423" type="line" smooth="yes"/>
			<point x="400" y="394"/>
			<point x="390" y="370"/>
			<point x="372" y="354" type="curve"/>
			<point x="457" y="266" type="line"/>
			<point x="497" y="303"/>
			<point x="520" y="357"/>
		</contour>
		<contour>
			<point x="100" y="227" type="curve" smooth="yes"/>
			<point x="100" y="195" type="line"/>
			<point x="100" y="69"/>
			<point x="184" y="-15"/>
			<point x="310" y="-15" type="curve" smooth="yes"/>
			<point x="436" y="-15"/>
			<point x="520" y="69"/>
			<point x="520" y="195" type="curve" smooth="yes"/>
			<point x="520" y="227" type="line" smooth="yes"/>
			<point x="520" y="353"/>
			<point x="436" y="437"/>
			<point x="310" y="437" type="curve" smooth="yes"/>
			<point x="184" y="437"/>
			<point x="100" y="353"/>
		</contour>
		<contour>
			<point x="220" y="195" type="curve" smooth="yes"/>
			<point x="220" y="227" type="line" smooth="yes"/>
			<point x="220" y="281"/>
			<point x="256" y="317"/>
			<point x="310" y="317" type="curve" smooth="yes"/>
			<point x="364" y="317"/>
			<point x="400" y="281"/>
			<point x="400" y="227" type="curve" smooth="yes"/>
			<point x="400" y="195" type="line" smooth="yes"/>
			<point x="400" y="141"/>
			<point x="364" y="105"/>
			<point x="310" y="105" type="curve" smooth="yes"/>
			<point x="256" y="105"/>
			<point x="220" y="141"/>
		</contour>
	</outline>
</glyph>
<glyph name="nine" format="2">
	<advance width="620"/>
	<unicode hex="0039"/>
	<note>
		nine
	</note>
	<outline>
		<contour>
			<point x="520" y="195" type="curve" smooth="yes"/>
			<point x="520" y="381" type="line"/>
			<point x="400" y="381" type="line"/>
			<point x="400" y="195" type="line" smooth="yes"/>
			<point x="400" y="135"/>
			<point x="353" y="105"/>
			<point x="307" y="105" type="curve" smooth="yes"/>
			<point x="263" y="105"/>
			<point x="220" y="132"/>
			<point x="220" y="185" type="curve"/>
			<point x="100" y="185" type="line"/>
			<point x="100" y="52"/>
			<point x="203" y="-15"/>
			<point x="307" y="-15" type="curve" smooth="yes"/>
			<point x="413" y="-15"/>
			<point x="520" y="54"/>
		</contour>
		<contour>
			<point x="310" y="665" type="curve" smooth="yes"/>
			<point x="184" y="665"/>
			<point x="100" y="581"/>
			<point x="100" y="455" type="curve" smooth="yes"/>
			<point x="100" y="429" type="line"/>
			<point x="220" y="429" type="line"/>
			<point x="220" y="455" type="line" smooth="yes"/>
			<point x="220" y="509"/>
			<point x="256" y="545"/>
			<point x="310" y="545" type="curve" smooth="yes"/>
			<point x="364" y="545"/>
			<point x="400" y="509"/>
			<point x="400" y="455" type="curve" smooth="yes"/>
			<point x="400" y="369" type="line"/>
			<point x="520" y="369" type="line"/>
			<point x="520" y="455" type="line" smooth="yes"/>
			<point x="520" y="581"/>
			<point x="436" y="665"/>
		</contour>
		<contour>
			<point x="470" y="429" type="curve" smooth="yes"/>
			<point x="470" y="445" type="line"/>
			<point x="400" y="445" type="line"/>
			<point x="400" y="429" type="line" smooth="yes"/>
			<point x="400" y="375"/>
			<point x="364" y="339"/>
			<point x="310" y="339" type="curve" smooth="yes"/>
			<point x="256" y="339"/>
			<point x="220" y="375"/>
			<point x="220" y="429" type="curve" smooth="yes"/>
			<point x="220" y="445" type="line"/>
			<point x="100" y="445" type="line"/>
			<point x="100" y="429" type="line" smooth="yes"/>
			<point x="100" y="288"/>
			<point x="193" y="218"/>
			<point x="285" y="218" type="curve" smooth="yes"/>
			<point x="378" y="218"/>
			<point x="470" y="288"/>
		</contour>
	</outline>
</glyph>
<glyph name="colon" format="2">
	<advance width="370"/>
	<unicode hex="003A"/>
	<note>
		colon
	</note>
	<outline>
		<contour>
			<point x="185" y="-5" type="curve" smooth="yes"/>
			<point x="232" y="-5"/>
			<point x="270" y="33"/>
			<point x="270" y="80" type="curve" smooth="yes"/>
			<point x="270" y="127"/>
			<point x="232" y="165"/>
			<point x="185" y="165" type="curve" smooth="yes"/>
			<point x="138" y="165"/>
			<point x="100" y="127"/>
			<point x="100" y="80" type="curve" smooth="yes"/>
			<point x="100" y="33"/>
			<point x="138" y="-5"/>
		</contour>
		<contour>
			<point x="185" y="245" type="curve" smooth="yes"/>
			<point x="232" y="245"/>
			<point x="270" y="283"/>
			<point x="270" y="330" type="curve" smooth="yes"/>
			<point x="270" y="377"/>
			<point x="232" y="415"/>
			<point x="185" y="415" type="curve" smooth="yes"/>
			<point x="138" y="415"/>
			<point x="100" y="377"/>
			<point x="100" y="330" type="curve" smooth="yes"/>
			<point x="100" y="283"/>
			<point x="138" y="245"/>
		</contour>
	</outline>
</glyph>
<glyph name="semicolon" format="2">
	<advance width="370"/>
	<unicode hex="003B"/>
	<note>
		semicolon
	</note>
	<outline>
		<contour>
			<point x="25" y="-200" type="line"/>
			<point x="142" y="-200" type="line"/>
			<point x="244" y="0" type="line"/>
			<point x="244" y="122" type="line"/>
			<point x="126" y="122" type="line"/>
			<point x="126" y="0" type="line"/>
		</contour>
		<contour>
			<point x="185" y="245" type="curve" smooth="yes"/>
			<point x="232" y="245"/>
			<point x="270" y="283"/>
			<point x="270" y="330" type="curve" smooth="yes"/>
			<point x="270" y="377"/>
			<point x="232" y="415"/>
			<point x="185" y="415" type="curve" smooth="yes"/>
			<point x="138" y="415"/>
			<point x="100" y="377"/>
			<point x="100" y="330" type="curve" smooth="yes"/>
			<point x="100" y="283"/>
			<point x="138" y="245"/>
		</contour>
	</outline>
</glyph>
<glyph name="equal" format="2">
	<advance width="530"/>
	<unicode hex="003D"/>
	<outline>
		<contour>
			<point x="100" y="120" type="line"/>
			<point x="430" y="120" type="line"/>
			<point x="430" y="240" type="line"/>
			<point x="100" y="240" type="line"/>
		</contour>
		<contour>
			<point x="100" y="320" type="line"/>
			<point x="430" y="320" type="line"/>
			<point x="430" y="440" type="line"/>
			<point x="100" y="440" type="line"/>
		</contour>
	</outline>
</glyph>
<glyph name="question" format="2">
	<advance width="575"/>
	<unicode hex="003F"/>
	<guideline x="150" y="213" angle="0"/>
	<note>
		question
	</note>
	<outline>
		<contour>
			<point x="365" y="486" type="curve"/>
			<point x="485" y="486" type="line"/>
			<point x="485" y="615"/>
			<point x="399" y="701"/>
			<point x="270" y="701" type="curve" smooth="yes"/>
			<point x="100" y="701" type="line"/>
			<point x="100" y="586" type="line"/>
			<point x="270" y="586" type="line" smooth="yes"/>
			<point x="327" y="586"/>
			<point x="365" y="543"/>
		</contour>
		<contour>
			<point x="150" y="213" type="line"/>
			<point x="268" y="213" type="line"/>
			<point x="268" y="324" type="line"/>
			<point x="150" y="324" type="line"/>
		</contour>
		<contour>
			<point x="150" y="271" type="line"/>
			<point x="270" y="271" type="line" smooth="yes"/>
			<point x="399" y="271"/>
			<point x="485" y="357"/>
			<point x="485" y="486" type="curve"/>
			<point x="365" y="486" type="line"/>
			<point x="365" y="429"/>
			<point x="327" y="386"/>
			<point x="270" y="386" type="curve" smooth="yes"/>
			<point x="150" y="386" type="line"/>
		</contour>
		<contour>
			<point x="209" y="-5" type="curve" smooth="yes"/>
			<point x="256" y="-5"/>
			<point x="294" y="33"/>
			<point x="294" y="80" type="curve" smooth="yes"/>
			<point x="294" y="127"/>
			<point x="256" y="165"/>
			<point x="209" y="165" type="curve" smooth="yes"/>
			<point x="162" y="165"/>
			<point x="124" y="127"/>
			<point x="124" y="80" type="curve" smooth="yes"/>
			<point x="124" y="33"/>
			<point x="162" y="-5"/>
		</contour>
	</outline>
</glyph>
<glyph name="at" format="2">
	<advance width="1192"/>
	<unicode hex="0040"/>
	<outline>
		<contour>
			<point x="379" y="89" type="line"/>
			<point x="796" y="89" type="line" smooth="yes"/>
			<point x="996" y="89"/>
			<point x="1092" y="223"/>
			<point x="1092" y="373" type="curve" smooth="yes"/>
			<point x="1092" y="562"/>
			<point x="940" y="784"/>
			<point x="601" y="784" type="curve" smooth="yes"/>
			<point x="288" y="784"/>
			<point x="100" y="578"/>
			<point x="100" y="281" type="curve" smooth="yes"/>
			<point x="100" y="16"/>
			<point x="320" y="-160"/>
			<point x="649" y="-158" type="curve"/>
			<point x="649" y="-33" type="line"/>
			<point x="398" y="-33"/>
			<point x="230" y="91"/>
			<point x="230" y="281" type="curve" smooth="yes"/>
			<point x="230" y="504"/>
			<point x="366" y="659"/>
			<point x="601" y="659" type="curve" smooth="yes"/>
			<point x="858" y="659"/>
			<point x="962" y="506"/>
			<point x="962" y="380" type="curve" smooth="yes"/>
			<point x="962" y="285"/>
			<point x="901" y="204"/>
			<point x="764" y="204" type="curve" smooth="yes"/>
			<point x="534" y="204" type="line"/>
			<point x="617" y="459" type="line"/>
			<point x="571" y="459" type="line"/>
			<point x="724" y="0" type="line"/>
			<point x="840" y="0" type="line"/>
			<point x="651" y="575" type="line"/>
			<point x="537" y="575" type="line"/>
		</contour>
	</outline>
</glyph>
<glyph name="A" format="2">
	<advance width="640"/>
	<unicode hex="0041"/>
	<anchor x="320" y="0" name="bottom"/>
	<anchor x="548" y="0" name="ogonek"/>
	<anchor x="320" y="650" name="top"/>
	<note>
		A
	</note>
	<outline>
		<contour>
			<point x="185" y="158" type="line"/>
			<point x="455" y="158" type="line"/>
			<point x="455" y="273" type="line"/>
			<point x="185" y="273" type="line"/>
		</contour>
		<contour>
			<point x="590" y="0" type="line"/>
			<point x="405" y="650" type="line"/>
			<point x="244" y="650" type="line"/>
			<point x="50" y="0" type="line"/>
			<point x="171" y="0" type="line"/>
			<point x="328" y="546" type="line"/>
			<point x="324" y="546" type="line"/>
			<point x="475" y="0" type="line"/>
		</contour>
	</outline>
</glyph>
<glyph name="B" format="2">
	<advance width="582"/>
	<unicode hex="0042"/>
	<anchor x="308" y="0" name="bottom"/>
	<anchor x="168" y="0" name="ogonek"/>
	<anchor x="308" y="650" name="top"/>
	<anchor x="10" y="649" name="topleft"/>
	<note>
		B
	</note>
	<outline>
		<contour>
			<point x="120" y="0" type="line"/>
			<point x="320" y="0" type="line" smooth="yes"/>
			<point x="465" y="0"/>
			<point x="532" y="109"/>
			<point x="532" y="218" type="curve" smooth="yes"/>
			<point x="532" y="297"/>
			<point x="495" y="369"/>
			<point x="420" y="406" type="curve"/>
			<point x="383" y="293" type="line"/>
			<point x="406" y="274"/>
			<point x="417" y="246"/>
			<point x="417" y="218" type="curve" smooth="yes"/>
			<point x="417" y="169"/>
			<point x="383" y="115"/>
			<point x="315" y="115" type="curve" smooth="yes"/>
			<point x="120" y="115" type="line"/>
		</contour>
		<contour>
			<point x="100" y="220" type="line"/>
			<point x="220" y="220" type="line" smooth="yes"/>
			<point x="349" y="220"/>
			<point x="435" y="306"/>
			<point x="435" y="435" type="curve" smooth="yes"/>
			<point x="435" y="564"/>
			<point x="349" y="650"/>
			<point x="220" y="650" type="curve" smooth="yes"/>
			<point x="100" y="650" type="line"/>
			<point x="100" y="540" type="line"/>
			<point x="230" y="540" type="line" smooth="yes"/>
			<point x="287" y="540"/>
			<point x="330" y="492"/>
			<point x="330" y="435" type="curve" smooth="yes"/>
			<point x="330" y="378"/>
			<point x="287" y="330"/>
			<point x="230" y="330" type="curve" smooth="yes"/>
			<point x="100" y="330" type="line"/>
		</contour>
		<contour>
			<point x="100" y="0" type="line"/>
			<point x="220" y="0" type="line"/>
			<point x="220" y="650" type="line"/>
			<point x="100" y="650" type="line"/>
		</contour>
	</outline>
</glyph>
<glyph name="D" format="2">
	<advance width="635"/>
	<unicode hex="0044"/>
	<anchor x="323" y="0" name="bottom"/>
	<anchor x="323" y="325" name="center"/>
	<anchor x="220" y="649" name="top"/>
	<note>
		D
	</note>
	<outline>
		<contour>
			<point x="220" y="0" type="line"/>
			<point x="220" y="650" type="line"/>
			<point x="100" y="650" type="line"/>
			<point x="100" y="0" type="line"/>
		</contour>
		<contour>
			<point x="230" y="0" type="line"/>
			<point x="419" y="0"/>
			<point x="555" y="130"/>
			<point x="555" y="325" type="curve"/>
			<point x="435" y="325" type="line"/>
			<point x="435" y="202"/>
			<point x="353" y="115"/>
			<point x="230" y="115" type="curve" smooth="yes"/>
			<point x="120" y="115" type="line"/>
			<point x="120" y="0" type="line"/>
		</contour>
		<contour>
			<point x="435" y="325" type="curve"/>
			<point x="555" y="325" type="line"/>
			<point x="555" y="519"/>
			<point x="419" y="650"/>
			<point x="230" y="650" type="curve" smooth="yes"/>
			<point x="120" y="650" type="line"/>
			<point x="120" y="535" type="line"/>
			<point x="230" y="535" type="line" smooth="yes"/>
			<point x="353" y="535"/>
			<point x="435" y="447"/>
		</contour>
	</outline>
</glyph>
<glyph name="E" format="2">
	<advance width="520"/>
	<unicode hex="0045"/>
	<guideline x="410" y="382" angle="0"/>
	<anchor x="265" y="0" name="bottom"/>
	<anchor x="388" y="0" name="ogonek"/>
	<anchor x="217" y="712" name="placement accent"/>
	<anchor x="265" y="649" name="top"/>
	<anchor x="20" y="649" name="topleft"/>
	<note>
		E
	</note>
	<outline>
		<contour>
			<point x="100" y="535" type="line"/>
			<point x="430" y="535" type="line"/>
			<point x="430" y="650" type="line"/>
			<point x="100" y="650" type="line"/>
		</contour>
		<contour>
			<point x="100" y="0" type="line"/>
			<point x="430" y="0" type="line"/>
			<point x="430" y="115" type="line"/>
			<point x="100" y="115" type="line"/>
		</contour>
		<contour>
			<point x="100" y="267" type="line"/>
			<point x="380" y="267" type="line"/>
			<point x="380" y="382" type="line"/>
			<point x="100" y="382" type="line"/>
		</contour>
		<contour>
			<point x="100" y="0" type="line"/>
			<point x="220" y="0" type="line"/>
			<point x="220" y="650" type="line"/>
			<point x="100" y="650" type="line"/>
		</contour>
	</outline>
</glyph>
<glyph name="F" format="2">
	<advance width="520"/>
	<unicode hex="0046"/>
	<guideline x="444" y="122" angle="0"/>
	<guideline x="419" y="382" angle="0"/>
	<anchor x="260" y="0" name="bottom"/>
	<anchor x="260" y="650" name="top"/>
	<note>
		F
	</note>
	<outline>
		<contour>
			<point x="100" y="535" type="line"/>
			<point x="430" y="535" type="line"/>
			<point x="430" y="650" type="line"/>
			<point x="100" y="650" type="line"/>
		</contour>
		<contour>
			<point x="100" y="262" type="line"/>
			<point x="430" y="262" type="line"/>
			<point x="430" y="377" type="line"/>
			<point x="100" y="377" type="line"/>
		</contour>
		<contour>
			<point x="100" y="0" type="line"/>
			<point x="220" y="0" type="line"/>
			<point x="220" y="650" type="line"/>
			<point x="100" y="650" type="line"/>
		</contour>
	</outline>
</glyph>
<glyph name="G" format="2">
	<advance width="605"/>
	<unicode hex="0047"/>
	<anchor x="405" y="0" name="bottom"/>
	<anchor x="405" y="649" name="top"/>
	<note>
		G
	</note>
	<outline>
		<contour>
			<point x="405" y="0" type="line"/>
			<point x="525" y="0" type="line"/>
			<point x="525" y="330" type="line"/>
			<point x="405" y="330" type="line"/>
		</contour>
		<contour>
			<point x="395" y="0" type="curve" smooth="yes"/>
			<point x="525" y="0" type="line"/>
			<point x="525" y="115" type="line"/>
			<point x="405" y="115" type="line" smooth="yes"/>
			<point x="282" y="115"/>
			<point x="200" y="202"/>
			<point x="200" y="325" type="curve"/>
			<point x="80" y="325" type="line"/>
			<point x="80" y="130"/>
			<point x="206" y="0"/>
		</contour>
		<contour>
			<point x="80" y="325" type="curve"/>
			<point x="200" y="325" type="line"/>
			<point x="200" y="447"/>
			<point x="282" y="535"/>
			<point x="405" y="535" type="curve" smooth="yes"/>
			<point x="515" y="535" type="line"/>
			<point x="515" y="650" type="line"/>
			<point x="395" y="650" type="line" smooth="yes"/>
			<point x="206" y="650"/>
			<point x="80" y="519"/>
		</contour>
	</outline>
</glyph>
<glyph name="I" format="2">
	<advance width="300"/>
	<unicode hex="0049"/>
	<anchor x="150" y="0" name="bottom"/>
	<anchor x="168" y="0" name="ogonek"/>
	<anchor x="150" y="649" name="top"/>
	<anchor x="10" y="649" name="topleft"/>
	<note>
		I
	</note>
	<outline>
		<contour>
			<point x="90" y="0" type="line"/>
			<point x="210" y="0" type="line"/>
			<point x="210" y="650" type="line"/>
			<point x="90" y="650" type="line"/>
		</contour>
	</outline>
</glyph>
<glyph name="J" format="2">
	<advance width="486"/>
	<unicode hex="004A"/>
	<anchor x="218" y="0" name="bottom"/>
	<anchor x="326" y="650" name="top"/>
	<note>
		J
	</note>
	<outline>
		<contour>
			<point x="218" y="-20" type="curve" smooth="yes"/>
			<point x="319" y="-20"/>
			<point x="386" y="44"/>
			<point x="386" y="140" type="curve" smooth="yes"/>
			<point x="386" y="650" type="line"/>
			<point x="266" y="650" type="line"/>
			<point x="266" y="145" type="line" smooth="yes"/>
			<point x="266" y="116"/>
			<point x="247" y="97"/>
			<point x="218" y="97" type="curve" smooth="yes"/>
			<point x="189" y="97"/>
			<point x="170" y="116"/>
			<point x="170" y="145" type="curve" smooth="yes"/>
			<point x="170" y="276" type="line"/>
			<point x="50" y="276" type="line"/>
			<point x="50" y="140" type="line" smooth="yes"/>
			<point x="50" y="44"/>
			<point x="117" y="-20"/>
		</contour>
	</outline>
</glyph>
<glyph name="K" format="2">
	<advance width="590"/>
	<unicode hex="004B"/>
	<guideline x="370" y="318" angle="0"/>
	<anchor x="308" y="0" name="bottom"/>
	<anchor x="308" y="649" name="top"/>
	<note>
		K
	</note>
	<outline>
		<contour>
			<point x="233" y="253" type="line"/>
			<point x="352" y="253" type="line"/>
			<point x="517" y="650" type="line"/>
			<point x="398" y="650" type="line"/>
		</contour>
		<contour>
			<point x="100" y="203" type="line"/>
			<point x="370" y="203" type="line"/>
			<point x="370" y="318" type="line"/>
			<point x="100" y="318" type="line"/>
		</contour>
		<contour>
			<point x="418" y="0" type="line"/>
			<point x="540" y="0" type="line"/>
			<point x="380" y="326" type="line"/>
			<point x="339" y="318" type="line"/>
			<point x="259" y="318" type="line"/>
		</contour>
		<contour>
			<point x="100" y="0" type="line"/>
			<point x="220" y="0" type="line"/>
			<point x="220" y="650" type="line"/>
			<point x="100" y="650" type="line"/>
		</contour>
	</outline>
</glyph>
<glyph name="L" format="2">
	<advance width="535"/>
	<unicode hex="004C"/>
	<anchor x="283" y="0" name="bottom"/>
	<anchor x="283" y="325" name="center"/>
	<anchor x="160" y="649" name="top"/>
	<anchor x="545" y="649" name="topright"/>
	<note>
		L
	</note>
	<outline>
		<contour>
			<point x="100" y="0" type="line"/>
			<point x="485" y="0" type="line"/>
			<point x="485" y="120" type="line"/>
			<point x="100" y="120" type="line"/>
		</contour>
		<contour>
			<point x="100" y="0" type="line"/>
			<point x="220" y="0" type="line"/>
			<point x="220" y="650" type="line"/>
			<point x="100" y="650" type="line"/>
		</contour>
	</outline>
</glyph>
<glyph name="M" format="2">
	<advance width="836"/>
	<unicode hex="004D"/>
	<anchor x="418" y="0" name="bottom"/>
	<anchor x="684" y="0" name="ogonek"/>
	<anchor x="418" y="650" name="top"/>
	<anchor x="526" y="649" name="topleft"/>
	<note>
		M
	</note>
	<outline>
		<contour>
			<point x="368" y="267" type="line"/>
			<point x="463" y="267" type="line"/>
			<point x="463" y="382" type="line"/>
			<point x="418" y="382" type="line"/>
			<point x="220" y="650" type="line"/>
			<point x="145" y="650" type="line"/>
			<point x="145" y="535" type="line"/>
			<point x="170" y="535" type="line"/>
		</contour>
		<contour>
			<point x="468" y="267" type="line"/>
			<point x="666" y="535" type="line"/>
			<point x="691" y="535" type="line"/>
			<point x="691" y="650" type="line"/>
			<point x="616" y="650" type="line"/>
			<point x="418" y="382" type="line"/>
			<point x="373" y="382" type="line"/>
			<point x="373" y="267" type="line"/>
		</contour>
		<contour>
			<point x="100" y="0" type="line"/>
			<point x="220" y="0" type="line"/>
			<point x="220" y="650" type="line"/>
			<point x="100" y="650" type="line"/>
		</contour>
		<contour>
			<point x="616" y="0" type="line"/>
			<point x="736" y="0" type="line"/>
			<point x="736" y="650" type="line"/>
			<point x="616" y="650" type="line"/>
		</contour>
	</outline>
</glyph>
<glyph name="N" format="2">
	<advance width="635"/>
	<unicode hex="004E"/>
	<anchor x="318" y="0" name="bottom"/>
	<anchor x="318" y="650" name="top"/>
	<note>
		N
	</note>
	<outline>
		<contour>
			<point x="365" y="267" type="line"/>
			<point x="460" y="267" type="line"/>
			<point x="460" y="382" type="line"/>
			<point x="415" y="382" type="line"/>
			<point x="220" y="650" type="line"/>
			<point x="145" y="650" type="line"/>
			<point x="145" y="535" type="line"/>
			<point x="170" y="535" type="line"/>
		</contour>
		<contour>
			<point x="100" y="0" type="line"/>
			<point x="220" y="0" type="line"/>
			<point x="220" y="650" type="line"/>
			<point x="100" y="650" type="line"/>
		</contour>
		<contour>
			<point x="415" y="0" type="line"/>
			<point x="535" y="0" type="line"/>
			<point x="535" y="650" type="line"/>
			<point x="415" y="650" type="line"/>
		</contour>
	</outline>
</glyph>
<glyph name="Q" format="2">
	<advance width="875"/>
	<unicode hex="0051"/>
	<anchor x="420" y="-16" name="bottom"/>
	<anchor x="420" y="664" name="top"/>
	<note>
		Q
	</note>
	<outline>
		<contour>
			<point x="644" y="0" type="line"/>
			<point x="795" y="0" type="line"/>
			<point x="569" y="238" type="line"/>
			<point x="412" y="238" type="line"/>
		</contour>
		<contour>
			<point x="420" y="-16" type="curve" smooth="yes"/>
			<point x="608" y="-16"/>
			<point x="760" y="136"/>
			<point x="760" y="324" type="curve" smooth="yes"/>
			<point x="760" y="512"/>
			<point x="608" y="664"/>
			<point x="420" y="664" type="curve" smooth="yes"/>
			<point x="232" y="664"/>
			<point x="80" y="512"/>
			<point x="80" y="324" type="curve" smooth="yes"/>
			<point x="80" y="136"/>
			<point x="232" y="-16"/>
		</contour>
		<contour>
			<point x="420" y="109" type="curve" smooth="yes"/>
			<point x="301" y="109"/>
			<point x="205" y="205"/>
			<point x="205" y="324" type="curve" smooth="yes"/>
			<point x="205" y="443"/>
			<point x="301" y="539"/>
			<point x="420" y="539" type="curve" smooth="yes"/>
			<point x="539" y="539"/>
			<point x="635" y="444"/>
			<point x="635" y="324" type="curve" smooth="yes"/>
			<point x="635" y="205"/>
			<point x="538" y="109"/>
		</contour>
	</outline>
</glyph>
<glyph name="S" format="2">
	<advance width="560"/>
	<unicode hex="0053"/>
	<guideline x="393" y="529" angle="90"/>
	<anchor x="280" y="0" name="bottom"/>
	<anchor x="280" y="650" name="top"/>
	<note>
		S
	</note>
	<outline>
		<contour>
			<point x="117" y="0" type="line"/>
			<point x="284" y="0" type="line" smooth="yes"/>
			<point x="428" y="0"/>
			<point x="500" y="109"/>
			<point x="500" y="218" type="curve" smooth="yes"/>
			<point x="500" y="327"/>
			<point x="428" y="426"/>
			<point x="284" y="426" type="curve" smooth="yes"/>
			<point x="277" y="426" type="line"/>
			<point x="277" y="311" type="line"/>
			<point x="279" y="311" type="line" smooth="yes"/>
			<point x="340" y="311"/>
			<point x="380" y="274"/>
			<point x="380" y="216" type="curve" smooth="yes"/>
			<point x="380" y="155"/>
			<point x="339" y="115"/>
			<point x="275" y="115" type="curve" smooth="yes"/>
			<point x="117" y="115" type="line"/>
		</contour>
		<contour>
			<point x="276" y="223" type="curve" smooth="yes"/>
			<point x="283" y="223" type="line"/>
			<point x="283" y="338" type="line"/>
			<point x="281" y="338" type="line" smooth="yes"/>
			<point x="220" y="338"/>
			<point x="180" y="375"/>
			<point x="180" y="433" type="curve" smooth="yes"/>
			<point x="180" y="494"/>
			<point x="221" y="535"/>
			<point x="285" y="535" type="curve" smooth="yes"/>
			<point x="393" y="535" type="line"/>
			<point x="393" y="650" type="line"/>
			<point x="276" y="650" type="line" smooth="yes"/>
			<point x="132" y="650"/>
			<point x="60" y="540"/>
			<point x="60" y="431" type="curve" smooth="yes"/>
			<point x="60" y="322"/>
			<point x="132" y="223"/>
		</contour>
	</outline>
</glyph>
<glyph name="T" format="2">
	<advance width="535"/>
	<unicode hex="0054"/>
	<anchor x="268" y="0" name="bottom"/>
	<anchor x="268" y="325" name="center"/>
	<anchor x="268" y="650" name="top"/>
	<note>
		T
	</note>
	<outline>
		<contour>
			<point x="50" y="535" type="line"/>
			<point x="485" y="535" type="line"/>
			<point x="485" y="650" type="line"/>
			<point x="50" y="650" type="line"/>
		</contour>
		<contour>
			<point x="208" y="0" type="line"/>
			<point x="328" y="0" type="line"/>
			<point x="328" y="650" type="line"/>
			<point x="208" y="650" type="line"/>
		</contour>
	</outline>
</glyph>
<glyph name="U" format="2">
	<advance width="690"/>
	<unicode hex="0055"/>
	<guideline x="407" y="-15" angle="0"/>
	<anchor x="345" y="0" name="bottom"/>
	<anchor x="397" y="0" name="ogonek"/>
	<anchor x="345" y="650" name="top"/>
	<anchor x="670" y="650" name="topright"/>
	<note>
		U
	</note>
	<outline>
		<contour>
			<point x="345" y="102" type="curve"/>
			<point x="345" y="-15" type="line"/>
			<point x="492" y="-15"/>
			<point x="590" y="79"/>
			<point x="590" y="220" type="curve" smooth="yes"/>
			<point x="590" y="650" type="line"/>
			<point x="470" y="650" type="line"/>
			<point x="470" y="230" type="line" smooth="yes"/>
			<point x="470" y="153"/>
			<point x="421" y="102"/>
		</contour>
		<contour>
			<point x="345" y="-15" type="curve"/>
			<point x="345" y="102" type="line"/>
			<point x="269" y="102"/>
			<point x="220" y="153"/>
			<point x="220" y="230" type="curve" smooth="yes"/>
			<point x="220" y="650" type="line"/>
			<point x="100" y="650" type="line"/>
			<point x="100" y="220" type="line" smooth="yes"/>
			<point x="100" y="79"/>
			<point x="198" y="-15"/>
		</contour>
	</outline>
</glyph>
<glyph name="V" format="2">
	<advance width="640"/>
	<unicode hex="0056"/>
	<guideline x="410" y="104" angle="0"/>
	<anchor x="320" y="0" name="bottom"/>
	<anchor x="320" y="649" name="top"/>
	<note>
		V
	</note>
	<outline>
		<contour>
			<point x="590" y="650" type="line"/>
			<point x="475" y="650" type="line"/>
			<point x="324" y="104" type="line"/>
			<point x="328" y="104" type="line"/>
			<point x="171" y="650" type="line"/>
			<point x="50" y="650" type="line"/>
			<point x="244" y="0" type="line"/>
			<point x="405" y="0" type="line"/>
		</contour>
	</outline>
</glyph>
<glyph name="W" format="2">
	<advance width="880"/>
	<unicode hex="0057"/>
	<guideline x="410" y="104" angle="0"/>
	<anchor x="440" y="0" name="bottom"/>
	<anchor x="440" y="650" name="top"/>
	<note>
		W
	</note>
	<outline>
		<contour>
			<point x="254" y="0" type="line"/>
			<point x="395" y="0" type="line"/>
			<point x="600" y="650" type="line"/>
			<point x="489" y="650" type="line"/>
			<point x="327" y="104" type="line"/>
			<point x="332" y="104" type="line"/>
			<point x="171" y="650" type="line"/>
			<point x="50" y="650" type="line"/>
		</contour>
		<contour>
			<point x="494" y="0" type="line"/>
			<point x="635" y="0" type="line"/>
			<point x="830" y="650" type="line"/>
			<point x="715" y="650" type="line"/>
			<point x="559" y="104" type="line"/>
			<point x="564" y="104" type="line"/>
			<point x="396" y="650" type="line"/>
			<point x="280" y="650" type="line"/>
		</contour>
	</outline>
</glyph>
<glyph name="X" format="2">
	<advance width="538"/>
	<unicode hex="0058"/>
	<guideline x="368" y="326" angle="0"/>
	<anchor x="269" y="0" name="bottom"/>
	<anchor x="269" y="650" name="top"/>
	<note>
		X
	</note>
	<outline>
		<contour>
			<point x="329" y="317" type="line"/>
			<point x="172" y="650" type="line"/>
			<point x="50" y="650" type="line"/>
			<point x="207" y="317" type="line"/>
		</contour>
		<contour>
			<point x="209" y="327" type="line"/>
			<point x="331" y="327" type="line"/>
			<point x="488" y="650" type="line"/>
			<point x="366" y="650" type="line"/>
		</contour>
		<contour>
			<point x="329" y="333" type="line"/>
			<point x="207" y="333" type="line"/>
			<point x="50" y="0" type="line"/>
			<point x="172" y="0" type="line"/>
		</contour>
		<contour>
			<point x="209" y="333" type="line"/>
			<point x="366" y="0" type="line"/>
			<point x="488" y="0" type="line"/>
			<point x="331" y="333" type="line"/>
		</contour>
	</outline>
</glyph>
<glyph name="Y" format="2">
	<advance width="517"/>
	<unicode hex="0059"/>
	<anchor x="259" y="0" name="bottom"/>
	<anchor x="259" y="650" name="top"/>
	<anchor x="20" y="650" name="topleft"/>
	<note>
		Y
	</note>
	<outline>
		<contour>
			<point x="199" y="0" type="line"/>
			<point x="319" y="0" type="line"/>
			<point x="319" y="339" type="line"/>
			<point x="199" y="339" type="line"/>
		</contour>
		<contour>
			<point x="40" y="650" type="line"/>
			<point x="200" y="323" type="line"/>
			<point x="318" y="323" type="line"/>
			<point x="477" y="650" type="line"/>
			<point x="355" y="650" type="line"/>
			<point x="257" y="448" type="line"/>
			<point x="261" y="448" type="line"/>
			<point x="162" y="650" type="line"/>
		</contour>
	</outline>
</glyph>
<glyph name="Z" format="2">
	<advance width="544"/>
	<unicode hex="005A"/>
	<guideline x="49" y="13" angle="90"/>
	<anchor x="272" y="0" name="bottom"/>
	<anchor x="272" y="325" name="center"/>
	<anchor x="272" y="650" name="top"/>
	<note>
		Z
	</note>
	<outline>
		<contour>
			<point x="50" y="0" type="line"/>
			<point x="178" y="0" type="line"/>
			<point x="494" y="650" type="line"/>
			<point x="366" y="650" type="line"/>
		</contour>
		<contour>
			<point x="164" y="0" type="line"/>
			<point x="494" y="0" type="line"/>
			<point x="494" y="120" type="line"/>
			<point x="164" y="120" type="line"/>
		</contour>
		<contour>
			<point x="60" y="530" type="line"/>
			<point x="380" y="530" type="line"/>
			<point x="380" y="650" type="line"/>
			<point x="60" y="650" type="line"/>
		</contour>
	</outline>
</glyph>
<glyph name="bracketleft" format="2">
	<advance width="460"/>
	<unicode hex="005B"/>
	<outline>
		<contour>
			<point x="100" y="634" type="line"/>
			<point x="360" y="634" type="line"/>
			<point x="360" y="749" type="line"/>
			<point x="100" y="749" type="line"/>
		</contour>
		<contour>
			<point x="100" y="-101" type="line"/>
			<point x="360" y="-101" type="line"/>
			<point x="360" y="14" type="line"/>
			<point x="100" y="14" type="line"/>
		</contour>
		<contour>
			<point x="100" y="0" type="line"/>
			<point x="220" y="0" type="line"/>
			<point x="220" y="649" type="line"/>
			<point x="100" y="649" type="line"/>
		</contour>
	</outline>
</glyph>
<glyph name="backslash" format="2">
	<advance width="500"/>
	<unicode hex="005C"/>
	<outline>
		<contour>
			<point x="410" y="0" type="line"/>
			<point x="210" y="649" type="line"/>
			<point x="90" y="649" type="line"/>
			<point x="290" y="0" type="line"/>
		</contour>
	</outline>
</glyph>
<glyph name="bracketright" format="2">
	<advance width="460"/>
	<unicode hex="005D"/>
	<outline>
		<contour>
			<point x="360" y="634" type="line"/>
			<point x="360" y="749" type="line"/>
			<point x="100" y="749" type="line"/>
			<point x="100" y="634" type="line"/>
		</contour>
		<contour>
			<point x="360" y="-101" type="line"/>
			<point x="360" y="14" type="line"/>
			<point x="100" y="14" type="line"/>
			<point x="100" y="-101" type="line"/>
		</contour>
		<contour>
			<point x="360" y="0" type="line"/>
			<point x="360" y="649" type="line"/>
			<point x="240" y="649" type="line"/>
			<point x="240" y="0" type="line"/>
		</contour>
	</outline>
</glyph>
<glyph name="asciicircum" format="2">
	<advance width="590"/>
	<unicode hex="005E"/>
	<outline>
		<contour>
			<point x="50" y="354" type="line"/>
			<point x="179" y="354" type="line"/>
			<point x="298" y="550" type="line"/>
			<point x="292" y="550" type="line"/>
			<point x="411" y="354" type="line"/>
			<point x="540" y="354" type="line"/>
			<point x="362" y="649" type="line"/>
			<point x="228" y="649" type="line"/>
		</contour>
	</outline>
</glyph>
<glyph name="underscore" format="2">
	<advance width="715"/>
	<unicode hex="005F"/>
	<outline>
		<contour>
			<point x="90" y="-80" type="line"/>
			<point x="625" y="-80" type="line"/>
			<point x="625" y="40" type="line"/>
			<point x="90" y="40" type="line"/>
		</contour>
	</outline>
</glyph>
<glyph name="b" format="2">
	<advance width="560"/>
	<unicode hex="0062"/>
	<outline>
		<contour>
			<point x="274" y="110" type="curve" smooth="yes"/>
			<point x="155" y="110" type="line"/>
			<point x="155" y="0" type="line"/>
			<point x="274" y="0" type="line" smooth="yes"/>
			<point x="402" y="0"/>
			<point x="500" y="93"/>
			<point x="500" y="260" type="curve"/>
			<point x="385" y="260" type="line"/>
			<point x="385" y="161"/>
			<point x="334" y="110"/>
		</contour>
		<contour>
			<point x="155" y="410" type="line"/>
			<point x="274" y="410" type="line" smooth="yes"/>
			<point x="335" y="410"/>
			<point x="385" y="355"/>
			<point x="385" y="260" type="curve"/>
			<point x="500" y="260" type="line"/>
			<point x="501" y="428"/>
			<point x="399" y="520"/>
			<point x="274" y="520" type="curve" smooth="yes"/>
			<point x="155" y="520" type="line"/>
		</contour>
		<contour>
			<point x="90" y="720" type="line"/>
			<point x="90" y="0" type="line"/>
			<point x="205" y="0" type="line"/>
			<point x="205" y="720" type="line"/>
		</contour>
	</outline>
</glyph>
<glyph name="c" format="2">
	<advance width="440"/>
	<unicode hex="0063"/>
	<anchor x="281" y="0" name="bottom"/>
	<anchor x="281" y="520" name="top"/>
	<outline>
		<contour>
			<point x="380" y="110" type="line"/>
			<point x="281" y="110" type="line" smooth="yes"/>
			<point x="221" y="110"/>
			<point x="170" y="161"/>
			<point x="170" y="260" type="curve"/>
			<point x="60" y="260" type="line"/>
			<point x="60" y="93"/>
			<point x="153" y="0"/>
			<point x="281" y="0" type="curve" smooth="yes"/>
			<point x="380" y="0" type="line"/>
		</contour>
		<contour>
			<point x="281" y="410" type="curve" smooth="yes"/>
			<point x="380" y="410" type="line"/>
			<point x="380" y="520" type="line"/>
			<point x="281" y="520" type="line" smooth="yes"/>
			<point x="156" y="520"/>
			<point x="59" y="428"/>
			<point x="60" y="260" type="curve"/>
			<point x="170" y="260" type="line"/>
			<point x="170" y="355"/>
			<point x="220" y="410"/>
		</contour>
	</outline>
</glyph>
<glyph name="d" format="2">
	<advance width="560"/>
	<unicode hex="0064"/>
	<outline>
		<contour>
			<point x="281" y="410" type="curve" smooth="yes"/>
			<point x="395" y="410" type="line"/>
			<point x="395" y="520" type="line"/>
			<point x="281" y="520" type="line" smooth="yes"/>
			<point x="153" y="520"/>
			<point x="60" y="427"/>
			<point x="60" y="260" type="curve"/>
			<point x="170" y="260" type="line"/>
			<point x="170" y="359"/>
			<point x="221" y="410"/>
		</contour>
		<contour>
			<point x="395" y="110" type="line"/>
			<point x="281" y="110" type="line" smooth="yes"/>
			<point x="220" y="110"/>
			<point x="170" y="165"/>
			<point x="170" y="260" type="curve"/>
			<point x="60" y="260" type="line"/>
			<point x="60" y="92"/>
			<point x="156" y="0"/>
			<point x="281" y="0" type="curve" smooth="yes"/>
			<point x="395" y="0" type="line"/>
		</contour>
		<contour>
			<point x="470" y="720" type="line"/>
			<point x="355" y="720" type="line"/>
			<point x="355" y="0" type="line"/>
			<point x="470" y="0" type="line"/>
		</contour>
	</outline>
</glyph>
<glyph name="e" format="2">
	<advance width="535"/>
	<unicode hex="0065"/>
	<anchor x="320" y="0" name="bottom"/>
	<anchor x="353" y="0" name="ogonek"/>
	<anchor x="320" y="520" name="top"/>
	<outline>
		<contour>
			<point x="60" y="260" type="curve"/>
			<point x="170" y="260" type="line"/>
			<point x="170" y="355"/>
			<point x="220" y="405"/>
			<point x="281" y="405" type="curve" smooth="yes"/>
			<point x="395" y="405" type="line"/>
			<point x="395" y="520" type="line"/>
			<point x="281" y="520" type="line" smooth="yes"/>
			<point x="156" y="520"/>
			<point x="59" y="428"/>
		</contour>
		<contour>
			<point x="281" y="0" type="curve" smooth="yes"/>
			<point x="396" y="0" type="line"/>
			<point x="396" y="115" type="line"/>
			<point x="281" y="115" type="line" smooth="yes"/>
			<point x="221" y="115"/>
			<point x="170" y="161"/>
			<point x="170" y="260" type="curve"/>
			<point x="60" y="260" type="line"/>
			<point x="60" y="93"/>
			<point x="153" y="0"/>
		</contour>
		<contour>
			<point x="245" y="210" type="line"/>
			<point x="381" y="210" type="line"/>
			<point x="381" y="310" type="line"/>
			<point x="245" y="310" type="line"/>
		</contour>
		<contour>
			<point x="350" y="210" type="line"/>
			<point x="455" y="210" type="line"/>
			<point x="455" y="520" type="line"/>
			<point x="350" y="520" type="line"/>
		</contour>
	</outline>
</glyph>
<glyph name="f" format="2">
	<advance width="380"/>
	<unicode hex="0066"/>
	<outline>
		<contour>
			<point x="320" y="600" type="line"/>
			<point x="320" y="710" type="line"/>
			<point x="90" y="710" type="line"/>
			<point x="90" y="600" type="line"/>
		</contour>
		<contour>
			<point x="320" y="410" type="line"/>
			<point x="320" y="520" type="line"/>
			<point x="90" y="520" type="line"/>
			<point x="90" y="410" type="line"/>
		</contour>
		<contour>
			<point x="90" y="0" type="line"/>
			<point x="205" y="0" type="line"/>
			<point x="205" y="710" type="line"/>
			<point x="90" y="710" type="line"/>
		</contour>
	</outline>
</glyph>
<glyph name="g" format="2">
	<advance width="610"/>
	<unicode hex="0067"/>
	<anchor x="280" y="-175" name="bottom"/>
	<anchor x="281" y="540" name="top"/>
	<outline>
		<contour>
			<point x="170" y="345" type="curve"/>
			<point x="60" y="345" type="line"/>
			<point x="60" y="247"/>
			<point x="137" y="150"/>
			<point x="281" y="150" type="curve" smooth="yes"/>
			<point x="425" y="150"/>
			<point x="502" y="247"/>
			<point x="502" y="345" type="curve"/>
			<point x="392" y="345" type="line"/>
			<point x="392" y="292"/>
			<point x="343" y="255"/>
			<point x="281" y="255" type="curve" smooth="yes"/>
			<point x="219" y="255"/>
			<point x="170" y="292"/>
		</contour>
		<contour>
			<point x="60" y="345" type="curve"/>
			<point x="170" y="345" type="line"/>
			<point x="170" y="398"/>
			<point x="219" y="435"/>
			<point x="281" y="435" type="curve" smooth="yes"/>
			<point x="343" y="435"/>
			<point x="392" y="398"/>
			<point x="392" y="345" type="curve"/>
			<point x="502" y="345" type="line"/>
			<point x="503" y="442"/>
			<point x="425" y="540"/>
			<point x="281" y="540" type="curve" smooth="yes"/>
			<point x="137" y="540"/>
			<point x="60" y="443"/>
		</contour>
		<contour>
			<point x="432" y="620" type="line"/>
			<point x="432" y="420" type="line"/>
			<point x="532" y="420" type="line"/>
			<point x="532" y="620" type="line"/>
		</contour>
		<contour>
			<point x="140" y="0" type="line"/>
			<point x="250" y="0" type="line"/>
			<point x="250" y="200" type="line"/>
			<point x="140" y="200" type="line"/>
		</contour>
		<contour>
			<point x="72" y="100" type="line"/>
			<point x="72" y="0" type="line"/>
			<point x="505" y="0" type="line"/>
			<point x="505" y="100" type="line"/>
		</contour>
		<contour>
			<point x="440" y="100" type="line"/>
			<point x="440" y="22" type="line" smooth="yes"/>
			<point x="440" y="-31"/>
			<point x="410" y="-75"/>
			<point x="328" y="-75" type="curve"/>
			<point x="172" y="-75" type="line"/>
			<point x="172" y="-175" type="line"/>
			<point x="328" y="-175" type="line"/>
			<point x="469" y="-177"/>
			<point x="540" y="-90"/>
			<point x="540" y="22" type="curve" smooth="yes"/>
			<point x="540" y="100" type="line"/>
		</contour>
	</outline>
</glyph>
<glyph name="h" format="2">
	<advance width="540"/>
	<unicode hex="0068"/>
	<outline>
		<contour>
			<point x="179" y="410" type="line"/>
			<point x="289" y="410" type="line" smooth="yes"/>
			<point x="320" y="410"/>
			<point x="345" y="384"/>
			<point x="345" y="351" type="curve" smooth="yes"/>
			<point x="345" y="0" type="line"/>
			<point x="460" y="0" type="line"/>
			<point x="460" y="351" type="line" smooth="yes"/>
			<point x="460" y="446"/>
			<point x="385" y="520"/>
			<point x="289" y="520" type="curve" smooth="yes"/>
			<point x="179" y="520" type="line"/>
		</contour>
		<contour>
			<point x="90" y="0" type="line"/>
			<point x="205" y="0" type="line"/>
			<point x="205" y="710" type="line"/>
			<point x="90" y="710" type="line"/>
		</contour>
	</outline>
</glyph>
<glyph name="k" format="2">
	<advance width="565"/>
	<unicode hex="006B"/>
	<anchor x="283" y="0" name="bottom"/>
	<anchor x="283" y="710" name="top"/>
	<outline>
		<contour>
			<point x="327" y="200" type="line"/>
			<point x="327" y="310" type="line"/>
			<point x="90" y="310" type="line"/>
			<point x="90" y="200" type="line"/>
		</contour>
		<contour>
			<point x="354" y="520" type="line"/>
			<point x="223" y="247" type="line"/>
			<point x="339" y="247" type="line"/>
			<point x="470" y="520" type="line"/>
		</contour>
		<contour>
			<point x="389" y="0" type="line"/>
			<point x="505" y="0" type="line"/>
			<point x="343" y="338" type="line"/>
			<point x="261" y="267" type="line"/>
		</contour>
		<contour>
			<point x="90" y="0" type="line"/>
			<point x="205" y="0" type="line"/>
			<point x="205" y="710" type="line"/>
			<point x="90" y="710" type="line"/>
		</contour>
	</outline>
</glyph>
<glyph name="l" format="2">
	<advance width="390"/>
	<unicode hex="006C"/>
	<anchor x="205" y="0" name="bottom"/>
	<anchor x="150" y="400" name="center"/>
	<anchor x="150" y="710" name="top"/>
	<anchor x="366" y="710" name="topright"/>
	<outline>
		<contour>
			<point x="320" y="0" type="line"/>
			<point x="320" y="110" type="line"/>
			<point x="90" y="110" type="line"/>
			<point x="90" y="0" type="line"/>
		</contour>
		<contour>
			<point x="90" y="0" type="line"/>
			<point x="205" y="0" type="line"/>
			<point x="205" y="710" type="line"/>
			<point x="90" y="710" type="line"/>
		</contour>
	</outline>
</glyph>
<glyph name="m" format="2">
	<advance width="765"/>
	<unicode hex="006D"/>
	<outline>
		<contour>
			<point x="169" y="410" type="line"/>
			<point x="514" y="410" type="line" smooth="yes"/>
			<point x="545" y="410"/>
			<point x="570" y="384"/>
			<point x="570" y="351" type="curve" smooth="yes"/>
			<point x="570" y="0" type="line"/>
			<point x="685" y="0" type="line"/>
			<point x="685" y="351" type="line" smooth="yes"/>
			<point x="685" y="446"/>
			<point x="610" y="520"/>
			<point x="514" y="520" type="curve" smooth="yes"/>
			<point x="169" y="520" type="line"/>
		</contour>
		<contour>
			<point x="325" y="0" type="line"/>
			<point x="440" y="0" type="line"/>
			<point x="440" y="520" type="line"/>
			<point x="325" y="520" type="line"/>
		</contour>
		<contour>
			<point x="80" y="0" type="line"/>
			<point x="195" y="0" type="line"/>
			<point x="195" y="520" type="line"/>
			<point x="80" y="520" type="line"/>
		</contour>
	</outline>
</glyph>
<glyph name="n" format="2">
	<advance width="540"/>
	<unicode hex="006E"/>
	<anchor x="270" y="0" name="bottom"/>
	<anchor x="260" y="520" name="top"/>
	<outline>
		<contour>
			<point x="179" y="410" type="line"/>
			<point x="289" y="410" type="line" smooth="yes"/>
			<point x="320" y="410"/>
			<point x="345" y="384"/>
			<point x="345" y="351" type="curve" smooth="yes"/>
			<point x="345" y="0" type="line"/>
			<point x="460" y="0" type="line"/>
			<point x="460" y="351" type="line" smooth="yes"/>
			<point x="460" y="446"/>
			<point x="385" y="520"/>
			<point x="289" y="520" type="curve" smooth="yes"/>
			<point x="179" y="520" type="line"/>
		</contour>
		<contour>
			<point x="80" y="0" type="line"/>
			<point x="195" y="0" type="line"/>
			<point x="195" y="520" type="line"/>
			<point x="80" y="520" type="line"/>
		</contour>
	</outline>
</glyph>
<glyph name="p" format="2">
	<advance width="560"/>
	<unicode hex="0070"/>
	<outline>
		<contour>
			<point x="279" y="110" type="curve" smooth="yes"/>
			<point x="165" y="110" type="line"/>
			<point x="165" y="0" type="line"/>
			<point x="279" y="0" type="line" smooth="yes"/>
			<point x="407" y="0"/>
			<point x="500" y="93"/>
			<point x="500" y="260" type="curve"/>
			<point x="390" y="260" type="line"/>
			<point x="390" y="161"/>
			<point x="339" y="110"/>
		</contour>
		<contour>
			<point x="165" y="410" type="line"/>
			<point x="279" y="410" type="line" smooth="yes"/>
			<point x="340" y="410"/>
			<point x="390" y="355"/>
			<point x="390" y="260" type="curve"/>
			<point x="500" y="260" type="line"/>
			<point x="500" y="428"/>
			<point x="404" y="520"/>
			<point x="279" y="520" type="curve" smooth="yes"/>
			<point x="165" y="520" type="line"/>
		</contour>
		<contour>
			<point x="90" y="-200" type="line"/>
			<point x="205" y="-200" type="line"/>
			<point x="205" y="520" type="line"/>
			<point x="90" y="520" type="line"/>
		</contour>
	</outline>
</glyph>
<glyph name="q" format="2">
	<advance width="570"/>
	<unicode hex="0071"/>
	<outline>
		<contour>
			<point x="296" y="410" type="curve" smooth="yes"/>
			<point x="415" y="410" type="line"/>
			<point x="415" y="520" type="line"/>
			<point x="296" y="520" type="line" smooth="yes"/>
			<point x="168" y="520"/>
			<point x="70" y="427"/>
			<point x="70" y="260" type="curve"/>
			<point x="185" y="260" type="line"/>
			<point x="185" y="359"/>
			<point x="236" y="410"/>
		</contour>
		<contour>
			<point x="415" y="110" type="line"/>
			<point x="296" y="110" type="line" smooth="yes"/>
			<point x="235" y="110"/>
			<point x="185" y="165"/>
			<point x="185" y="260" type="curve"/>
			<point x="70" y="260" type="line"/>
			<point x="69" y="92"/>
			<point x="171" y="0"/>
			<point x="296" y="0" type="curve" smooth="yes"/>
			<point x="415" y="0" type="line"/>
		</contour>
		<contour>
			<point x="480" y="-200" type="line"/>
			<point x="480" y="520" type="line"/>
			<point x="365" y="520" type="line"/>
			<point x="365" y="-200" type="line"/>
		</contour>
	</outline>
</glyph>
<glyph name="r" format="2">
	<advance width="380"/>
	<unicode hex="0072"/>
	<anchor x="145" y="0" name="bottom"/>
	<anchor x="193" y="520" name="top"/>
	<outline>
		<contour>
			<point x="320" y="410" type="line"/>
			<point x="320" y="520" type="line"/>
			<point x="90" y="520" type="line"/>
			<point x="90" y="410" type="line"/>
		</contour>
		<contour>
			<point x="90" y="0" type="line"/>
			<point x="205" y="0" type="line"/>
			<point x="205" y="520" type="line"/>
			<point x="90" y="520" type="line"/>
		</contour>
	</outline>
</glyph>
<glyph name="s" format="2">
	<advance width="525"/>
	<unicode hex="0073"/>
	<guideline x="259" y="335" angle="0"/>
	<guideline x="259" y="357" angle="90"/>
	<anchor x="259" y="0" name="bottom"/>
	<anchor x="259" y="520" name="top"/>
	<outline>
		<contour>
			<point x="170" y="350" type="curve"/>
			<point x="60" y="350" type="line"/>
			<point x="60" y="243"/>
			<point x="144" y="180"/>
			<point x="228" y="180" type="curve" smooth="yes"/>
			<point x="265" y="180" type="line"/>
			<point x="265" y="285" type="line"/>
			<point x="238" y="285" type="line" smooth="yes"/>
			<point x="205" y="285"/>
			<point x="170" y="305"/>
		</contour>
		<contour>
			<point x="60" y="350" type="curve"/>
			<point x="170" y="350" type="line"/>
			<point x="170" y="395"/>
			<point x="205" y="415"/>
			<point x="238" y="415" type="curve" smooth="yes"/>
			<point x="390" y="415" type="line"/>
			<point x="390" y="520" type="line"/>
			<point x="228" y="520" type="line" smooth="yes"/>
			<point x="144" y="520"/>
			<point x="60" y="457"/>
		</contour>
		<contour>
			<point x="355" y="170" type="curve"/>
			<point x="465" y="170" type="line"/>
			<point x="465" y="277"/>
			<point x="381" y="340"/>
			<point x="297" y="340" type="curve" smooth="yes"/>
			<point x="260" y="340" type="line"/>
			<point x="260" y="235" type="line"/>
			<point x="287" y="235" type="line" smooth="yes"/>
			<point x="320" y="235"/>
			<point x="355" y="215"/>
		</contour>
		<contour>
			<point x="465" y="170" type="curve"/>
			<point x="355" y="170" type="line"/>
			<point x="355" y="125"/>
			<point x="320" y="105"/>
			<point x="287" y="105" type="curve" smooth="yes"/>
			<point x="85" y="105" type="line"/>
			<point x="85" y="0" type="line"/>
			<point x="297" y="0" type="line" smooth="yes"/>
			<point x="381" y="0"/>
			<point x="465" y="63"/>
		</contour>
	</outline>
</glyph>
<glyph name="t" format="2">
	<advance width="490"/>
	<unicode hex="0074"/>
	<anchor x="310" y="0" name="bottom"/>
	<anchor x="195" y="260" name="center"/>
	<anchor x="195" y="649" name="top"/>
	<anchor x="470" y="520" name="topright"/>
	<outline>
		<contour>
			<point x="70" y="520" type="line"/>
			<point x="70" y="410" type="line"/>
			<point x="410" y="410" type="line"/>
			<point x="410" y="520" type="line"/>
		</contour>
		<contour>
			<point x="410" y="110" type="line"/>
			<point x="310" y="110" type="line" smooth="yes"/>
			<point x="280" y="110"/>
			<point x="255" y="136"/>
			<point x="255" y="169" type="curve" smooth="yes"/>
			<point x="255" y="649" type="line"/>
			<point x="140" y="649" type="line"/>
			<point x="140" y="169" type="line" smooth="yes"/>
			<point x="140" y="74"/>
			<point x="204" y="0"/>
			<point x="310" y="0" type="curve" smooth="yes"/>
			<point x="410" y="0" type="line"/>
		</contour>
	</outline>
</glyph>
<glyph name="u" format="2">
	<advance width="540"/>
	<unicode hex="0075"/>
	<anchor x="265" y="0" name="bottom"/>
	<anchor x="418" y="0" name="ogonek"/>
	<anchor x="265" y="510" name="top"/>
	<anchor x="510" y="510" name="topright"/>
	<outline>
		<contour>
			<point x="361" y="110" type="line"/>
			<point x="251" y="110" type="line" smooth="yes"/>
			<point x="220" y="110"/>
			<point x="195" y="136"/>
			<point x="195" y="169" type="curve" smooth="yes"/>
			<point x="195" y="520" type="line"/>
			<point x="80" y="520" type="line"/>
			<point x="80" y="169" type="line" smooth="yes"/>
			<point x="80" y="74"/>
			<point x="155" y="0"/>
			<point x="251" y="0" type="curve" smooth="yes"/>
			<point x="361" y="0" type="line"/>
		</contour>
		<contour>
			<point x="460" y="520" type="line"/>
			<point x="345" y="520" type="line"/>
			<point x="345" y="0" type="line"/>
			<point x="460" y="0" type="line"/>
		</contour>
	</outline>
</glyph>
<glyph name="v" format="2">
	<advance width="558"/>
	<unicode hex="0076"/>
	<outline>
		<contour>
			<point x="387" y="520" type="line"/>
			<point x="251" y="113" type="line"/>
			<point x="294" y="113" type="line"/>
			<point x="165" y="520" type="line"/>
			<point x="50" y="520" type="line"/>
			<point x="214" y="0" type="line"/>
			<point x="335" y="0" type="line"/>
			<point x="508" y="520" type="line"/>
		</contour>
	</outline>
</glyph>
<glyph name="w" format="2">
	<advance width="820"/>
	<unicode hex="0077"/>
	<guideline x="522" y="404" angle="0"/>
	<guideline x="409" y="68" angle="0"/>
	<anchor x="410" y="0" name="bottom"/>
	<anchor x="410" y="520" name="top"/>
	<outline>
		<contour>
			<point x="60" y="520" type="line"/>
			<point x="204" y="0" type="line"/>
			<point x="311" y="0" type="line"/>
			<point x="433" y="404" type="line"/>
			<point x="384" y="404" type="line"/>
			<point x="501" y="0" type="line"/>
			<point x="609" y="0" type="line"/>
			<point x="760" y="520" type="line"/>
			<point x="640" y="520" type="line"/>
			<point x="515" y="68" type="line"/>
			<point x="581" y="68" type="line"/>
			<point x="449" y="520" type="line"/>
			<point x="365" y="520" type="line"/>
			<point x="228" y="68" type="line"/>
			<point x="296" y="68" type="line"/>
			<point x="175" y="520" type="line"/>
		</contour>
	</outline>
</glyph>
<glyph name="x" format="2">
	<advance width="514"/>
	<unicode hex="0078"/>
	<outline>
		<contour>
			<point x="338" y="520" type="line"/>
			<point x="212" y="257" type="line"/>
			<point x="328" y="257" type="line"/>
			<point x="454" y="520" type="line"/>
		</contour>
		<contour>
			<point x="176" y="520" type="line"/>
			<point x="60" y="520" type="line"/>
			<point x="186" y="257" type="line"/>
			<point x="302" y="257" type="line"/>
		</contour>
		<contour>
			<point x="338" y="0" type="line"/>
			<point x="454" y="0" type="line"/>
			<point x="328" y="263" type="line"/>
			<point x="212" y="263" type="line"/>
		</contour>
		<contour>
			<point x="176" y="0" type="line"/>
			<point x="302" y="263" type="line"/>
			<point x="186" y="263" type="line"/>
			<point x="60" y="0" type="line"/>
		</contour>
	</outline>
</glyph>
<glyph name="y" format="2">
	<advance width="558"/>
	<unicode hex="0079"/>
	<anchor x="279" y="-200" name="bottom"/>
	<anchor x="279" y="520" name="top"/>
	<outline>
		<contour>
			<point x="387" y="520" type="line"/>
			<point x="262" y="141" type="line"/>
			<point x="285" y="141" type="line"/>
			<point x="167" y="520" type="line"/>
			<point x="50" y="520" type="line"/>
			<point x="227" y="-10" type="line"/>
			<point x="324" y="-10" type="line"/>
			<point x="508" y="520" type="line"/>
		</contour>
		<contour>
			<point x="330" y="78" type="line"/>
			<point x="220" y="78" type="line"/>
			<point x="220" y="-200" type="line"/>
			<point x="330" y="-200" type="line"/>
		</contour>
		<contour>
			<point x="114" y="-90" type="line"/>
			<point x="114" y="-200" type="line"/>
			<point x="330" y="-200" type="line"/>
			<point x="330" y="-90" type="line"/>
		</contour>
	</outline>
</glyph>
<glyph name="z" format="2">
	<advance width="495"/>
	<unicode hex="007A"/>
	<anchor x="248" y="0" name="bottom"/>
	<anchor x="248" y="260" name="center"/>
	<anchor x="248" y="520" name="top"/>
	<outline>
		<contour>
			<point x="313" y="520" type="line"/>
			<point x="60" y="0" type="line"/>
			<point x="182" y="0" type="line"/>
			<point x="435" y="520" type="line"/>
		</contour>
		<contour>
			<point x="174" y="0" type="line"/>
			<point x="425" y="0" type="line"/>
			<point x="425" y="110" type="line"/>
			<point x="174" y="110" type="line"/>
		</contour>
		<contour>
			<point x="70" y="410" type="line"/>
			<point x="320" y="410" type="line"/>
			<point x="320" y="520" type="line"/>
			<point x="70" y="520" type="line"/>
		</contour>
	</outline>
</glyph>
<glyph name="braceleft" format="2">
	<advance width="514"/>
	<unicode hex="007B"/>
	<outline>
		<contour>
			<point x="384" y="534" type="line"/>
			<point x="424" y="534" type="line"/>
			<point x="424" y="649" type="line"/>
			<point x="384" y="649" type="line"/>
		</contour>
		<contour>
			<point x="384" y="534" type="curve"/>
			<point x="384" y="649" type="line"/>
			<point x="280" y="649"/>
			<point x="210" y="579"/>
			<point x="210" y="474" type="curve"/>
			<point x="330" y="474" type="line"/>
			<point x="330" y="508"/>
			<point x="352" y="534"/>
		</contour>
		<contour>
			<point x="210" y="474" type="line"/>
			<point x="210" y="384" type="line"/>
			<point x="330" y="384" type="line"/>
			<point x="330" y="474" type="line"/>
		</contour>
		<contour>
			<point x="384" y="115" type="line"/>
			<point x="384" y="0" type="line"/>
			<point x="424" y="0" type="line"/>
			<point x="424" y="115" type="line"/>
		</contour>
		<contour>
			<point x="384" y="0" type="curve"/>
			<point x="384" y="115" type="line"/>
			<point x="352" y="114"/>
			<point x="330" y="141"/>
			<point x="330" y="175" type="curve"/>
			<point x="210" y="175" type="line"/>
			<point x="210" y="70"/>
			<point x="280" y="0"/>
		</contour>
		<contour>
			<point x="210" y="175" type="line"/>
			<point x="330" y="175" type="line"/>
			<point x="330" y="264" type="line"/>
			<point x="210" y="264" type="line"/>
		</contour>
		<contour>
			<point x="90" y="384" type="line"/>
			<point x="90" y="264" type="line"/>
			<point x="210" y="264" type="line"/>
			<point x="210" y="384" type="line"/>
		</contour>
	</outline>
</glyph>
<glyph name="braceright" format="2">
	<advance width="562"/>
	<unicode hex="007D"/>
	<outline>
		<contour>
			<point x="178" y="534" type="line"/>
			<point x="178" y="649" type="line"/>
			<point x="138" y="649" type="line"/>
			<point x="138" y="534" type="line"/>
		</contour>
		<contour>
			<point x="178" y="649" type="curve"/>
			<point x="178" y="534" type="line"/>
			<point x="210" y="534"/>
			<point x="232" y="508"/>
			<point x="232" y="474" type="curve"/>
			<point x="352" y="474" type="line"/>
			<point x="352" y="579"/>
			<point x="282" y="649"/>
		</contour>
		<contour>
			<point x="352" y="474" type="line"/>
			<point x="232" y="474" type="line"/>
			<point x="232" y="384" type="line"/>
			<point x="352" y="384" type="line"/>
		</contour>
		<contour>
			<point x="178" y="115" type="line"/>
			<point x="138" y="115" type="line"/>
			<point x="138" y="0" type="line"/>
			<point x="178" y="0" type="line"/>
		</contour>
		<contour>
			<point x="178" y="115" type="curve"/>
			<point x="178" y="0" type="line"/>
			<point x="282" y="0"/>
			<point x="352" y="70"/>
			<point x="352" y="175" type="curve"/>
			<point x="232" y="175" type="line"/>
			<point x="232" y="141"/>
			<point x="210" y="114"/>
		</contour>
		<contour>
			<point x="352" y="175" type="line"/>
			<point x="352" y="264" type="line"/>
			<point x="232" y="264" type="line"/>
			<point x="232" y="175" type="line"/>
		</contour>
		<contour>
			<point x="472" y="384" type="line"/>
			<point x="352" y="384" type="line"/>
			<point x="352" y="264" type="line"/>
			<point x="472" y="264" type="line"/>
		</contour>
	</outline>
</glyph>
<glyph name="exclamdown" format="2">
	<advance width="370"/>
	<unicode hex="00A1"/>
	<outline>
		<contour>
			<point x="245" y="437" type="line"/>
			<point x="125" y="437" type="line"/>
			<point x="125" y="-51" type="line"/>
			<point x="245" y="-51" type="line"/>
		</contour>
		<contour>
			<point x="185" y="655" type="curve" smooth="yes"/>
			<point x="138" y="655"/>
			<point x="100" y="617"/>
			<point x="100" y="570" type="curve" smooth="yes"/>
			<point x="100" y="523"/>
			<point x="138" y="485"/>
			<point x="185" y="485" type="curve" smooth="yes"/>
			<point x="232" y="485"/>
			<point x="270" y="523"/>
			<point x="270" y="570" type="curve" smooth="yes"/>
			<point x="270" y="617"/>
			<point x="232" y="655"/>
		</contour>
	</outline>
</glyph>
<glyph name="cent" format="2">
	<advance width="550"/>
	<unicode hex="00A2"/>
	<outline>
		<contour>
			<point x="470" y="175" type="line"/>
			<point x="301" y="175" type="line" smooth="yes"/>
			<point x="241" y="175"/>
			<point x="190" y="226"/>
			<point x="190" y="325" type="curve"/>
			<point x="80" y="325" type="line"/>
			<point x="80" y="158"/>
			<point x="173" y="65"/>
			<point x="301" y="65" type="curve" smooth="yes"/>
			<point x="470" y="65" type="line"/>
		</contour>
		<contour>
			<point x="301" y="475" type="curve" smooth="yes"/>
			<point x="470" y="475" type="line"/>
			<point x="470" y="585" type="line"/>
			<point x="301" y="585" type="line" smooth="yes"/>
			<point x="176" y="585"/>
			<point x="79" y="493"/>
			<point x="80" y="325" type="curve"/>
			<point x="190" y="325" type="line"/>
			<point x="190" y="420"/>
			<point x="240" y="475"/>
		</contour>
		<contour>
			<point x="306" y="0" type="line"/>
			<point x="376" y="0" type="line"/>
			<point x="376" y="650" type="line"/>
			<point x="306" y="650" type="line"/>
		</contour>
	</outline>
</glyph>
<glyph name="sterling" format="2">
	<advance width="685"/>
	<unicode hex="00A3"/>
	<outline>
		<contour>
			<point x="80" y="0" type="line"/>
			<point x="515" y="0" type="line"/>
			<point x="515" y="120" type="line"/>
			<point x="80" y="120" type="line"/>
		</contour>
		<contour>
			<point x="130" y="0" type="line"/>
			<point x="250" y="0" type="line"/>
			<point x="250" y="349" type="line"/>
			<point x="130" y="349" type="line"/>
		</contour>
		<contour>
			<point x="560" y="395" type="line"/>
			<point x="560" y="445" type="line" smooth="yes"/>
			<point x="560" y="574"/>
			<point x="474" y="660"/>
			<point x="345" y="660" type="curve" smooth="yes"/>
			<point x="216" y="660"/>
			<point x="130" y="574"/>
			<point x="130" y="445" type="curve" smooth="yes"/>
			<point x="130" y="325" type="line"/>
			<point x="250" y="325" type="line"/>
			<point x="250" y="445" type="line" smooth="yes"/>
			<point x="250" y="502"/>
			<point x="288" y="545"/>
			<point x="345" y="545" type="curve" smooth="yes"/>
			<point x="402" y="545"/>
			<point x="440" y="502"/>
			<point x="440" y="445" type="curve" smooth="yes"/>
			<point x="440" y="395" type="line"/>
		</contour>
		<contour>
			<point x="475" y="215" type="line"/>
			<point x="475" y="0" type="line"/>
			<point x="595" y="0" type="line"/>
			<point x="595" y="215" type="line"/>
		</contour>
		<contour>
			<point x="390" y="324" type="line"/>
			<point x="50" y="324" type="line"/>
			<point x="50" y="254" type="line"/>
			<point x="390" y="254" type="line"/>
		</contour>
	</outline>
</glyph>
<glyph name="yen" format="2">
	<advance width="600"/>
	<unicode hex="00A5"/>
	<outline>
		<contour>
			<point x="240" y="0" type="line"/>
			<point x="360" y="0" type="line"/>
			<point x="360" y="339" type="line"/>
			<point x="240" y="339" type="line"/>
		</contour>
		<contour>
			<point x="81" y="649" type="line"/>
			<point x="241" y="322" type="line"/>
			<point x="359" y="322" type="line"/>
			<point x="519" y="649" type="line"/>
			<point x="397" y="649" type="line"/>
			<point x="298" y="447" type="line"/>
			<point x="302" y="447" type="line"/>
			<point x="203" y="649" type="line"/>
		</contour>
		<contour>
			<point x="510" y="173" type="line"/>
			<point x="89" y="173" type="line"/>
			<point x="89" y="103" type="line"/>
			<point x="510" y="103" type="line"/>
		</contour>
		<contour>
			<point x="510" y="302" type="line"/>
			<point x="89" y="302" type="line"/>
			<point x="89" y="232" type="line"/>
			<point x="510" y="232" type="line"/>
		</contour>
	</outline>
</glyph>
<glyph name="dieresis" format="2">
	<advance width="460"/>
	<unicode hex="00A8"/>
	<anchor x="230" y="650" name="_top"/>
	<anchor x="230" y="831" name="top"/>
	<outline>
		<contour>
			<point x="310" y="711" type="curve" smooth="yes"/>
			<point x="344" y="711"/>
			<point x="370" y="737"/>
			<point x="370" y="771" type="curve" smooth="yes"/>
			<point x="370" y="805"/>
			<point x="344" y="831"/>
			<point x="310" y="831" type="curve" smooth="yes"/>
			<point x="276" y="831"/>
			<point x="250" y="805"/>
			<point x="250" y="771" type="curve" smooth="yes"/>
			<point x="250" y="737"/>
			<point x="276" y="711"/>
		</contour>
		<contour>
			<point x="150" y="711" type="curve" smooth="yes"/>
			<point x="184" y="711"/>
			<point x="210" y="737"/>
			<point x="210" y="771" type="curve" smooth="yes"/>
			<point x="210" y="805"/>
			<point x="184" y="831"/>
			<point x="150" y="831" type="curve" smooth="yes"/>
			<point x="116" y="831"/>
			<point x="90" y="805"/>
			<point x="90" y="771" type="curve" smooth="yes"/>
			<point x="90" y="737"/>
			<point x="116" y="711"/>
		</contour>
	</outline>
</glyph>
<glyph name="guillemotleft" format="2">
	<advance width="617"/>
	<unicode hex="00AB"/>
	<note>
		guillemotleft
	</note>
	<outline>
		<contour>
			<point x="527" y="130" type="line"/>
			<point x="424" y="325" type="line"/>
			<point x="527" y="520" type="line"/>
			<point x="403" y="520" type="line"/>
			<point x="300" y="325" type="line"/>
			<point x="403" y="130" type="line"/>
		</contour>
		<contour>
			<point x="317" y="130" type="line"/>
			<point x="214" y="325" type="line"/>
			<point x="317" y="520" type="line"/>
			<point x="193" y="520" type="line"/>
			<point x="90" y="325" type="line"/>
			<point x="193" y="130" type="line"/>
		</contour>
	</outline>
</glyph>
<glyph name="uni00AD" format="2">
	<advance width="530"/>
	<unicode hex="00AD"/>
	<outline>
		<contour>
			<point x="100" y="220" type="line"/>
			<point x="430" y="220" type="line"/>
			<point x="430" y="340" type="line"/>
			<point x="100" y="340" type="line"/>
		</contour>
	</outline>
</glyph>
<glyph name="macron" format="2">
	<advance width="510"/>
	<unicode hex="00AF"/>
	<anchor x="255" y="650" name="_top"/>
	<anchor x="255" y="810" name="top"/>
	<outline>
		<contour>
			<point x="90" y="730" type="line"/>
			<point x="420" y="730" type="line"/>
			<point x="420" y="810" type="line"/>
			<point x="90" y="810" type="line"/>
		</contour>
	</outline>
</glyph>
<glyph name="degree" format="2">
	<advance width="378"/>
	<unicode hex="00B0"/>
	<outline>
		<contour>
			<point x="189" y="401" type="curve" smooth="yes"/>
			<point x="261" y="401"/>
			<point x="318" y="458"/>
			<point x="318" y="530" type="curve" smooth="yes"/>
			<point x="318" y="602"/>
			<point x="261" y="659"/>
			<point x="189" y="659" type="curve" smooth="yes"/>
			<point x="117" y="659"/>
			<point x="60" y="602"/>
			<point x="60" y="530" type="curve" smooth="yes"/>
			<point x="60" y="458"/>
			<point x="117" y="401"/>
		</contour>
		<contour>
			<point x="189" y="486" type="curve" smooth="yes"/>
			<point x="165" y="486"/>
			<point x="145" y="506"/>
			<point x="145" y="530" type="curve" smooth="yes"/>
			<point x="145" y="555"/>
			<point x="165" y="576"/>
			<point x="189" y="576" type="curve" smooth="yes"/>
			<point x="214" y="576"/>
			<point x="235" y="555"/>
			<point x="235" y="530" type="curve" smooth="yes"/>
			<point x="235" y="506"/>
			<point x="214" y="486"/>
		</contour>
	</outline>
</glyph>
<glyph name="periodcentered" format="2">
	<advance width="270"/>
	<unicode hex="00B7"/>
	<outline>
		<contour>
			<point x="135" y="245" type="curve" smooth="yes"/>
			<point x="182" y="245"/>
			<point x="220" y="283"/>
			<point x="220" y="330" type="curve" smooth="yes"/>
			<point x="220" y="377"/>
			<point x="182" y="415"/>
			<point x="135" y="415" type="curve" smooth="yes"/>
			<point x="88" y="415"/>
			<point x="50" y="377"/>
			<point x="50" y="330" type="curve" smooth="yes"/>
			<point x="50" y="283"/>
			<point x="88" y="245"/>
		</contour>
	</outline>
</glyph>
<glyph name="cedilla" format="2">
	<advance width="281"/>
	<unicode hex="00B8"/>
	<anchor x="111" y="0" name="_bottom"/>
	<anchor x="90" y="-244" name="bottom"/>
	<outline>
		<contour>
			<point x="90" y="-165" type="curve"/>
			<point x="90" y="-244" type="line"/>
			<point x="151" y="-244"/>
			<point x="191" y="-204"/>
			<point x="191" y="-145" type="curve" smooth="yes"/>
			<point x="191" y="-86"/>
			<point x="151" y="-46"/>
			<point x="90" y="-46" type="curve"/>
			<point x="90" y="-125" type="line"/>
			<point x="101" y="-125"/>
			<point x="110" y="-134"/>
			<point x="110" y="-145" type="curve" smooth="yes"/>
			<point x="110" y="-156"/>
			<point x="101" y="-165"/>
		</contour>
	</outline>
</glyph>
<glyph name="guillemotright" format="2">
	<advance width="617"/>
	<unicode hex="00BB"/>
	<note>
		guillemotright
	</note>
	<outline>
		<contour>
			<point x="90" y="130" type="line"/>
			<point x="214" y="130" type="line"/>
			<point x="317" y="325" type="line"/>
			<point x="214" y="520" type="line"/>
			<point x="90" y="520" type="line"/>
			<point x="193" y="325" type="line"/>
		</contour>
		<contour>
			<point x="300" y="130" type="line"/>
			<point x="424" y="130" type="line"/>
			<point x="527" y="325" type="line"/>
			<point x="424" y="520" type="line"/>
			<point x="300" y="520" type="line"/>
			<point x="403" y="325" type="line"/>
		</contour>
	</outline>
</glyph>
<glyph name="questiondown" format="2">
	<advance width="535"/>
	<unicode hex="00BF"/>
	<outline>
		<contour>
			<point x="170" y="163" type="curve"/>
			<point x="50" y="163" type="line"/>
			<point x="50" y="34"/>
			<point x="136" y="-52"/>
			<point x="265" y="-52" type="curve" smooth="yes"/>
			<point x="435" y="-52" type="line"/>
			<point x="435" y="63" type="line"/>
			<point x="265" y="63" type="line" smooth="yes"/>
			<point x="208" y="63"/>
			<point x="170" y="106"/>
		</contour>
		<contour>
			<point x="385" y="436" type="line"/>
			<point x="267" y="436" type="line"/>
			<point x="267" y="325" type="line"/>
			<point x="385" y="325" type="line"/>
		</contour>
		<contour>
			<point x="385" y="378" type="line"/>
			<point x="265" y="378" type="line" smooth="yes"/>
			<point x="136" y="378"/>
			<point x="50" y="292"/>
			<point x="50" y="163" type="curve"/>
			<point x="170" y="163" type="line"/>
			<point x="170" y="220"/>
			<point x="208" y="263"/>
			<point x="265" y="263" type="curve" smooth="yes"/>
			<point x="385" y="263" type="line"/>
		</contour>
		<contour>
			<point x="326" y="654" type="curve" smooth="yes"/>
			<point x="279" y="654"/>
			<point x="241" y="616"/>
			<point x="241" y="569" type="curve" smooth="yes"/>
			<point x="241" y="522"/>
			<point x="279" y="484"/>
			<point x="326" y="484" type="curve" smooth="yes"/>
			<point x="373" y="484"/>
			<point x="411" y="522"/>
			<point x="411" y="569" type="curve" smooth="yes"/>
			<point x="411" y="616"/>
			<point x="373" y="654"/>
		</contour>
	</outline>
</glyph>
<glyph name="AE" format="2">
	<advance width="795"/>
	<unicode hex="00C6"/>
	<outline>
		<contour>
			<point x="50" y="0" type="line"/>
			<point x="171" y="0" type="line"/>
			<point x="350" y="541" type="line"/>
			<point x="302" y="529" type="line"/>
			<point x="452" y="529" type="line"/>
			<point x="452" y="649" type="line"/>
			<point x="264" y="649" type="line"/>
		</contour>
		<contour>
			<point x="185" y="158" type="line"/>
			<point x="455" y="158" type="line"/>
			<point x="455" y="273" type="line"/>
			<point x="185" y="273" type="line"/>
		</contour>
		<contour>
			<point x="385" y="0" type="line"/>
			<point x="705" y="0" type="line"/>
			<point x="705" y="120" type="line"/>
			<point x="385" y="120" type="line"/>
		</contour>
		<contour>
			<point x="385" y="264" type="line"/>
			<point x="655" y="264" type="line"/>
			<point x="655" y="384" type="line"/>
			<point x="385" y="384" type="line"/>
		</contour>
		<contour>
			<point x="385" y="529" type="line"/>
			<point x="705" y="529" type="line"/>
			<point x="705" y="649" type="line"/>
			<point x="385" y="649" type="line"/>
		</contour>
		<contour>
			<point x="385" y="0" type="line"/>
			<point x="505" y="0" type="line"/>
			<point x="505" y="650" type="line"/>
			<point x="385" y="650" type="line"/>
		</contour>
	</outline>
</glyph>
<glyph name="multiply" format="2">
	<advance width="582"/>
	<unicode hex="00D7"/>
	<outline>
		<contour>
			<point x="404" y="471" type="line"/>
			<point x="100" y="167" type="line"/>
			<point x="178" y="89" type="line"/>
			<point x="482" y="393" type="line"/>
		</contour>
		<contour>
			<point x="178" y="471" type="line"/>
			<point x="100" y="393" type="line"/>
			<point x="404" y="89" type="line"/>
			<point x="482" y="167" type="line"/>
		</contour>
	</outline>
</glyph>
<glyph name="Oslash" format="2">
	<advance width="860"/>
	<unicode hex="00D8"/>
	<guideline x="768" y="-15" angle="0"/>
	<guideline x="502" y="665" angle="0"/>
	<outline>
		<contour>
			<point x="76" y="0" type="line"/>
			<point x="222" y="0" type="line"/>
			<point x="783" y="649" type="line"/>
			<point x="637" y="649" type="line"/>
		</contour>
		<contour>
			<point x="430" y="-16" type="curve" smooth="yes"/>
			<point x="618" y="-16"/>
			<point x="770" y="136"/>
			<point x="770" y="324" type="curve" smooth="yes"/>
			<point x="770" y="512"/>
			<point x="618" y="664"/>
			<point x="430" y="664" type="curve" smooth="yes"/>
			<point x="242" y="664"/>
			<point x="90" y="512"/>
			<point x="90" y="324" type="curve" smooth="yes"/>
			<point x="90" y="136"/>
			<point x="242" y="-16"/>
		</contour>
		<contour>
			<point x="430" y="104" type="curve" smooth="yes"/>
			<point x="308" y="104"/>
			<point x="210" y="202"/>
			<point x="210" y="324" type="curve" smooth="yes"/>
			<point x="210" y="446"/>
			<point x="308" y="544"/>
			<point x="430" y="544" type="curve" smooth="yes"/>
			<point x="552" y="544"/>
			<point x="650" y="446"/>
			<point x="650" y="324" type="curve" smooth="yes"/>
			<point x="650" y="202"/>
			<point x="551" y="104"/>
		</contour>
	</outline>
</glyph>
<glyph name="Thorn" format="2">
	<advance width="600"/>
	<unicode hex="00DE"/>
	<anchor x="313" y="0" name="bottom"/>
	<anchor x="313" y="649" name="top"/>
	<outline>
		<contour>
			<point x="120" y="113" type="line"/>
			<point x="320" y="113" type="line" smooth="yes"/>
			<point x="449" y="113"/>
			<point x="535" y="200"/>
			<point x="535" y="331" type="curve" smooth="yes"/>
			<point x="535" y="462"/>
			<point x="449" y="549"/>
			<point x="320" y="549" type="curve" smooth="yes"/>
			<point x="120" y="549" type="line"/>
			<point x="120" y="429" type="line"/>
			<point x="315" y="429" type="line" smooth="yes"/>
			<point x="375" y="429"/>
			<point x="415" y="390"/>
			<point x="415" y="331" type="curve" smooth="yes"/>
			<point x="415" y="273"/>
			<point x="374" y="233"/>
			<point x="315" y="233" type="curve" smooth="yes"/>
			<point x="120" y="233" type="line"/>
		</contour>
		<contour>
			<point x="100" y="0" type="line"/>
			<point x="220" y="0" type="line"/>
			<point x="220" y="701" type="line"/>
			<point x="100" y="701" type="line"/>
		</contour>
	</outline>
</glyph>
<glyph name="germandbls" format="2">
	<advance width="690"/>
	<unicode hex="00DF"/>
	<outline>
		<contour>
			<point x="340" y="0" type="line"/>
			<point x="405" y="0" type="line" smooth="yes"/>
			<point x="531" y="0"/>
			<point x="610" y="83"/>
			<point x="610" y="210" type="curve" smooth="yes"/>
			<point x="610" y="336"/>
			<point x="531" y="415"/>
			<point x="405" y="415" type="curve"/>
			<point x="405" y="305" type="line"/>
			<point x="459" y="305"/>
			<point x="495" y="264"/>
			<point x="495" y="210" type="curve" smooth="yes"/>
			<point x="495" y="156"/>
			<point x="459" y="110"/>
			<point x="405" y="110" type="curve" smooth="yes"/>
			<point x="340" y="110" type="line"/>
		</contour>
		<contour>
			<point x="60" y="310" type="line"/>
			<point x="176" y="310" type="line"/>
			<point x="176" y="420" type="line"/>
			<point x="60" y="420" type="line"/>
		</contour>
		<contour>
			<point x="160" y="0" type="line"/>
			<point x="275" y="0" type="line"/>
			<point x="275" y="649" type="line"/>
			<point x="160" y="649" type="line"/>
		</contour>
		<contour>
			<point x="327" y="305" type="line"/>
			<point x="441" y="305" type="line"/>
			<point x="541" y="649" type="line"/>
			<point x="427" y="649" type="line"/>
		</contour>
		<contour>
			<point x="160" y="539" type="line"/>
			<point x="476" y="539" type="line"/>
			<point x="476" y="649" type="line"/>
			<point x="160" y="649" type="line"/>
		</contour>
	</outline>
</glyph>
<glyph name="ae" format="2">
	<advance width="790"/>
	<unicode hex="00E6"/>
	<outline>
		<contour>
			<point x="340" y="260" type="curve"/>
			<point x="450" y="260" type="line"/>
			<point x="450" y="355"/>
			<point x="500" y="405"/>
			<point x="561" y="405" type="curve" smooth="yes"/>
			<point x="650" y="405" type="line"/>
			<point x="650" y="520" type="line"/>
			<point x="561" y="520" type="line" smooth="yes"/>
			<point x="436" y="520"/>
			<point x="339" y="428"/>
		</contour>
		<contour>
			<point x="340" y="260" type="curve"/>
			<point x="450" y="260" type="line"/>
			<point x="451" y="428"/>
			<point x="354" y="520"/>
			<point x="229" y="520" type="curve" smooth="yes"/>
			<point x="80" y="520" type="line"/>
			<point x="80" y="405" type="line"/>
			<point x="229" y="405" type="line" smooth="yes"/>
			<point x="290" y="405"/>
			<point x="340" y="355"/>
		</contour>
		<contour>
			<point x="80" y="0" type="line"/>
			<point x="185" y="0" type="line"/>
			<point x="185" y="310" type="line"/>
			<point x="80" y="310" type="line"/>
		</contour>
		<contour>
			<point x="140" y="0" type="line"/>
			<point x="229" y="0" type="line" smooth="yes"/>
			<point x="357" y="0"/>
			<point x="451" y="93"/>
			<point x="450" y="260" type="curve"/>
			<point x="340" y="260" type="line"/>
			<point x="340" y="161"/>
			<point x="289" y="115"/>
			<point x="229" y="115" type="curve" smooth="yes"/>
			<point x="140" y="115" type="line"/>
		</contour>
		<contour>
			<point x="154" y="210" type="line"/>
			<point x="265" y="210" type="line"/>
			<point x="265" y="310" type="line"/>
			<point x="154" y="310" type="line"/>
		</contour>
		<contour>
			<point x="561" y="0" type="curve" smooth="yes"/>
			<point x="650" y="0" type="line"/>
			<point x="650" y="115" type="line"/>
			<point x="561" y="115" type="line" smooth="yes"/>
			<point x="501" y="115"/>
			<point x="450" y="161"/>
			<point x="450" y="260" type="curve"/>
			<point x="340" y="260" type="line"/>
			<point x="339" y="93"/>
			<point x="433" y="0"/>
		</contour>
		<contour>
			<point x="525" y="210" type="line"/>
			<point x="636" y="210" type="line"/>
			<point x="636" y="310" type="line"/>
			<point x="525" y="310" type="line"/>
		</contour>
		<contour>
			<point x="605" y="210" type="line"/>
			<point x="710" y="210" type="line"/>
			<point x="710" y="520" type="line"/>
			<point x="605" y="520" type="line"/>
		</contour>
	</outline>
</glyph>
<glyph name="eth" format="2">
	<advance width="595"/>
	<unicode hex="00F0"/>
	<guideline x="278" y="495" angle="0"/>
	<guideline x="318" y="-5" angle="0"/>
	<outline>
		<contour>
			<point x="521" y="317" type="line"/>
			<point x="335" y="755" type="line"/>
			<point x="226" y="755" type="line"/>
			<point x="378" y="397" type="line"/>
		</contour>
		<contour>
			<point x="502" y="650" type="line"/>
			<point x="112" y="650" type="line"/>
			<point x="112" y="580" type="line"/>
			<point x="502" y="580" type="line"/>
		</contour>
		<contour>
			<point x="297" y="106" type="curve" smooth="yes"/>
			<point x="227" y="106"/>
			<point x="170" y="163"/>
			<point x="170" y="233" type="curve" smooth="yes"/>
			<point x="170" y="304"/>
			<point x="227" y="360"/>
			<point x="297" y="360" type="curve" smooth="yes"/>
			<point x="368" y="360"/>
			<point x="424" y="304"/>
			<point x="424" y="233" type="curve" smooth="yes"/>
			<point x="424" y="163"/>
			<point x="368" y="106"/>
		</contour>
		<contour>
			<point x="297" y="-5" type="curve" smooth="yes"/>
			<point x="428" y="-5"/>
			<point x="536" y="102"/>
			<point x="536" y="233" type="curve" smooth="yes"/>
			<point x="536" y="364"/>
			<point x="428" y="472"/>
			<point x="297" y="472" type="curve" smooth="yes"/>
			<point x="166" y="472"/>
			<point x="59" y="364"/>
			<point x="59" y="233" type="curve" smooth="yes"/>
			<point x="59" y="102"/>
			<point x="166" y="-5"/>
		</contour>
	</outline>
</glyph>
<glyph name="oslash" format="2">
	<advance width="650"/>
	<unicode hex="00F8"/>
	<outline>
		<contour>
			<point x="325" y="-5" type="curve" smooth="yes"/>
			<point x="471" y="-5"/>
			<point x="590" y="114"/>
			<point x="590" y="260" type="curve" smooth="yes"/>
			<point x="590" y="406"/>
			<point x="471" y="525"/>
			<point x="325" y="525" type="curve" smooth="yes"/>
			<point x="179" y="525"/>
			<point x="60" y="406"/>
			<point x="60" y="260" type="curve" smooth="yes"/>
			<point x="60" y="114"/>
			<point x="179" y="-5"/>
		</contour>
		<contour>
			<point x="81" y="0" type="line"/>
			<point x="171" y="0" type="line"/>
			<point x="569" y="520" type="line"/>
			<point x="479" y="520" type="line"/>
		</contour>
		<contour>
			<point x="325" y="100" type="curve" smooth="yes"/>
			<point x="236" y="100"/>
			<point x="165" y="171"/>
			<point x="165" y="260" type="curve" smooth="yes"/>
			<point x="165" y="349"/>
			<point x="236" y="420"/>
			<point x="325" y="420" type="curve" smooth="yes"/>
			<point x="414" y="420"/>
			<point x="485" y="349"/>
			<point x="485" y="260" type="curve" smooth="yes"/>
			<point x="485" y="171"/>
			<point x="414" y="100"/>
		</contour>
	</outline>
</glyph>
<glyph name="thorn" format="2">
	<advance width="560"/>
	<unicode hex="00FE"/>
	<guideline x="205" y="710" angle="0"/>
	<outline>
		<contour>
			<point x="279" y="115" type="curve" smooth="yes"/>
			<point x="155" y="115" type="line"/>
			<point x="155" y="0" type="line"/>
			<point x="279" y="0" type="line" smooth="yes"/>
			<point x="407" y="0"/>
			<point x="500" y="93"/>
			<point x="500" y="260" type="curve"/>
			<point x="390" y="260" type="line"/>
			<point x="390" y="161"/>
			<point x="339" y="115"/>
		</contour>
		<contour>
			<point x="155" y="405" type="line"/>
			<point x="279" y="405" type="line" smooth="yes"/>
			<point x="340" y="405"/>
			<point x="390" y="355"/>
			<point x="390" y="260" type="curve"/>
			<point x="500" y="260" type="line"/>
			<point x="500" y="428"/>
			<point x="404" y="520"/>
			<point x="279" y="520" type="curve" smooth="yes"/>
			<point x="155" y="520" type="line"/>
		</contour>
		<contour>
			<point x="90" y="-200" type="line"/>
			<point x="205" y="-200" type="line"/>
			<point x="205" y="710" type="line"/>
			<point x="90" y="710" type="line"/>
		</contour>
	</outline>
</glyph>
<glyph name="Dcroat" format="2">
	<advance width="655"/>
	<unicode hex="0110"/>
	<outline>
		<contour>
			<point x="100" y="264" type="line"/>
			<point x="330" y="264" type="line"/>
			<point x="330" y="384" type="line"/>
			<point x="100" y="384" type="line"/>
		</contour>
		<contour>
			<point x="220" y="0" type="line"/>
			<point x="220" y="650" type="line"/>
			<point x="100" y="650" type="line"/>
			<point x="100" y="0" type="line"/>
		</contour>
		<contour>
			<point x="260" y="0" type="line"/>
			<point x="449" y="0"/>
			<point x="575" y="130"/>
			<point x="575" y="325" type="curve"/>
			<point x="455" y="325" type="line"/>
			<point x="455" y="202"/>
			<point x="373" y="115"/>
			<point x="250" y="115" type="curve" smooth="yes"/>
			<point x="140" y="115" type="line"/>
			<point x="140" y="0" type="line"/>
		</contour>
		<contour>
			<point x="455" y="325" type="curve"/>
			<point x="575" y="325" type="line"/>
			<point x="575" y="519"/>
			<point x="449" y="650"/>
			<point x="260" y="650" type="curve" smooth="yes"/>
			<point x="140" y="650" type="line"/>
			<point x="140" y="535" type="line"/>
			<point x="250" y="535" type="line" smooth="yes"/>
			<point x="373" y="535"/>
			<point x="455" y="447"/>
		</contour>
	</outline>
</glyph>
<glyph name="Hbar" format="2">
	<advance width="635"/>
	<unicode hex="0126"/>
	<anchor x="318" y="0" name="bottom"/>
	<anchor x="318" y="325" name="center"/>
	<anchor x="493" y="0" name="ogonek"/>
	<anchor x="318" y="650" name="top"/>
	<anchor x="30" y="650" name="topleft"/>
	<outline>
		<contour>
			<point x="30" y="576" type="line"/>
			<point x="30" y="476" type="line"/>
			<point x="605" y="476" type="line"/>
			<point x="605" y="576" type="line"/>
		</contour>
		<contour>
			<point x="166" y="268" type="line"/>
			<point x="469" y="268" type="line"/>
			<point x="469" y="383" type="line"/>
			<point x="166" y="383" type="line"/>
		</contour>
		<contour>
			<point x="100" y="0" type="line"/>
			<point x="220" y="0" type="line"/>
			<point x="220" y="650" type="line"/>
			<point x="100" y="650" type="line"/>
		</contour>
		<contour>
			<point x="415" y="0" type="line"/>
			<point x="535" y="0" type="line"/>
			<point x="535" y="650" type="line"/>
			<point x="415" y="650" type="line"/>
		</contour>
	</outline>
</glyph>
<glyph name="hbar" format="2">
	<advance width="540"/>
	<unicode hex="0127"/>
	<outline>
		<contour>
			<point x="400" y="650" type="line"/>
			<point x="40" y="650" type="line"/>
			<point x="40" y="580" type="line"/>
			<point x="400" y="580" type="line"/>
		</contour>
		<component base="h"/>
	</outline>
</glyph>
<glyph name="dotlessi" format="2">
	<advance width="295"/>
	<unicode hex="0131"/>
	<anchor x="148" y="0" name="bottom"/>
	<anchor x="163" y="0" name="ogonek"/>
	<anchor x="148" y="520" name="top"/>
	<outline>
		<contour>
			<point x="90" y="0" type="line"/>
			<point x="205" y="0" type="line"/>
			<point x="205" y="520" type="line"/>
			<point x="90" y="520" type="line"/>
		</contour>
	</outline>
</glyph>
<glyph name="IJ" format="2">
	<advance width="536"/>
	<unicode hex="0132"/>
	<unicode hex="0133"/>
	<outline>
		<contour>
			<point x="100" y="300" type="line"/>
			<point x="220" y="300" type="line"/>
			<point x="220" y="649" type="line"/>
			<point x="100" y="649" type="line"/>
		</contour>
		<contour>
			<point x="268" y="-20" type="curve" smooth="yes"/>
			<point x="369" y="-20"/>
			<point x="436" y="44"/>
			<point x="436" y="140" type="curve" smooth="yes"/>
			<point x="436" y="649" type="line"/>
			<point x="316" y="649" type="line"/>
			<point x="316" y="145" type="line" smooth="yes"/>
			<point x="316" y="116"/>
			<point x="297" y="97"/>
			<point x="268" y="97" type="curve" smooth="yes"/>
			<point x="239" y="97"/>
			<point x="220" y="116"/>
			<point x="220" y="145" type="curve" smooth="yes"/>
			<point x="220" y="200" type="line"/>
			<point x="100" y="200" type="line"/>
			<point x="100" y="140" type="line" smooth="yes"/>
			<point x="100" y="44"/>
			<point x="167" y="-20"/>
		</contour>
	</outline>
</glyph>
<glyph name="Lslash" format="2">
	<advance width="535"/>
	<unicode hex="0141"/>
	<anchor x="283" y="0" name="bottom"/>
	<anchor x="283" y="325" name="center"/>
	<anchor x="160" y="649" name="top"/>
	<anchor x="545" y="649" name="topright"/>
	<outline>
		<contour>
			<point x="50" y="163" type="line"/>
			<point x="325" y="372" type="line"/>
			<point x="325" y="510" type="line"/>
			<point x="50" y="302" type="line"/>
		</contour>
		<contour>
			<point x="100" y="0" type="line"/>
			<point x="485" y="0" type="line"/>
			<point x="485" y="120" type="line"/>
			<point x="100" y="120" type="line"/>
		</contour>
		<contour>
			<point x="100" y="0" type="line"/>
			<point x="220" y="0" type="line"/>
			<point x="220" y="650" type="line"/>
			<point x="100" y="650" type="line"/>
		</contour>
	</outline>
</glyph>
<glyph name="lslash" format="2">
	<advance width="386"/>
	<unicode hex="0142"/>
	<outline>
		<contour>
			<point x="50" y="188" type="line"/>
			<point x="285" y="367" type="line"/>
			<point x="285" y="455" type="line"/>
			<point x="50" y="277" type="line"/>
		</contour>
		<component base="l"/>
	</outline>
</glyph>
<glyph name="Eng" format="2">
	<advance width="635"/>
	<unicode hex="014A"/>
	<anchor x="160" y="0" name="bottom"/>
	<anchor x="178" y="0" name="ogonek"/>
	<anchor x="160" y="649" name="top"/>
	<anchor x="20" y="649" name="topleft"/>
	<outline>
		<contour>
			<point x="368" y="266" type="line"/>
			<point x="463" y="266" type="line"/>
			<point x="463" y="381" type="line"/>
			<point x="418" y="381" type="line"/>
			<point x="220" y="649" type="line"/>
			<point x="145" y="649" type="line"/>
			<point x="145" y="534" type="line"/>
			<point x="170" y="534" type="line"/>
		</contour>
		<contour>
			<point x="415" y="-200" type="line"/>
			<point x="535" y="-200" type="line"/>
			<point x="535" y="649" type="line"/>
			<point x="415" y="649" type="line"/>
		</contour>
		<contour>
			<point x="319" y="-90" type="line"/>
			<point x="319" y="-200" type="line"/>
			<point x="535" y="-200" type="line"/>
			<point x="535" y="-90" type="line"/>
		</contour>
		<contour>
			<point x="100" y="0" type="line"/>
			<point x="220" y="0" type="line"/>
			<point x="220" y="650" type="line"/>
			<point x="100" y="650" type="line"/>
		</contour>
	</outline>
</glyph>
<glyph name="eng" format="2">
	<advance width="540"/>
	<unicode hex="014B"/>
	<outline>
		<contour>
			<point x="345" y="-200" type="line"/>
			<point x="460" y="-200" type="line"/>
			<point x="460" y="120" type="line"/>
			<point x="345" y="120" type="line"/>
		</contour>
		<contour>
			<point x="245" y="-90" type="line"/>
			<point x="245" y="-200" type="line"/>
			<point x="460" y="-200" type="line"/>
			<point x="460" y="-90" type="line"/>
		</contour>
		<component base="n"/>
	</outline>
</glyph>
<glyph name="OE" format="2">
	<advance width="825"/>
	<unicode hex="0152"/>
	<outline>
		<contour>
			<point x="415" y="529" type="line"/>
			<point x="735" y="529" type="line"/>
			<point x="735" y="649" type="line"/>
			<point x="415" y="649" type="line"/>
		</contour>
		<contour>
			<point x="415" y="0" type="line"/>
			<point x="735" y="0" type="line"/>
			<point x="735" y="120" type="line"/>
			<point x="415" y="120" type="line"/>
		</contour>
		<contour>
			<point x="415" y="264" type="line"/>
			<point x="685" y="264" type="line"/>
			<point x="685" y="384" type="line"/>
			<point x="415" y="384" type="line"/>
		</contour>
		<contour>
			<point x="415" y="0" type="line"/>
			<point x="535" y="0" type="line"/>
			<point x="535" y="650" type="line"/>
			<point x="415" y="650" type="line"/>
		</contour>
		<contour>
			<point x="395" y="0" type="curve" smooth="yes"/>
			<point x="515" y="0" type="line"/>
			<point x="515" y="115" type="line"/>
			<point x="405" y="115" type="line" smooth="yes"/>
			<point x="282" y="115"/>
			<point x="200" y="202"/>
			<point x="200" y="325" type="curve"/>
			<point x="80" y="325" type="line"/>
			<point x="80" y="130"/>
			<point x="206" y="0"/>
		</contour>
		<contour>
			<point x="80" y="325" type="curve"/>
			<point x="200" y="325" type="line"/>
			<point x="200" y="447"/>
			<point x="282" y="535"/>
			<point x="405" y="535" type="curve" smooth="yes"/>
			<point x="515" y="535" type="line"/>
			<point x="515" y="650" type="line"/>
			<point x="395" y="650" type="line" smooth="yes"/>
			<point x="206" y="650"/>
			<point x="80" y="519"/>
		</contour>
	</outline>
</glyph>
<glyph name="oe" format="2">
	<advance width="881"/>
	<unicode hex="0153"/>
	<outline>
		<contour>
			<point x="295" y="110" type="curve" smooth="yes"/>
			<point x="222" y="110"/>
			<point x="175" y="177"/>
			<point x="175" y="260" type="curve" smooth="yes"/>
			<point x="175" y="343"/>
			<point x="222" y="410"/>
			<point x="295" y="410" type="curve" smooth="yes"/>
			<point x="368" y="410"/>
			<point x="415" y="343"/>
			<point x="415" y="260" type="curve" smooth="yes"/>
			<point x="415" y="177"/>
			<point x="368" y="110"/>
		</contour>
		<contour>
			<point x="295" y="-5" type="curve" smooth="yes"/>
			<point x="436" y="-5"/>
			<point x="525" y="114"/>
			<point x="525" y="260" type="curve" smooth="yes"/>
			<point x="525" y="406"/>
			<point x="436" y="525"/>
			<point x="295" y="525" type="curve" smooth="yes"/>
			<point x="154" y="525"/>
			<point x="60" y="406"/>
			<point x="60" y="260" type="curve" smooth="yes"/>
			<point x="60" y="114"/>
			<point x="154" y="-5"/>
		</contour>
		<contour>
			<point x="415" y="260" type="curve"/>
			<point x="525" y="260" type="line"/>
			<point x="525" y="355"/>
			<point x="575" y="405"/>
			<point x="636" y="405" type="curve" smooth="yes"/>
			<point x="741" y="405" type="line"/>
			<point x="741" y="520" type="line"/>
			<point x="636" y="520" type="line" smooth="yes"/>
			<point x="511" y="520"/>
			<point x="414" y="428"/>
		</contour>
		<contour>
			<point x="636" y="0" type="curve" smooth="yes"/>
			<point x="741" y="0" type="line"/>
			<point x="741" y="115" type="line"/>
			<point x="636" y="115" type="line" smooth="yes"/>
			<point x="576" y="115"/>
			<point x="525" y="161"/>
			<point x="525" y="260" type="curve"/>
			<point x="415" y="260" type="line"/>
			<point x="414" y="93"/>
			<point x="508" y="0"/>
		</contour>
		<contour>
			<point x="600" y="210" type="line"/>
			<point x="727" y="210" type="line"/>
			<point x="727" y="310" type="line"/>
			<point x="600" y="310" type="line"/>
		</contour>
		<contour>
			<point x="696" y="210" type="line"/>
			<point x="801" y="210" type="line"/>
			<point x="801" y="520" type="line"/>
			<point x="696" y="520" type="line"/>
		</contour>
	</outline>
</glyph>
<glyph name="tbar" format="2">
	<advance width="500"/>
	<unicode hex="0167"/>
	<outline>
		<contour>
			<point x="400" y="330" type="line"/>
			<point x="90" y="330" type="line"/>
			<point x="90" y="260" type="line"/>
			<point x="400" y="260" type="line"/>
		</contour>
		<component base="t"/>
	</outline>
</glyph>
<glyph name="uni0237" format="2">
	<advance width="290"/>
	<unicode hex="0237"/>
	<anchor x="145" y="-200" name="bottom"/>
	<anchor x="145" y="520" name="top"/>
	<outline>
		<contour>
			<point x="85" y="-200" type="line"/>
			<point x="200" y="-200" type="line"/>
			<point x="200" y="520" type="line"/>
			<point x="85" y="520" type="line"/>
		</contour>
		<contour>
			<point x="-15" y="-90" type="line"/>
			<point x="-15" y="-200" type="line"/>
			<point x="200" y="-200" type="line"/>
			<point x="200" y="-90" type="line"/>
		</contour>
	</outline>
</glyph>
<glyph name="uni02BC" format="2">
	<advance width="321"/>
	<unicode hex="02BC"/>
	<outline>
		<contour>
			<point x="50" y="419" type="line"/>
			<point x="170" y="419" type="line"/>
			<point x="271" y="649" type="line"/>
			<point x="151" y="649" type="line"/>
		</contour>
	</outline>
</glyph>
<glyph name="caron" format="2">
	<advance width="430"/>
	<unicode hex="02C7"/>
	<anchor x="205" y="650" name="_top"/>
	<anchor x="205" y="800" name="top"/>
	<outline>
		<contour>
			<point x="330" y="809" type="line"/>
			<point x="215" y="809" type="line"/>
			<point x="205" y="800" type="line"/>
			<point x="195" y="809" type="line"/>
			<point x="80" y="809" type="line"/>
			<point x="196" y="720" type="line"/>
			<point x="214" y="720" type="line"/>
		</contour>
	</outline>
</glyph>
<glyph name="breve" format="2">
	<advance width="378"/>
	<unicode hex="02D8"/>
	<anchor x="189" y="650" name="_top"/>
	<anchor x="189" y="801" name="top"/>
	<outline>
		<contour>
			<point x="169" y="801" type="curve"/>
			<point x="90" y="801" type="line"/>
			<point x="90" y="740"/>
			<point x="130" y="700"/>
			<point x="189" y="700" type="curve" smooth="yes"/>
			<point x="248" y="700"/>
			<point x="288" y="740"/>
			<point x="288" y="801" type="curve"/>
			<point x="209" y="801" type="line"/>
			<point x="209" y="790"/>
			<point x="200" y="781"/>
			<point x="189" y="781" type="curve" smooth="yes"/>
			<point x="178" y="781"/>
			<point x="169" y="790"/>
		</contour>
	</outline>
</glyph>
<glyph name="dotaccent" format="2">
	<advance width="300"/>
	<unicode hex="02D9"/>
	<anchor x="150" y="650" name="_top"/>
	<outline>
		<contour>
			<point x="150" y="711" type="curve" smooth="yes"/>
			<point x="184" y="711"/>
			<point x="210" y="737"/>
			<point x="210" y="771" type="curve" smooth="yes"/>
			<point x="210" y="805"/>
			<point x="184" y="831"/>
			<point x="150" y="831" type="curve" smooth="yes"/>
			<point x="116" y="831"/>
			<point x="90" y="805"/>
			<point x="90" y="771" type="curve" smooth="yes"/>
			<point x="90" y="737"/>
			<point x="116" y="711"/>
		</contour>
	</outline>
</glyph>
<glyph name="ring" format="2">
	<advance width="352"/>
	<unicode hex="02DA"/>
	<anchor x="176" y="650" name="_top"/>
	<anchor x="176" y="870" name="top"/>
	<outline>
		<contour>
			<point x="176" y="698" type="curve" smooth="yes"/>
			<point x="224" y="698"/>
			<point x="262" y="736"/>
			<point x="262" y="784" type="curve" smooth="yes"/>
			<point x="262" y="832"/>
			<point x="224" y="870"/>
			<point x="176" y="870" type="curve" smooth="yes"/>
			<point x="128" y="870"/>
			<point x="90" y="832"/>
			<point x="90" y="784" type="curve" smooth="yes"/>
			<point x="90" y="736"/>
			<point x="128" y="698"/>
		</contour>
		<contour>
			<point x="176" y="749" type="curve" smooth="yes"/>
			<point x="157" y="749"/>
			<point x="141" y="765"/>
			<point x="141" y="784" type="curve" smooth="yes"/>
			<point x="141" y="803"/>
			<point x="157" y="819"/>
			<point x="176" y="819" type="curve" smooth="yes"/>
			<point x="195" y="819"/>
			<point x="211" y="803"/>
			<point x="211" y="784" type="curve" smooth="yes"/>
			<point x="211" y="765"/>
			<point x="195" y="749"/>
		</contour>
	</outline>
</glyph>
<glyph name="ogonek" format="2">
	<advance width="420"/>
	<unicode hex="02DB"/>
	<anchor x="226" y="0" name="_ogonek"/>
	<outline>
		<contour>
			<point x="90" y="-200" type="line"/>
			<point x="174" y="-200" type="line"/>
			<point x="268" y="0" type="line"/>
			<point x="186" y="4" type="line"/>
		</contour>
		<contour>
			<point x="140" y="-200" type="line"/>
			<point x="330" y="-200" type="line"/>
			<point x="330" y="-120" type="line"/>
			<point x="140" y="-120" type="line"/>
		</contour>
	</outline>
</glyph>
<glyph name="hungarumlaut" format="2">
	<advance width="510"/>
	<unicode hex="02DD"/>
	<anchor x="225" y="650" name="_top"/>
	<anchor x="225" y="890" name="top"/>
	<outline>
		<contour>
			<point x="270" y="710" type="line"/>
			<point x="364" y="710" type="line"/>
			<point x="420" y="890" type="line"/>
			<point x="326" y="890" type="line"/>
		</contour>
		<contour>
			<point x="90" y="710" type="line"/>
			<point x="184" y="710" type="line"/>
			<point x="240" y="890" type="line"/>
			<point x="146" y="890" type="line"/>
		</contour>
	</outline>
</glyph>
<glyph name="gravecomb" format="2">
	<advance width="0"/>
	<unicode hex="0300"/>
	<anchor x="205" y="650" name="_top"/>
	<anchor x="205" y="810" name="top"/>
	<outline>
		<contour>
			<point x="260" y="710" type="line"/>
			<point x="205" y="810" type="line"/>
			<point x="90" y="810" type="line"/>
			<point x="145" y="710" type="line"/>
		</contour>
	</outline>
</glyph>
<glyph name="acutecomb" format="2">
	<advance width="0"/>
	<unicode hex="0301"/>
	<anchor x="145" y="650" name="_top"/>
	<anchor x="145" y="810" name="top"/>
	<outline>
		<contour>
			<point x="90" y="710" type="line"/>
			<point x="205" y="710" type="line"/>
			<point x="260" y="810" type="line"/>
			<point x="145" y="810" type="line"/>
		</contour>
	</outline>
</glyph>
<glyph name="tildecomb" format="2">
	<advance width="0"/>
	<unicode hex="0303"/>
	<guideline x="-56" y="885" angle="0"/>
	<anchor x="232" y="650" name="_top"/>
	<anchor x="232" y="815" name="top"/>
	<outline>
		<contour>
			<point x="90" y="711" type="curve"/>
			<point x="160" y="711" type="line"/>
			<point x="160" y="728"/>
			<point x="169" y="745"/>
			<point x="186" y="745" type="curve" smooth="yes"/>
			<point x="212" y="745"/>
			<point x="232" y="706"/>
			<point x="282" y="706" type="curve" smooth="yes"/>
			<point x="336" y="706"/>
			<point x="379" y="752"/>
			<point x="379" y="810" type="curve"/>
			<point x="309" y="810" type="line"/>
			<point x="309" y="791"/>
			<point x="299" y="776"/>
			<point x="282" y="776" type="curve" smooth="yes"/>
			<point x="244" y="776"/>
			<point x="230" y="815"/>
			<point x="186" y="815" type="curve" smooth="yes"/>
			<point x="132" y="815"/>
			<point x="90" y="768"/>
		</contour>
	</outline>
</glyph>
<glyph name="uni0304" format="2">
	<advance width="0"/>
	<unicode hex="0304"/>
	<anchor x="255" y="650" name="_top"/>
	<anchor x="255" y="810" name="top"/>
	<outline>
		<contour>
			<point x="90" y="730" type="line"/>
			<point x="420" y="730" type="line"/>
			<point x="420" y="810" type="line"/>
			<point x="90" y="810" type="line"/>
		</contour>
	</outline>
</glyph>
<glyph name="uni030B" format="2">
	<advance width="0"/>
	<unicode hex="030B"/>
	<anchor x="225" y="650" name="_top"/>
	<anchor x="225" y="890" name="top"/>
	<outline>
		<contour>
			<point x="270" y="710" type="line"/>
			<point x="364" y="710" type="line"/>
			<point x="420" y="890" type="line"/>
			<point x="326" y="890" type="line"/>
		</contour>
		<contour>
			<point x="90" y="710" type="line"/>
			<point x="184" y="710" type="line"/>
			<point x="240" y="890" type="line"/>
			<point x="146" y="890" type="line"/>
		</contour>
	</outline>
</glyph>
<glyph name="uni030C" format="2">
	<advance width="0"/>
	<unicode hex="030C"/>
	<anchor x="215" y="650" name="_top"/>
	<anchor x="215" y="800" name="top"/>
	<outline>
		<contour>
			<point x="340" y="809" type="line"/>
			<point x="225" y="809" type="line"/>
			<point x="215" y="800" type="line"/>
			<point x="205" y="809" type="line"/>
			<point x="90" y="809" type="line"/>
			<point x="206" y="720" type="line"/>
			<point x="224" y="720" type="line"/>
		</contour>
	</outline>
</glyph>
<glyph name="uni0312" format="2">
	<advance width="0"/>
	<unicode hex="0312"/>
	<anchor x="150" y="650" name="_top"/>
	<anchor x="178" y="922" name="top"/>
	<outline>
		<contour>
			<point x="155" y="922" type="line"/>
			<point x="100" y="812" type="line"/>
			<point x="100" y="708" type="line"/>
			<point x="200" y="708" type="line"/>
			<point x="200" y="812" type="line"/>
			<point x="255" y="922" type="line"/>
		</contour>
	</outline>
</glyph>
<glyph name="uni0326" format="2">
	<advance width="0"/>
	<unicode hex="0326"/>
	<anchor x="208" y="0" name="_bottom"/>
	<anchor x="168" y="-210" name="bottom"/>
	<outline>
		<contour>
			<point x="90" y="-210" type="line"/>
			<point x="174" y="-210" type="line"/>
			<point x="246" y="-56" type="line"/>
			<point x="162" y="-56" type="line"/>
		</contour>
	</outline>
</glyph>
<glyph name="uni0327" format="2">
	<advance width="0"/>
	<unicode hex="0327"/>
	<guideline x="156" y="-56" angle="0"/>
	<anchor x="111" y="0" name="_bottom"/>
	<anchor x="90" y="-244" name="bottom"/>
	<outline>
		<contour>
			<point x="90" y="-165" type="curve"/>
			<point x="90" y="-244" type="line"/>
			<point x="151" y="-244"/>
			<point x="191" y="-204"/>
			<point x="191" y="-145" type="curve" smooth="yes"/>
			<point x="191" y="-86"/>
			<point x="151" y="-46"/>
			<point x="90" y="-46" type="curve"/>
			<point x="90" y="-125" type="line"/>
			<point x="101" y="-125"/>
			<point x="110" y="-134"/>
			<point x="110" y="-145" type="curve" smooth="yes"/>
			<point x="110" y="-156"/>
			<point x="101" y="-165"/>
		</contour>
	</outline>
</glyph>
<glyph name="uni0328" format="2">
	<advance width="0"/>
	<unicode hex="0328"/>
	<anchor x="226" y="0" name="_ogonek"/>
	<outline>
		<contour>
			<point x="90" y="-200" type="line"/>
			<point x="174" y="-200" type="line"/>
			<point x="268" y="0" type="line"/>
			<point x="186" y="4" type="line"/>
		</contour>
		<contour>
			<point x="140" y="-200" type="line"/>
			<point x="330" y="-200" type="line"/>
			<point x="330" y="-120" type="line"/>
			<point x="140" y="-120" type="line"/>
		</contour>
	</outline>
</glyph>
<glyph name="uni0404" format="2">
	<advance width="809"/>
	<unicode hex="0404"/>
	<outline>
		<contour>
			<point x="739" y="205" type="curve"/>
			<point x="599" y="205" type="line"/>
			<point x="561" y="147"/>
			<point x="495" y="109"/>
			<point x="420" y="109" type="curve" smooth="yes"/>
			<point x="302" y="109"/>
			<point x="205" y="205"/>
			<point x="205" y="324" type="curve" smooth="yes"/>
			<point x="205" y="443"/>
			<point x="301" y="539"/>
			<point x="420" y="539" type="curve" smooth="yes"/>
			<point x="495" y="539"/>
			<point x="561" y="501"/>
			<point x="599" y="443" type="curve"/>
			<point x="739" y="443" type="line"/>
			<point x="690" y="572"/>
			<point x="566" y="664"/>
			<point x="420" y="664" type="curve" smooth="yes"/>
			<point x="232" y="664"/>
			<point x="80" y="512"/>
			<point x="80" y="324" type="curve" smooth="yes"/>
			<point x="80" y="136"/>
			<point x="232" y="-16"/>
			<point x="420" y="-16" type="curve" smooth="yes"/>
			<point x="566" y="-16"/>
			<point x="690" y="76"/>
		</contour>
		<contour>
			<point x="543" y="267" type="line"/>
			<point x="543" y="382" type="line"/>
			<point x="94" y="382" type="line"/>
			<point x="94" y="267" type="line"/>
		</contour>
	</outline>
</glyph>
<glyph name="uni0406" format="2">
	<advance width="300"/>
	<unicode hex="0406"/>
	<anchor x="150" y="650" name="top"/>
	<outline>
		<contour>
			<point x="90" y="0" type="line"/>
			<point x="210" y="0" type="line"/>
			<point x="210" y="650" type="line"/>
			<point x="90" y="650" type="line"/>
		</contour>
	</outline>
</glyph>
<glyph name="uni0410" format="2">
	<advance width="640"/>
	<unicode hex="0410"/>
	<anchor x="320" y="0" name="bottom"/>
	<anchor x="584" y="10" name="ogonek"/>
	<anchor x="320" y="650" name="top"/>
	<outline>
		<contour>
			<point x="185" y="158" type="line"/>
			<point x="455" y="158" type="line"/>
			<point x="455" y="273" type="line"/>
			<point x="185" y="273" type="line"/>
		</contour>
		<contour>
			<point x="590" y="0" type="line"/>
			<point x="405" y="650" type="line"/>
			<point x="244" y="650" type="line"/>
			<point x="50" y="0" type="line"/>
			<point x="171" y="0" type="line"/>
			<point x="328" y="546" type="line"/>
			<point x="324" y="546" type="line"/>
			<point x="475" y="0" type="line"/>
		</contour>
	</outline>
</glyph>
<glyph name="uni0411" format="2">
	<advance width="627"/>
	<unicode hex="0411"/>
	<outline>
		<contour>
			<point x="187" y="535" type="line"/>
			<point x="500" y="535" type="line"/>
			<point x="500" y="650" type="line"/>
			<point x="187" y="650" type="line"/>
		</contour>
		<contour>
			<point x="130" y="0" type="line"/>
			<point x="330" y="0" type="line" smooth="yes"/>
			<point x="475" y="0"/>
			<point x="547" y="108"/>
			<point x="547" y="218" type="curve"/>
			<point x="427" y="218" type="line"/>
			<point x="427" y="169"/>
			<point x="393" y="115"/>
			<point x="325" y="115" type="curve" smooth="yes"/>
			<point x="130" y="115" type="line"/>
		</contour>
		<contour>
			<point x="330" y="436" type="curve" smooth="yes"/>
			<point x="130" y="436" type="line"/>
			<point x="130" y="321" type="line"/>
			<point x="325" y="321" type="line" smooth="yes"/>
			<point x="393" y="321"/>
			<point x="427" y="267"/>
			<point x="427" y="218" type="curve"/>
			<point x="547" y="218" type="line"/>
			<point x="547" y="328"/>
			<point x="475" y="436"/>
		</contour>
		<contour>
			<point x="120" y="0" type="line"/>
			<point x="240" y="0" type="line"/>
			<point x="240" y="650" type="line"/>
			<point x="120" y="650" type="line"/>
		</contour>
	</outline>
</glyph>
<glyph name="uni0412" format="2">
	<advance width="582"/>
	<unicode hex="0412"/>
	<anchor x="318" y="0" name="bottom"/>
	<anchor x="178" y="0" name="ogonek"/>
	<anchor x="318" y="650" name="top"/>
	<anchor x="20" y="649" name="topleft"/>
	<outline>
		<contour>
			<point x="130" y="0" type="line"/>
			<point x="330" y="0" type="line" smooth="yes"/>
			<point x="475" y="0"/>
			<point x="542" y="109"/>
			<point x="542" y="218" type="curve" smooth="yes"/>
			<point x="542" y="297"/>
			<point x="505" y="369"/>
			<point x="430" y="406" type="curve"/>
			<point x="393" y="293" type="line"/>
			<point x="416" y="274"/>
			<point x="427" y="246"/>
			<point x="427" y="218" type="curve" smooth="yes"/>
			<point x="427" y="169"/>
			<point x="393" y="115"/>
			<point x="325" y="115" type="curve" smooth="yes"/>
			<point x="130" y="115" type="line"/>
		</contour>
		<contour>
			<point x="110" y="220" type="line"/>
			<point x="230" y="220" type="line" smooth="yes"/>
			<point x="359" y="220"/>
			<point x="445" y="306"/>
			<point x="445" y="435" type="curve" smooth="yes"/>
			<point x="445" y="564"/>
			<point x="359" y="650"/>
			<point x="230" y="650" type="curve" smooth="yes"/>
			<point x="110" y="650" type="line"/>
			<point x="110" y="540" type="line"/>
			<point x="240" y="540" type="line" smooth="yes"/>
			<point x="297" y="540"/>
			<point x="340" y="492"/>
			<point x="340" y="435" type="curve" smooth="yes"/>
			<point x="340" y="378"/>
			<point x="297" y="330"/>
			<point x="240" y="330" type="curve" smooth="yes"/>
			<point x="110" y="330" type="line"/>
		</contour>
		<contour>
			<point x="110" y="0" type="line"/>
			<point x="230" y="0" type="line"/>
			<point x="230" y="650" type="line"/>
			<point x="110" y="650" type="line"/>
		</contour>
	</outline>
</glyph>
<glyph name="uni0413" format="2">
	<advance width="540"/>
	<unicode hex="0413"/>
	<anchor x="160" y="0" name="bottom"/>
	<anchor x="178" y="0" name="ogonek"/>
	<anchor x="160" y="649" name="top"/>
	<anchor x="20" y="649" name="topleft"/>
	<outline>
		<contour>
			<point x="177" y="534" type="line"/>
			<point x="490" y="534" type="line"/>
			<point x="490" y="649" type="line"/>
			<point x="177" y="649" type="line"/>
		</contour>
		<contour>
			<point x="110" y="0" type="line"/>
			<point x="230" y="0" type="line"/>
			<point x="230" y="650" type="line"/>
			<point x="110" y="650" type="line"/>
		</contour>
	</outline>
</glyph>
<glyph name="uni0414" format="2">
	<advance width="780"/>
	<unicode hex="0414"/>
	<anchor x="610" y="0" name="bottom"/>
	<anchor x="628" y="0" name="ogonek"/>
	<anchor x="610" y="649" name="top"/>
	<anchor x="470" y="649" name="topleft"/>
	<outline>
		<contour>
			<point x="210" y="115" type="line"/>
			<point x="90" y="115" type="line"/>
			<point x="90" y="-100" type="line"/>
			<point x="210" y="-100" type="line"/>
		</contour>
		<contour>
			<point x="286" y="650" type="line"/>
			<point x="286" y="535" type="line"/>
			<point x="569" y="535" type="line"/>
			<point x="569" y="650" type="line"/>
		</contour>
		<contour>
			<point x="163" y="115" type="line"/>
			<point x="163" y="0" type="line"/>
			<point x="690" y="0" type="line"/>
			<point x="690" y="115" type="line"/>
		</contour>
		<contour>
			<point x="570" y="115" type="line"/>
			<point x="570" y="-100" type="line"/>
			<point x="690" y="-100" type="line"/>
			<point x="690" y="115" type="line"/>
		</contour>
		<contour>
			<point x="500" y="0" type="line"/>
			<point x="620" y="0" type="line"/>
			<point x="620" y="650" type="line"/>
			<point x="500" y="650" type="line"/>
		</contour>
		<contour>
			<point x="126" y="0" type="curve"/>
			<point x="241" y="0" type="line"/>
			<point x="282" y="56"/>
			<point x="299" y="107"/>
			<point x="308" y="224" type="curve" smooth="yes"/>
			<point x="342" y="650" type="line"/>
			<point x="227" y="650" type="line"/>
			<point x="193" y="228" type="line" smooth="yes"/>
			<point x="183" y="110"/>
			<point x="167" y="57"/>
		</contour>
	</outline>
</glyph>
<glyph name="uni0415" format="2">
	<advance width="520"/>
	<unicode hex="0415"/>
	<anchor x="265" y="0" name="bottom"/>
	<anchor x="388" y="0" name="ogonek"/>
	<anchor x="217" y="712" name="placement accent"/>
	<anchor x="265" y="649" name="top"/>
	<anchor x="20" y="649" name="topleft"/>
	<outline>
		<contour>
			<point x="100" y="535" type="line"/>
			<point x="430" y="535" type="line"/>
			<point x="430" y="650" type="line"/>
			<point x="100" y="650" type="line"/>
		</contour>
		<contour>
			<point x="100" y="0" type="line"/>
			<point x="430" y="0" type="line"/>
			<point x="430" y="115" type="line"/>
			<point x="100" y="115" type="line"/>
		</contour>
		<contour>
			<point x="100" y="267" type="line"/>
			<point x="380" y="267" type="line"/>
			<point x="380" y="382" type="line"/>
			<point x="100" y="382" type="line"/>
		</contour>
		<contour>
			<point x="100" y="0" type="line"/>
			<point x="220" y="0" type="line"/>
			<point x="220" y="650" type="line"/>
			<point x="100" y="650" type="line"/>
		</contour>
	</outline>
</glyph>
<glyph name="uni0416" format="2">
	<advance width="860"/>
	<unicode hex="0416"/>
	<outline>
		<contour>
			<point x="200" y="273" type="line"/>
			<point x="660" y="273" type="line"/>
			<point x="660" y="388" type="line"/>
			<point x="200" y="388" type="line"/>
		</contour>
		<contour>
			<point x="350" y="322" type="line"/>
			<point x="195" y="649" type="line"/>
			<point x="73" y="649" type="line"/>
			<point x="228" y="322" type="line"/>
		</contour>
		<contour>
			<point x="167" y="0" type="line"/>
			<point x="316" y="388" type="line"/>
			<point x="197" y="388" type="line"/>
			<point x="50" y="0" type="line"/>
		</contour>
		<contour>
			<point x="693" y="0" type="line"/>
			<point x="810" y="0" type="line"/>
			<point x="663" y="388" type="line"/>
			<point x="544" y="388" type="line"/>
		</contour>
		<contour>
			<point x="510" y="322" type="line"/>
			<point x="632" y="322" type="line"/>
			<point x="787" y="649" type="line"/>
			<point x="665" y="649" type="line"/>
		</contour>
		<contour>
			<point x="370" y="0" type="line"/>
			<point x="490" y="0" type="line"/>
			<point x="490" y="650" type="line"/>
			<point x="370" y="650" type="line"/>
		</contour>
	</outline>
</glyph>
<glyph name="uni0417" format="2">
	<advance width="650"/>
	<unicode hex="0417"/>
	<guideline x="70" y="324" angle="90"/>
	<outline>
		<contour>
			<point x="295" y="0" type="curve" smooth="yes"/>
			<point x="352" y="0" type="line" smooth="yes"/>
			<point x="484" y="0"/>
			<point x="550" y="99"/>
			<point x="550" y="198" type="curve" smooth="yes"/>
			<point x="550" y="311"/>
			<point x="464" y="385"/>
			<point x="352" y="385" type="curve" smooth="yes"/>
			<point x="230" y="385" type="line"/>
			<point x="230" y="270" type="line"/>
			<point x="352" y="270" type="line" smooth="yes"/>
			<point x="404" y="270"/>
			<point x="430" y="239"/>
			<point x="430" y="198" type="curve" smooth="yes"/>
			<point x="430" y="157"/>
			<point x="404" y="115"/>
			<point x="352" y="115" type="curve" smooth="yes"/>
			<point x="295" y="115" type="line" smooth="yes"/>
			<point x="242" y="115"/>
			<point x="210" y="153"/>
			<point x="210" y="205" type="curve"/>
			<point x="90" y="205" type="line"/>
			<point x="90" y="83"/>
			<point x="174" y="0"/>
		</contour>
		<contour>
			<point x="352" y="650" type="curve" smooth="yes"/>
			<point x="295" y="650" type="line"/>
			<point x="174" y="650"/>
			<point x="90" y="572"/>
			<point x="90" y="450" type="curve"/>
			<point x="210" y="450" type="line"/>
			<point x="210" y="502"/>
			<point x="242" y="535"/>
			<point x="295" y="535" type="curve" smooth="yes"/>
			<point x="352" y="535" type="line" smooth="yes"/>
			<point x="404" y="535"/>
			<point x="430" y="498"/>
			<point x="430" y="457" type="curve" smooth="yes"/>
			<point x="430" y="416"/>
			<point x="404" y="385"/>
			<point x="352" y="385" type="curve" smooth="yes"/>
			<point x="230" y="385" type="line"/>
			<point x="230" y="270" type="line"/>
			<point x="352" y="270" type="line" smooth="yes"/>
			<point x="464" y="270"/>
			<point x="550" y="344"/>
			<point x="550" y="457" type="curve" smooth="yes"/>
			<point x="550" y="556"/>
			<point x="484" y="650"/>
		</contour>
	</outline>
</glyph>
<glyph name="uni0418" format="2">
	<advance width="635"/>
	<unicode hex="0418"/>
	<anchor x="615" y="0" name="bottomright"/>
	<anchor x="318" y="650" name="top"/>
	<outline>
		<contour>
			<point x="525" y="0" type="line"/>
			<point x="525" y="650" type="line"/>
			<point x="405" y="650" type="line"/>
			<point x="405" y="0" type="line"/>
		</contour>
		<contour>
			<point x="210" y="0" type="line"/>
			<point x="210" y="650" type="line"/>
			<point x="90" y="650" type="line"/>
			<point x="90" y="0" type="line"/>
		</contour>
		<contour>
			<point x="260" y="267" type="line"/>
			<point x="455" y="535" type="line"/>
			<point x="480" y="535" type="line"/>
			<point x="480" y="650" type="line"/>
			<point x="405" y="650" type="line"/>
			<point x="210" y="382" type="line"/>
			<point x="165" y="382" type="line"/>
			<point x="165" y="267" type="line"/>
		</contour>
	</outline>
</glyph>
<glyph name="uni041A" format="2">
	<advance width="620"/>
	<unicode hex="041A"/>
	<outline>
		<contour>
			<point x="140" y="273" type="line"/>
			<point x="380" y="273" type="line"/>
			<point x="380" y="388" type="line"/>
			<point x="140" y="388" type="line"/>
		</contour>
		<contour>
			<point x="230" y="322" type="line"/>
			<point x="352" y="322" type="line"/>
			<point x="507" y="649" type="line"/>
			<point x="385" y="649" type="line"/>
		</contour>
		<contour>
			<point x="413" y="0" type="line"/>
			<point x="530" y="0" type="line"/>
			<point x="380" y="396" type="line"/>
			<point x="264" y="388" type="line"/>
		</contour>
		<contour>
			<point x="100" y="0" type="line"/>
			<point x="220" y="0" type="line"/>
			<point x="220" y="650" type="line"/>
			<point x="100" y="650" type="line"/>
		</contour>
	</outline>
</glyph>
<glyph name="uni041B" format="2">
	<advance width="710"/>
	<unicode hex="041B"/>
	<guideline x="152" y="256" angle="0"/>
	<anchor x="540" y="0" name="bottom"/>
	<anchor x="558" y="0" name="ogonek"/>
	<anchor x="540" y="649" name="top"/>
	<anchor x="400" y="649" name="topleft"/>
	<outline>
		<contour>
			<point x="267" y="649" type="line"/>
			<point x="267" y="534" type="line"/>
			<point x="560" y="534" type="line"/>
			<point x="560" y="649" type="line"/>
		</contour>
		<contour>
			<point x="50" y="0" type="line"/>
			<point x="75" y="0" type="line" smooth="yes"/>
			<point x="209" y="0"/>
			<point x="295" y="81"/>
			<point x="301" y="256" type="curve" smooth="yes"/>
			<point x="315" y="649" type="line"/>
			<point x="195" y="649" type="line"/>
			<point x="181" y="256" type="line" smooth="yes"/>
			<point x="177" y="156"/>
			<point x="137" y="115"/>
			<point x="70" y="115" type="curve" smooth="yes"/>
			<point x="50" y="115" type="line"/>
		</contour>
		<contour>
			<point x="490" y="0" type="line"/>
			<point x="610" y="0" type="line"/>
			<point x="610" y="650" type="line"/>
			<point x="490" y="650" type="line"/>
		</contour>
	</outline>
</glyph>
<glyph name="uni041F" format="2">
	<advance width="630"/>
	<unicode hex="041F"/>
	<anchor x="610" y="0" name="bottomright"/>
	<outline>
		<contour>
			<point x="154" y="535" type="line"/>
			<point x="456" y="535" type="line"/>
			<point x="456" y="650" type="line"/>
			<point x="154" y="650" type="line"/>
		</contour>
		<contour>
			<point x="100" y="0" type="line"/>
			<point x="220" y="0" type="line"/>
			<point x="220" y="650" type="line"/>
			<point x="100" y="650" type="line"/>
		</contour>
		<contour>
			<point x="410" y="0" type="line"/>
			<point x="530" y="0" type="line"/>
			<point x="530" y="650" type="line"/>
			<point x="410" y="650" type="line"/>
		</contour>
	</outline>
</glyph>
<glyph name="uni0420" format="2">
	<advance width="605"/>
	<unicode hex="0420"/>
	<anchor x="313" y="0" name="bottom"/>
	<anchor x="313" y="650" name="top"/>
	<outline>
		<contour>
			<point x="100" y="214" type="line"/>
			<point x="320" y="214" type="line" smooth="yes"/>
			<point x="449" y="214"/>
			<point x="535" y="301"/>
			<point x="535" y="432" type="curve" smooth="yes"/>
			<point x="535" y="563"/>
			<point x="449" y="650"/>
			<point x="320" y="650" type="curve" smooth="yes"/>
			<point x="100" y="650" type="line"/>
			<point x="100" y="535" type="line"/>
			<point x="315" y="535" type="line" smooth="yes"/>
			<point x="375" y="535"/>
			<point x="415" y="491"/>
			<point x="415" y="432" type="curve" smooth="yes"/>
			<point x="415" y="373"/>
			<point x="375" y="329"/>
			<point x="315" y="329" type="curve" smooth="yes"/>
			<point x="100" y="329" type="line"/>
		</contour>
		<contour>
			<point x="100" y="0" type="line"/>
			<point x="220" y="0" type="line"/>
			<point x="220" y="650" type="line"/>
			<point x="100" y="650" type="line"/>
		</contour>
	</outline>
</glyph>
<glyph name="uni0423" format="2">
	<advance width="690"/>
	<unicode hex="0423"/>
	<anchor x="345" y="650" name="top"/>
	<outline>
		<contour>
			<point x="355" y="192" type="line"/>
			<point x="165" y="648" type="line"/>
			<point x="50" y="648" type="line"/>
			<point x="275" y="99" type="line"/>
		</contour>
		<contour>
			<point x="275" y="214" type="line"/>
			<point x="275" y="99" type="line"/>
			<point x="376" y="99" type="line"/>
			<point x="396" y="214" type="line"/>
		</contour>
		<contour>
			<point x="152" y="-1" type="line"/>
			<point x="227" y="-1" type="line" smooth="yes"/>
			<point x="361" y="-1"/>
			<point x="394" y="96"/>
			<point x="465" y="255" type="curve" smooth="yes"/>
			<point x="640" y="648" type="line"/>
			<point x="519" y="648" type="line"/>
			<point x="312" y="192" type="line" smooth="yes"/>
			<point x="289" y="142"/>
			<point x="271" y="114"/>
			<point x="222" y="114" type="curve" smooth="yes"/>
			<point x="152" y="114" type="line"/>
		</contour>
	</outline>
</glyph>
<glyph name="uni0424" format="2">
	<advance width="840"/>
	<unicode hex="0424"/>
	<anchor x="420" y="0" name="bottom"/>
	<anchor x="438" y="0" name="ogonek"/>
	<anchor x="420" y="649" name="top"/>
	<anchor x="280" y="649" name="topleft"/>
	<outline>
		<contour>
			<point x="760" y="326" type="curve" smooth="yes"/>
			<point x="760" y="497"/>
			<point x="634" y="594"/>
			<point x="505" y="594" type="curve" smooth="yes"/>
			<point x="420" y="594" type="line"/>
			<point x="420" y="479" type="line"/>
			<point x="500" y="479" type="line" smooth="yes"/>
			<point x="560" y="479"/>
			<point x="640" y="425"/>
			<point x="640" y="326" type="curve" smooth="yes"/>
			<point x="640" y="217"/>
			<point x="560" y="173"/>
			<point x="500" y="173" type="curve" smooth="yes"/>
			<point x="420" y="173" type="line"/>
			<point x="420" y="58" type="line"/>
			<point x="505" y="58" type="line" smooth="yes"/>
			<point x="634" y="58"/>
			<point x="760" y="145"/>
		</contour>
		<contour>
			<point x="200" y="326" type="curve" smooth="yes"/>
			<point x="200" y="425"/>
			<point x="280" y="479"/>
			<point x="340" y="479" type="curve" smooth="yes"/>
			<point x="420" y="479" type="line"/>
			<point x="420" y="594" type="line"/>
			<point x="335" y="594" type="line" smooth="yes"/>
			<point x="206" y="594"/>
			<point x="80" y="497"/>
			<point x="80" y="326" type="curve" smooth="yes"/>
			<point x="80" y="145"/>
			<point x="206" y="58"/>
			<point x="335" y="58" type="curve" smooth="yes"/>
			<point x="420" y="58" type="line"/>
			<point x="420" y="173" type="line"/>
			<point x="340" y="173" type="line" smooth="yes"/>
			<point x="280" y="173"/>
			<point x="200" y="217"/>
		</contour>
		<contour>
			<point x="370" y="0" type="line"/>
			<point x="490" y="0" type="line"/>
			<point x="490" y="650" type="line"/>
			<point x="370" y="650" type="line"/>
		</contour>
	</outline>
</glyph>
<glyph name="uni0425" format="2">
	<advance width="538"/>
	<unicode hex="0425"/>
	<anchor x="269" y="0" name="bottom"/>
	<anchor x="269" y="650" name="top"/>
	<outline>
		<contour>
			<point x="329" y="317" type="line"/>
			<point x="172" y="650" type="line"/>
			<point x="50" y="650" type="line"/>
			<point x="207" y="317" type="line"/>
		</contour>
		<contour>
			<point x="209" y="327" type="line"/>
			<point x="331" y="327" type="line"/>
			<point x="488" y="650" type="line"/>
			<point x="366" y="650" type="line"/>
		</contour>
		<contour>
			<point x="329" y="333" type="line"/>
			<point x="207" y="333" type="line"/>
			<point x="50" y="0" type="line"/>
			<point x="172" y="0" type="line"/>
		</contour>
		<contour>
			<point x="209" y="333" type="line"/>
			<point x="366" y="0" type="line"/>
			<point x="488" y="0" type="line"/>
			<point x="331" y="333" type="line"/>
		</contour>
	</outline>
</glyph>
<glyph name="uni0426" format="2">
	<advance width="690"/>
	<unicode hex="0426"/>
	<anchor x="460" y="649" name="top"/>
	<anchor x="320" y="649" name="topleft"/>
	<outline>
		<contour>
			<point x="154" y="115" type="line"/>
			<point x="154" y="0" type="line"/>
			<point x="600" y="0" type="line"/>
			<point x="600" y="115" type="line"/>
		</contour>
		<contour>
			<point x="480" y="115" type="line"/>
			<point x="480" y="-100" type="line"/>
			<point x="600" y="-100" type="line"/>
			<point x="600" y="115" type="line"/>
		</contour>
		<contour>
			<point x="100" y="0" type="line"/>
			<point x="220" y="0" type="line"/>
			<point x="220" y="650" type="line"/>
			<point x="100" y="650" type="line"/>
		</contour>
		<contour>
			<point x="410" y="0" type="line"/>
			<point x="530" y="0" type="line"/>
			<point x="530" y="650" type="line"/>
			<point x="410" y="650" type="line"/>
		</contour>
	</outline>
</glyph>
<glyph name="uni0427" format="2">
	<advance width="597"/>
	<unicode hex="0427"/>
	<guideline x="137" y="268" angle="0"/>
	<anchor x="427" y="0" name="bottom"/>
	<anchor x="445" y="0" name="ogonek"/>
	<anchor x="427" y="649" name="top"/>
	<anchor x="287" y="649" name="topleft"/>
	<outline>
		<contour>
			<point x="457" y="338" type="line"/>
			<point x="226" y="338" type="line" smooth="yes"/>
			<point x="195" y="338"/>
			<point x="170" y="364"/>
			<point x="170" y="397" type="curve" smooth="yes"/>
			<point x="170" y="650" type="line"/>
			<point x="50" y="650" type="line"/>
			<point x="50" y="392" type="line" smooth="yes"/>
			<point x="50" y="297"/>
			<point x="125" y="223"/>
			<point x="221" y="223" type="curve" smooth="yes"/>
			<point x="457" y="223" type="line"/>
		</contour>
		<contour>
			<point x="377" y="0" type="line"/>
			<point x="497" y="0" type="line"/>
			<point x="497" y="650" type="line"/>
			<point x="377" y="650" type="line"/>
		</contour>
	</outline>
</glyph>
<glyph name="uni0428" format="2">
	<advance width="884"/>
	<unicode hex="0428"/>
	<outline>
		<contour>
			<point x="151" y="0" type="line"/>
			<point x="714" y="0" type="line"/>
			<point x="714" y="115" type="line"/>
			<point x="151" y="115" type="line"/>
		</contour>
		<contour>
			<point x="100" y="0" type="line"/>
			<point x="220" y="0" type="line"/>
			<point x="220" y="650" type="line"/>
			<point x="100" y="650" type="line"/>
		</contour>
		<contour>
			<point x="382" y="0" type="line"/>
			<point x="502" y="0" type="line"/>
			<point x="502" y="650" type="line"/>
			<point x="382" y="650" type="line"/>
		</contour>
		<contour>
			<point x="664" y="0" type="line"/>
			<point x="784" y="0" type="line"/>
			<point x="784" y="650" type="line"/>
			<point x="664" y="650" type="line"/>
		</contour>
	</outline>
</glyph>
<glyph name="uni0429" format="2">
	<advance width="954"/>
	<unicode hex="0429"/>
	<outline>
		<contour>
			<point x="161" y="0" type="line"/>
			<point x="864" y="0" type="line"/>
			<point x="864" y="115" type="line"/>
			<point x="161" y="115" type="line"/>
		</contour>
		<contour>
			<point x="744" y="115" type="line"/>
			<point x="744" y="-100" type="line"/>
			<point x="864" y="-100" type="line"/>
			<point x="864" y="115" type="line"/>
		</contour>
		<contour>
			<point x="110" y="0" type="line"/>
			<point x="230" y="0" type="line"/>
			<point x="230" y="650" type="line"/>
			<point x="110" y="650" type="line"/>
		</contour>
		<contour>
			<point x="392" y="0" type="line"/>
			<point x="512" y="0" type="line"/>
			<point x="512" y="650" type="line"/>
			<point x="392" y="650" type="line"/>
		</contour>
		<contour>
			<point x="674" y="0" type="line"/>
			<point x="794" y="0" type="line"/>
			<point x="794" y="650" type="line"/>
			<point x="674" y="650" type="line"/>
		</contour>
	</outline>
</glyph>
<glyph name="uni042A" format="2">
	<advance width="712"/>
	<unicode hex="042A"/>
	<anchor x="356" y="650" name="top"/>
	<outline>
		<contour>
			<point x="90" y="535" type="line"/>
			<point x="305" y="535" type="line"/>
			<point x="305" y="650" type="line"/>
			<point x="90" y="650" type="line"/>
		</contour>
		<contour>
			<point x="205" y="0" type="line"/>
			<point x="405" y="0" type="line" smooth="yes"/>
			<point x="550" y="0"/>
			<point x="622" y="108"/>
			<point x="622" y="218" type="curve"/>
			<point x="502" y="218" type="line"/>
			<point x="502" y="169"/>
			<point x="468" y="115"/>
			<point x="400" y="115" type="curve" smooth="yes"/>
			<point x="205" y="115" type="line"/>
		</contour>
		<contour>
			<point x="405" y="436" type="curve" smooth="yes"/>
			<point x="205" y="436" type="line"/>
			<point x="205" y="321" type="line"/>
			<point x="400" y="321" type="line" smooth="yes"/>
			<point x="468" y="321"/>
			<point x="502" y="267"/>
			<point x="502" y="218" type="curve"/>
			<point x="622" y="218" type="line"/>
			<point x="622" y="328"/>
			<point x="550" y="436"/>
		</contour>
		<contour>
			<point x="195" y="0" type="line"/>
			<point x="315" y="0" type="line"/>
			<point x="315" y="650" type="line"/>
			<point x="195" y="650" type="line"/>
		</contour>
	</outline>
</glyph>
<glyph name="uni042B" format="2">
	<advance width="847"/>
	<unicode hex="042B"/>
	<anchor x="424" y="650" name="top"/>
	<outline>
		<contour>
			<point x="100" y="0" type="line"/>
			<point x="320" y="0" type="line" smooth="yes"/>
			<point x="465" y="0"/>
			<point x="537" y="108"/>
			<point x="537" y="218" type="curve"/>
			<point x="417" y="218" type="line"/>
			<point x="417" y="169"/>
			<point x="383" y="115"/>
			<point x="315" y="115" type="curve" smooth="yes"/>
			<point x="100" y="115" type="line"/>
		</contour>
		<contour>
			<point x="320" y="436" type="curve" smooth="yes"/>
			<point x="100" y="436" type="line"/>
			<point x="100" y="321" type="line"/>
			<point x="315" y="321" type="line" smooth="yes"/>
			<point x="383" y="321"/>
			<point x="417" y="267"/>
			<point x="417" y="218" type="curve"/>
			<point x="537" y="218" type="line"/>
			<point x="537" y="328"/>
			<point x="465" y="436"/>
		</contour>
		<contour>
			<point x="100" y="0" type="line"/>
			<point x="220" y="0" type="line"/>
			<point x="220" y="650" type="line"/>
			<point x="100" y="650" type="line"/>
		</contour>
		<contour>
			<point x="627" y="0" type="line"/>
			<point x="747" y="0" type="line"/>
			<point x="747" y="650" type="line"/>
			<point x="627" y="650" type="line"/>
		</contour>
	</outline>
</glyph>
<glyph name="uni042D" format="2">
	<advance width="809"/>
	<unicode hex="042D"/>
	<guideline x="294" y="443" angle="0"/>
	<outline>
		<contour>
			<point x="210" y="205" type="curve"/>
			<point x="70" y="205" type="line"/>
			<point x="119" y="76"/>
			<point x="243" y="-16"/>
			<point x="389" y="-16" type="curve" smooth="yes"/>
			<point x="577" y="-16"/>
			<point x="729" y="136"/>
			<point x="729" y="324" type="curve" smooth="yes"/>
			<point x="729" y="512"/>
			<point x="577" y="664"/>
			<point x="389" y="664" type="curve" smooth="yes"/>
			<point x="243" y="664"/>
			<point x="119" y="572"/>
			<point x="70" y="443" type="curve"/>
			<point x="210" y="443" type="line"/>
			<point x="248" y="501"/>
			<point x="314" y="539"/>
			<point x="389" y="539" type="curve" smooth="yes"/>
			<point x="508" y="539"/>
			<point x="604" y="443"/>
			<point x="604" y="324" type="curve" smooth="yes"/>
			<point x="604" y="205"/>
			<point x="507" y="109"/>
			<point x="389" y="109" type="curve" smooth="yes"/>
			<point x="314" y="109"/>
			<point x="248" y="147"/>
		</contour>
		<contour>
			<point x="266" y="267" type="line"/>
			<point x="715" y="267" type="line"/>
			<point x="715" y="382" type="line"/>
			<point x="266" y="382" type="line"/>
		</contour>
	</outline>
</glyph>
<glyph name="uni042E" format="2">
	<advance width="1000"/>
	<unicode hex="042E"/>
	<outline>
		<contour>
			<point x="630" y="-16" type="curve" smooth="yes"/>
			<point x="809" y="-16"/>
			<point x="950" y="134"/>
			<point x="950" y="324" type="curve" smooth="yes"/>
			<point x="950" y="514"/>
			<point x="810" y="664"/>
			<point x="630" y="664" type="curve" smooth="yes"/>
			<point x="451" y="664"/>
			<point x="310" y="514"/>
			<point x="310" y="324" type="curve" smooth="yes"/>
			<point x="310" y="134"/>
			<point x="451" y="-16"/>
		</contour>
		<contour>
			<point x="630" y="109" type="curve" smooth="yes"/>
			<point x="521" y="109"/>
			<point x="435" y="204"/>
			<point x="435" y="324" type="curve" smooth="yes"/>
			<point x="435" y="444"/>
			<point x="521" y="539"/>
			<point x="630" y="539" type="curve" smooth="yes"/>
			<point x="739" y="539"/>
			<point x="825" y="444"/>
			<point x="825" y="324" type="curve" smooth="yes"/>
			<point x="825" y="204"/>
			<point x="739" y="109"/>
		</contour>
		<contour>
			<point x="161" y="382" type="line"/>
			<point x="161" y="267" type="line"/>
			<point x="373" y="267" type="line"/>
			<point x="373" y="382" type="line"/>
		</contour>
		<contour>
			<point x="100" y="-1" type="line"/>
			<point x="220" y="-1" type="line"/>
			<point x="220" y="649" type="line"/>
			<point x="100" y="649" type="line"/>
		</contour>
	</outline>
</glyph>
<glyph name="uni042F" format="2">
	<advance width="642"/>
	<unicode hex="042F"/>
	<outline>
		<contour>
			<point x="317" y="213" type="curve" smooth="yes"/>
			<point x="542" y="213" type="line"/>
			<point x="542" y="328" type="line"/>
			<point x="322" y="328" type="line" smooth="yes"/>
			<point x="262" y="328"/>
			<point x="222" y="372"/>
			<point x="222" y="431" type="curve" smooth="yes"/>
			<point x="222" y="490"/>
			<point x="262" y="534"/>
			<point x="322" y="534" type="curve" smooth="yes"/>
			<point x="542" y="534" type="line"/>
			<point x="542" y="649" type="line"/>
			<point x="317" y="649" type="line" smooth="yes"/>
			<point x="188" y="649"/>
			<point x="102" y="562"/>
			<point x="102" y="431" type="curve" smooth="yes"/>
			<point x="102" y="300"/>
			<point x="188" y="213"/>
		</contour>
		<contour>
			<point x="225" y="0" type="line"/>
			<point x="360" y="274" type="line"/>
			<point x="235" y="274" type="line"/>
			<point x="100" y="0" type="line"/>
		</contour>
		<contour>
			<point x="422" y="0" type="line"/>
			<point x="542" y="0" type="line"/>
			<point x="542" y="650" type="line"/>
			<point x="422" y="650" type="line"/>
		</contour>
	</outline>
</glyph>
<glyph name="uni0430" format="2">
	<advance width="540"/>
	<unicode hex="0430"/>
	<anchor x="270" y="0" name="bottom"/>
	<anchor x="418" y="0" name="ogonek"/>
	<anchor x="239" y="520" name="top"/>
	<outline>
		<contour>
			<point x="350" y="260" type="curve"/>
			<point x="460" y="260" type="line"/>
			<point x="461" y="428"/>
			<point x="364" y="520"/>
			<point x="239" y="520" type="curve" smooth="yes"/>
			<point x="80" y="520" type="line"/>
			<point x="80" y="405" type="line"/>
			<point x="239" y="405" type="line" smooth="yes"/>
			<point x="300" y="405"/>
			<point x="350" y="355"/>
		</contour>
		<contour>
			<point x="80" y="0" type="line"/>
			<point x="185" y="0" type="line"/>
			<point x="185" y="310" type="line"/>
			<point x="80" y="310" type="line"/>
		</contour>
		<contour>
			<point x="154" y="0" type="line"/>
			<point x="445" y="0" type="line"/>
			<point x="445" y="105" type="line"/>
			<point x="154" y="105" type="line"/>
		</contour>
		<contour>
			<point x="154" y="210" type="line"/>
			<point x="275" y="210" type="line"/>
			<point x="275" y="310" type="line"/>
			<point x="154" y="310" type="line"/>
		</contour>
		<contour>
			<point x="350" y="0" type="line"/>
			<point x="460" y="0" type="line"/>
			<point x="460" y="260" type="line"/>
			<point x="350" y="260" type="line"/>
		</contour>
	</outline>
</glyph>
<glyph name="uni0431" format="2">
	<advance width="650"/>
	<unicode hex="0431"/>
	<guideline x="590" y="245" angle="90"/>
	<guideline x="402" y="794" angle="0"/>
	<outline>
		<contour>
			<point x="60" y="428" type="curve" smooth="yes"/>
			<point x="60" y="245" type="line"/>
			<point x="175" y="245" type="line"/>
			<point x="175" y="428" type="line" smooth="yes"/>
			<point x="175" y="524"/>
			<point x="198" y="573"/>
			<point x="265" y="584" type="curve" smooth="yes"/>
			<point x="333" y="595" type="line" smooth="yes"/>
			<point x="468" y="617"/>
			<point x="517" y="669"/>
			<point x="517" y="774" type="curve" smooth="yes"/>
			<point x="517" y="794" type="line"/>
			<point x="402" y="794" type="line"/>
			<point x="402" y="774" type="line" smooth="yes"/>
			<point x="402" y="734"/>
			<point x="375" y="707"/>
			<point x="312" y="699" type="curve" smooth="yes"/>
			<point x="250" y="691" type="line" smooth="yes"/>
			<point x="140" y="677"/>
			<point x="60" y="594"/>
		</contour>
		<contour>
			<point x="175" y="245" type="curve" smooth="yes"/>
			<point x="175" y="321"/>
			<point x="241" y="380"/>
			<point x="325" y="380" type="curve" smooth="yes"/>
			<point x="409" y="380"/>
			<point x="475" y="321"/>
			<point x="475" y="245" type="curve" smooth="yes"/>
			<point x="475" y="169"/>
			<point x="409" y="110"/>
			<point x="325" y="110" type="curve" smooth="yes"/>
			<point x="241" y="110"/>
			<point x="175" y="169"/>
		</contour>
		<contour>
			<point x="134" y="245" type="curve"/>
			<point x="60" y="245" type="line"/>
			<point x="61" y="106"/>
			<point x="178" y="-5"/>
			<point x="325" y="-5" type="curve" smooth="yes"/>
			<point x="473" y="-5"/>
			<point x="590" y="105"/>
			<point x="590" y="245" type="curve" smooth="yes"/>
			<point x="590" y="385"/>
			<point x="473" y="495"/>
			<point x="325" y="495" type="curve" smooth="yes"/>
			<point x="179" y="495"/>
			<point x="134" y="385"/>
		</contour>
	</outline>
</glyph>
<glyph name="uni0432" format="2">
	<advance width="595"/>
	<unicode hex="0432"/>
	<outline>
		<contour>
			<point x="445" y="350" type="curve"/>
			<point x="345" y="350" type="line"/>
			<point x="345" y="305"/>
			<point x="315" y="280"/>
			<point x="277" y="280" type="curve" smooth="yes"/>
			<point x="180" y="280" type="line"/>
			<point x="180" y="190" type="line"/>
			<point x="277" y="190" type="line" smooth="yes"/>
			<point x="371" y="190"/>
			<point x="445" y="265"/>
		</contour>
		<contour>
			<point x="345" y="350" type="curve"/>
			<point x="445" y="350" type="line"/>
			<point x="445" y="445"/>
			<point x="371" y="520"/>
			<point x="277" y="520" type="curve" smooth="yes"/>
			<point x="90" y="520" type="line"/>
			<point x="90" y="420" type="line"/>
			<point x="277" y="420" type="line" smooth="yes"/>
			<point x="315" y="420"/>
			<point x="345" y="395"/>
		</contour>
		<contour>
			<point x="414" y="326" type="curve"/>
			<point x="375" y="230" type="line"/>
			<point x="397" y="221"/>
			<point x="415" y="202"/>
			<point x="415" y="170" type="curve"/>
			<point x="525" y="170" type="line"/>
			<point x="525" y="248"/>
			<point x="471" y="302"/>
		</contour>
		<contour>
			<point x="525" y="170" type="curve"/>
			<point x="415" y="170" type="line"/>
			<point x="415" y="125"/>
			<point x="380" y="100"/>
			<point x="347" y="100" type="curve" smooth="yes"/>
			<point x="90" y="100" type="line"/>
			<point x="90" y="0" type="line"/>
			<point x="347" y="0" type="line" smooth="yes"/>
			<point x="431" y="0"/>
			<point x="525" y="63"/>
		</contour>
		<contour>
			<point x="80" y="0" type="line"/>
			<point x="195" y="0" type="line"/>
			<point x="195" y="520" type="line"/>
			<point x="80" y="520" type="line"/>
		</contour>
	</outline>
</glyph>
<glyph name="uni0433" format="2">
	<advance width="485"/>
	<unicode hex="0433"/>
	<anchor x="465" y="0" name="bottomright"/>
	<anchor x="243" y="520" name="top"/>
	<outline>
		<contour>
			<point x="405" y="410" type="line"/>
			<point x="405" y="520" type="line"/>
			<point x="90" y="520" type="line"/>
			<point x="90" y="410" type="line"/>
		</contour>
		<contour>
			<point x="90" y="0" type="line"/>
			<point x="205" y="0" type="line"/>
			<point x="205" y="520" type="line"/>
			<point x="90" y="520" type="line"/>
		</contour>
	</outline>
</glyph>
<glyph name="uni0434" format="2">
	<advance width="715"/>
	<unicode hex="0434"/>
	<outline>
		<contour>
			<point x="665" y="110" type="line"/>
			<point x="50" y="110" type="line"/>
			<point x="50" y="0" type="line"/>
			<point x="665" y="0" type="line"/>
		</contour>
		<contour>
			<point x="550" y="-100" type="line"/>
			<point x="665" y="-100" type="line"/>
			<point x="665" y="110" type="line"/>
			<point x="550" y="110" type="line"/>
		</contour>
		<contour>
			<point x="559" y="410" type="line"/>
			<point x="559" y="520" type="line"/>
			<point x="240" y="520" type="line"/>
			<point x="240" y="410" type="line"/>
		</contour>
		<contour>
			<point x="50" y="-100" type="line"/>
			<point x="165" y="-100" type="line"/>
			<point x="165" y="110" type="line"/>
			<point x="50" y="110" type="line"/>
		</contour>
		<contour>
			<point x="445" y="0" type="line"/>
			<point x="560" y="0" type="line"/>
			<point x="560" y="520" type="line"/>
			<point x="445" y="520" type="line"/>
		</contour>
		<contour>
			<point x="96" y="0" type="curve"/>
			<point x="211" y="0" type="line"/>
			<point x="252" y="56"/>
			<point x="269" y="107"/>
			<point x="278" y="224" type="curve" smooth="yes"/>
			<point x="301" y="520" type="line"/>
			<point x="186" y="520" type="line"/>
			<point x="163" y="228" type="line" smooth="yes"/>
			<point x="154" y="110"/>
			<point x="137" y="57"/>
		</contour>
	</outline>
</glyph>
<glyph name="uni0435" format="2">
	<advance width="545"/>
	<unicode hex="0435"/>
	<anchor x="330" y="0" name="bottom"/>
	<anchor x="363" y="0" name="ogonek"/>
	<anchor x="330" y="520" name="top"/>
	<outline>
		<contour>
			<point x="70" y="260" type="curve"/>
			<point x="180" y="260" type="line"/>
			<point x="180" y="355"/>
			<point x="230" y="405"/>
			<point x="291" y="405" type="curve" smooth="yes"/>
			<point x="405" y="405" type="line"/>
			<point x="405" y="520" type="line"/>
			<point x="291" y="520" type="line" smooth="yes"/>
			<point x="166" y="520"/>
			<point x="69" y="428"/>
		</contour>
		<contour>
			<point x="291" y="0" type="curve" smooth="yes"/>
			<point x="406" y="0" type="line"/>
			<point x="406" y="115" type="line"/>
			<point x="291" y="115" type="line" smooth="yes"/>
			<point x="231" y="115"/>
			<point x="180" y="161"/>
			<point x="180" y="260" type="curve"/>
			<point x="70" y="260" type="line"/>
			<point x="70" y="93"/>
			<point x="163" y="0"/>
		</contour>
		<contour>
			<point x="255" y="210" type="line"/>
			<point x="391" y="210" type="line"/>
			<point x="391" y="310" type="line"/>
			<point x="255" y="310" type="line"/>
		</contour>
		<contour>
			<point x="360" y="210" type="line"/>
			<point x="465" y="210" type="line"/>
			<point x="465" y="520" type="line"/>
			<point x="360" y="520" type="line"/>
		</contour>
	</outline>
</glyph>
<glyph name="uni0436" format="2">
	<advance width="855"/>
	<unicode hex="0436"/>
	<outline>
		<contour>
			<point x="231" y="520" type="line"/>
			<point x="115" y="520" type="line"/>
			<point x="216" y="247" type="line"/>
			<point x="332" y="247" type="line"/>
		</contour>
		<contour>
			<point x="196" y="0" type="line"/>
			<point x="314" y="291" type="line"/>
			<point x="202" y="291" type="line"/>
			<point x="80" y="0" type="line"/>
		</contour>
		<contour>
			<point x="248" y="200" type="line"/>
			<point x="607" y="200" type="line"/>
			<point x="607" y="310" type="line"/>
			<point x="248" y="310" type="line"/>
		</contour>
		<contour>
			<point x="624" y="520" type="line"/>
			<point x="523" y="247" type="line"/>
			<point x="639" y="247" type="line"/>
			<point x="740" y="520" type="line"/>
		</contour>
		<contour>
			<point x="659" y="0" type="line"/>
			<point x="775" y="0" type="line"/>
			<point x="653" y="291" type="line"/>
			<point x="541" y="291" type="line"/>
		</contour>
		<contour>
			<point x="485" y="0" type="line"/>
			<point x="485" y="520" type="line"/>
			<point x="370" y="520" type="line"/>
			<point x="370" y="0" type="line"/>
		</contour>
	</outline>
</glyph>
<glyph name="uni0437" format="2">
	<advance width="568"/>
	<unicode hex="0437"/>
	<outline>
		<contour>
			<point x="314" y="520" type="curve" smooth="yes"/>
			<point x="265" y="520" type="line"/>
			<point x="144" y="520"/>
			<point x="60" y="457"/>
			<point x="60" y="325" type="curve"/>
			<point x="175" y="325" type="line"/>
			<point x="175" y="384"/>
			<point x="201" y="410"/>
			<point x="260" y="410" type="curve" smooth="yes"/>
			<point x="330" y="410" type="line" smooth="yes"/>
			<point x="374" y="410"/>
			<point x="393" y="382"/>
			<point x="393" y="357" type="curve" smooth="yes"/>
			<point x="393" y="328"/>
			<point x="368" y="314"/>
			<point x="320" y="314" type="curve" smooth="yes"/>
			<point x="245" y="314" type="line"/>
			<point x="245" y="209" type="line"/>
			<point x="320" y="209" type="line" smooth="yes"/>
			<point x="434" y="209"/>
			<point x="508" y="259"/>
			<point x="508" y="350" type="curve" smooth="yes"/>
			<point x="508" y="435"/>
			<point x="443" y="520"/>
		</contour>
		<contour>
			<point x="265" y="0" type="curve" smooth="yes"/>
			<point x="314" y="0" type="line" smooth="yes"/>
			<point x="443" y="0"/>
			<point x="508" y="85"/>
			<point x="508" y="170" type="curve" smooth="yes"/>
			<point x="508" y="258"/>
			<point x="434" y="314"/>
			<point x="320" y="314" type="curve" smooth="yes"/>
			<point x="255" y="314" type="line"/>
			<point x="255" y="209" type="line"/>
			<point x="320" y="209" type="line" smooth="yes"/>
			<point x="366" y="209"/>
			<point x="393" y="192"/>
			<point x="393" y="163" type="curve" smooth="yes"/>
			<point x="393" y="138"/>
			<point x="374" y="110"/>
			<point x="330" y="110" type="curve" smooth="yes"/>
			<point x="260" y="110" type="line" smooth="yes"/>
			<point x="201" y="110"/>
			<point x="175" y="136"/>
			<point x="175" y="195" type="curve"/>
			<point x="60" y="195" type="line"/>
			<point x="60" y="63"/>
			<point x="144" y="0"/>
		</contour>
	</outline>
</glyph>
<glyph name="uni0438" format="2">
	<advance width="580"/>
	<unicode hex="0438"/>
	<anchor x="560" y="0" name="bottomright"/>
	<anchor x="290" y="520" name="top"/>
	<outline>
		<contour>
			<point x="245" y="142" type="line"/>
			<point x="435" y="410" type="line"/>
			<point x="460" y="410" type="line"/>
			<point x="460" y="520" type="line"/>
			<point x="385" y="520" type="line"/>
			<point x="195" y="252" type="line"/>
			<point x="150" y="252" type="line"/>
			<point x="150" y="142" type="line"/>
		</contour>
		<contour>
			<point x="80" y="0" type="line"/>
			<point x="195" y="0" type="line"/>
			<point x="195" y="520" type="line"/>
			<point x="80" y="520" type="line"/>
		</contour>
		<contour>
			<point x="385" y="0" type="line"/>
			<point x="500" y="0" type="line"/>
			<point x="500" y="520" type="line"/>
			<point x="385" y="520" type="line"/>
		</contour>
	</outline>
</glyph>
<glyph name="uni043B" format="2">
	<advance width="665"/>
	<unicode hex="043B"/>
	<outline>
		<contour>
			<point x="574" y="410" type="line"/>
			<point x="574" y="520" type="line"/>
			<point x="230" y="520" type="line"/>
			<point x="230" y="410" type="line"/>
		</contour>
		<contour>
			<point x="80" y="0" type="line"/>
			<point x="105" y="0" type="line" smooth="yes"/>
			<point x="239" y="0"/>
			<point x="294" y="81"/>
			<point x="300" y="256" type="curve" smooth="yes"/>
			<point x="309" y="520" type="line"/>
			<point x="194" y="520" type="line"/>
			<point x="185" y="251" type="line" smooth="yes"/>
			<point x="182" y="151"/>
			<point x="167" y="110"/>
			<point x="100" y="110" type="curve" smooth="yes"/>
			<point x="80" y="110" type="line"/>
		</contour>
		<contour>
			<point x="460" y="0" type="line"/>
			<point x="575" y="0" type="line"/>
			<point x="575" y="520" type="line"/>
			<point x="460" y="520" type="line"/>
		</contour>
	</outline>
</glyph>
<glyph name="uni043C" format="2">
	<advance width="750"/>
	<unicode hex="043C"/>
	<outline>
		<contour>
			<point x="315" y="0" type="line"/>
			<point x="420" y="0" type="line"/>
			<point x="420" y="110" type="line"/>
			<point x="375" y="110" type="line"/>
			<point x="255" y="520" type="line"/>
			<point x="170" y="520" type="line"/>
			<point x="170" y="410" type="line"/>
			<point x="195" y="410" type="line"/>
		</contour>
		<contour>
			<point x="435" y="0" type="line"/>
			<point x="555" y="410" type="line"/>
			<point x="580" y="410" type="line"/>
			<point x="580" y="520" type="line"/>
			<point x="495" y="520" type="line"/>
			<point x="375" y="110" type="line"/>
			<point x="330" y="110" type="line"/>
			<point x="330" y="0" type="line"/>
		</contour>
		<contour>
			<point x="80" y="0" type="line"/>
			<point x="195" y="0" type="line"/>
			<point x="195" y="520" type="line"/>
			<point x="80" y="520" type="line"/>
		</contour>
		<contour>
			<point x="555" y="0" type="line"/>
			<point x="670" y="0" type="line"/>
			<point x="670" y="520" type="line"/>
			<point x="555" y="520" type="line"/>
		</contour>
	</outline>
</glyph>
<glyph name="uni043D" format="2">
	<advance width="580"/>
	<unicode hex="043D"/>
	<outline>
		<contour>
			<point x="499" y="210" type="line"/>
			<point x="499" y="320" type="line"/>
			<point x="80" y="320" type="line"/>
			<point x="80" y="210" type="line"/>
		</contour>
		<contour>
			<point x="80" y="0" type="line"/>
			<point x="195" y="0" type="line"/>
			<point x="195" y="520" type="line"/>
			<point x="80" y="520" type="line"/>
		</contour>
		<contour>
			<point x="385" y="0" type="line"/>
			<point x="500" y="0" type="line"/>
			<point x="500" y="520" type="line"/>
			<point x="385" y="520" type="line"/>
		</contour>
	</outline>
</glyph>
<glyph name="uni043E" format="2">
	<advance width="650"/>
	<unicode hex="043E"/>
	<anchor x="325" y="0" name="bottom"/>
	<anchor x="325" y="260" name="center"/>
	<anchor x="334" y="0" name="ogonek"/>
	<anchor x="325" y="520" name="top"/>
	<anchor x="650" y="520" name="topright"/>
	<outline>
		<contour>
			<point x="325" y="110" type="curve" smooth="yes"/>
			<point x="242" y="110"/>
			<point x="175" y="177"/>
			<point x="175" y="260" type="curve" smooth="yes"/>
			<point x="175" y="343"/>
			<point x="242" y="410"/>
			<point x="325" y="410" type="curve" smooth="yes"/>
			<point x="408" y="410"/>
			<point x="475" y="343"/>
			<point x="475" y="260" type="curve" smooth="yes"/>
			<point x="475" y="177"/>
			<point x="408" y="110"/>
		</contour>
		<contour>
			<point x="325" y="-5" type="curve" smooth="yes"/>
			<point x="471" y="-5"/>
			<point x="590" y="114"/>
			<point x="590" y="260" type="curve" smooth="yes"/>
			<point x="590" y="406"/>
			<point x="471" y="525"/>
			<point x="325" y="525" type="curve" smooth="yes"/>
			<point x="179" y="525"/>
			<point x="60" y="406"/>
			<point x="60" y="260" type="curve" smooth="yes"/>
			<point x="60" y="114"/>
			<point x="179" y="-5"/>
		</contour>
	</outline>
</glyph>
<glyph name="uni043F" format="2">
	<advance width="600"/>
	<unicode hex="043F"/>
	<outline>
		<contour>
			<point x="509" y="410" type="line"/>
			<point x="509" y="520" type="line"/>
			<point x="90" y="520" type="line"/>
			<point x="90" y="410" type="line"/>
		</contour>
		<contour>
			<point x="90" y="0" type="line"/>
			<point x="205" y="0" type="line"/>
			<point x="205" y="520" type="line"/>
			<point x="90" y="520" type="line"/>
		</contour>
		<contour>
			<point x="395" y="0" type="line"/>
			<point x="510" y="0" type="line"/>
			<point x="510" y="520" type="line"/>
			<point x="395" y="520" type="line"/>
		</contour>
	</outline>
</glyph>
<glyph name="uni0441" format="2">
	<advance width="460"/>
	<unicode hex="0441"/>
	<anchor x="291" y="0" name="bottom"/>
	<anchor x="291" y="520" name="top"/>
	<outline>
		<contour>
			<point x="390" y="110" type="line"/>
			<point x="291" y="110" type="line" smooth="yes"/>
			<point x="231" y="110"/>
			<point x="180" y="161"/>
			<point x="180" y="260" type="curve"/>
			<point x="70" y="260" type="line"/>
			<point x="70" y="93"/>
			<point x="163" y="0"/>
			<point x="291" y="0" type="curve" smooth="yes"/>
			<point x="390" y="0" type="line"/>
		</contour>
		<contour>
			<point x="291" y="410" type="curve" smooth="yes"/>
			<point x="390" y="410" type="line"/>
			<point x="390" y="520" type="line"/>
			<point x="291" y="520" type="line" smooth="yes"/>
			<point x="166" y="520"/>
			<point x="69" y="428"/>
			<point x="70" y="260" type="curve"/>
			<point x="180" y="260" type="line"/>
			<point x="180" y="355"/>
			<point x="230" y="410"/>
		</contour>
	</outline>
</glyph>
<glyph name="uni0442" format="2">
	<advance width="590"/>
	<unicode hex="0442"/>
	<outline>
		<contour>
			<point x="510" y="410" type="line"/>
			<point x="510" y="520" type="line"/>
			<point x="80" y="520" type="line"/>
			<point x="80" y="410" type="line"/>
		</contour>
		<contour>
			<point x="237" y="0" type="line"/>
			<point x="352" y="0" type="line"/>
			<point x="352" y="520" type="line"/>
			<point x="237" y="520" type="line"/>
		</contour>
	</outline>
</glyph>
<glyph name="uni0443" format="2">
	<advance width="618"/>
	<unicode hex="0443"/>
	<anchor x="309" y="-200" name="bottom"/>
	<anchor x="309" y="520" name="top"/>
	<outline>
		<contour>
			<point x="417" y="520" type="line"/>
			<point x="292" y="141" type="line"/>
			<point x="315" y="141" type="line"/>
			<point x="197" y="520" type="line"/>
			<point x="80" y="520" type="line"/>
			<point x="257" y="-10" type="line"/>
			<point x="354" y="-10" type="line"/>
			<point x="538" y="520" type="line"/>
		</contour>
		<contour>
			<point x="360" y="78" type="line"/>
			<point x="250" y="78" type="line"/>
			<point x="250" y="-200" type="line"/>
			<point x="360" y="-200" type="line"/>
		</contour>
		<contour>
			<point x="144" y="-90" type="line"/>
			<point x="144" y="-200" type="line"/>
			<point x="360" y="-200" type="line"/>
			<point x="360" y="-90" type="line"/>
		</contour>
	</outline>
</glyph>
<glyph name="uni0444" format="2">
	<advance width="775"/>
	<unicode hex="0444"/>
	<outline>
		<contour>
			<point x="330" y="-200" type="line"/>
			<point x="445" y="-200" type="line"/>
			<point x="445" y="710" type="line"/>
			<point x="330" y="710" type="line"/>
		</contour>
		<contour>
			<point x="494" y="110" type="curve" smooth="yes"/>
			<point x="395" y="110" type="line"/>
			<point x="395" y="0" type="line"/>
			<point x="494" y="0" type="line" smooth="yes"/>
			<point x="622" y="0"/>
			<point x="715" y="93"/>
			<point x="715" y="260" type="curve"/>
			<point x="605" y="260" type="line"/>
			<point x="605" y="161"/>
			<point x="554" y="110"/>
		</contour>
		<contour>
			<point x="395" y="410" type="line"/>
			<point x="494" y="410" type="line" smooth="yes"/>
			<point x="555" y="410"/>
			<point x="605" y="355"/>
			<point x="605" y="260" type="curve"/>
			<point x="715" y="260" type="line"/>
			<point x="715" y="428"/>
			<point x="619" y="520"/>
			<point x="494" y="520" type="curve" smooth="yes"/>
			<point x="395" y="520" type="line"/>
		</contour>
		<contour>
			<point x="380" y="110" type="line"/>
			<point x="281" y="110" type="line" smooth="yes"/>
			<point x="221" y="110"/>
			<point x="170" y="161"/>
			<point x="170" y="260" type="curve"/>
			<point x="60" y="260" type="line"/>
			<point x="60" y="93"/>
			<point x="153" y="0"/>
			<point x="281" y="0" type="curve" smooth="yes"/>
			<point x="380" y="0" type="line"/>
		</contour>
		<contour>
			<point x="281" y="410" type="curve" smooth="yes"/>
			<point x="380" y="410" type="line"/>
			<point x="380" y="520" type="line"/>
			<point x="281" y="520" type="line" smooth="yes"/>
			<point x="156" y="520"/>
			<point x="60" y="428"/>
			<point x="60" y="260" type="curve"/>
			<point x="170" y="260" type="line"/>
			<point x="170" y="355"/>
			<point x="220" y="410"/>
		</contour>
	</outline>
</glyph>
<glyph name="uni0445" format="2">
	<advance width="554"/>
	<unicode hex="0445"/>
	<outline>
		<contour>
			<point x="358" y="520" type="line"/>
			<point x="232" y="257" type="line"/>
			<point x="348" y="257" type="line"/>
			<point x="474" y="520" type="line"/>
		</contour>
		<contour>
			<point x="196" y="520" type="line"/>
			<point x="80" y="520" type="line"/>
			<point x="206" y="257" type="line"/>
			<point x="322" y="257" type="line"/>
		</contour>
		<contour>
			<point x="358" y="0" type="line"/>
			<point x="474" y="0" type="line"/>
			<point x="348" y="263" type="line"/>
			<point x="232" y="263" type="line"/>
		</contour>
		<contour>
			<point x="196" y="0" type="line"/>
			<point x="322" y="263" type="line"/>
			<point x="206" y="263" type="line"/>
			<point x="80" y="0" type="line"/>
		</contour>
	</outline>
</glyph>
<glyph name="uni0446" format="2">
	<advance width="665"/>
	<unicode hex="0446"/>
	<guideline x="654" y="-100" angle="0"/>
	<outline>
		<contour>
			<point x="615" y="110" type="line"/>
			<point x="90" y="110" type="line"/>
			<point x="90" y="0" type="line"/>
			<point x="615" y="0" type="line"/>
		</contour>
		<contour>
			<point x="500" y="-100" type="line"/>
			<point x="615" y="-100" type="line"/>
			<point x="615" y="110" type="line"/>
			<point x="500" y="110" type="line"/>
		</contour>
		<contour>
			<point x="90" y="0" type="line"/>
			<point x="205" y="0" type="line"/>
			<point x="205" y="520" type="line"/>
			<point x="90" y="520" type="line"/>
		</contour>
		<contour>
			<point x="395" y="0" type="line"/>
			<point x="510" y="0" type="line"/>
			<point x="510" y="520" type="line"/>
			<point x="395" y="520" type="line"/>
		</contour>
	</outline>
</glyph>
<glyph name="uni0447" format="2">
	<advance width="530"/>
	<unicode hex="0447"/>
	<outline>
		<contour>
			<point x="441" y="281" type="line"/>
			<point x="231" y="281" type="line" smooth="yes"/>
			<point x="200" y="281"/>
			<point x="175" y="307"/>
			<point x="175" y="340" type="curve" smooth="yes"/>
			<point x="175" y="520" type="line"/>
			<point x="60" y="520" type="line"/>
			<point x="60" y="340" type="line" smooth="yes"/>
			<point x="60" y="245"/>
			<point x="135" y="171"/>
			<point x="231" y="171" type="curve" smooth="yes"/>
			<point x="441" y="171" type="line"/>
		</contour>
		<contour>
			<point x="335" y="0" type="line"/>
			<point x="450" y="0" type="line"/>
			<point x="450" y="520" type="line"/>
			<point x="335" y="520" type="line"/>
		</contour>
	</outline>
</glyph>
<glyph name="uni0448" format="2">
	<advance width="825"/>
	<unicode hex="0448"/>
	<outline>
		<contour>
			<point x="734" y="0" type="line"/>
			<point x="734" y="110" type="line"/>
			<point x="90" y="110" type="line"/>
			<point x="90" y="0" type="line"/>
		</contour>
		<contour>
			<point x="90" y="0" type="line"/>
			<point x="205" y="0" type="line"/>
			<point x="205" y="520" type="line"/>
			<point x="90" y="520" type="line"/>
		</contour>
		<contour>
			<point x="355" y="0" type="line"/>
			<point x="470" y="0" type="line"/>
			<point x="470" y="520" type="line"/>
			<point x="355" y="520" type="line"/>
		</contour>
		<contour>
			<point x="620" y="0" type="line"/>
			<point x="735" y="0" type="line"/>
			<point x="735" y="520" type="line"/>
			<point x="620" y="520" type="line"/>
		</contour>
	</outline>
</glyph>
<glyph name="uni0449" format="2">
	<advance width="890"/>
	<unicode hex="0449"/>
	<outline>
		<contour>
			<point x="840" y="0" type="line"/>
			<point x="840" y="110" type="line"/>
			<point x="90" y="110" type="line"/>
			<point x="90" y="0" type="line"/>
		</contour>
		<contour>
			<point x="725" y="-100" type="line"/>
			<point x="840" y="-100" type="line"/>
			<point x="840" y="110" type="line"/>
			<point x="725" y="110" type="line"/>
		</contour>
		<contour>
			<point x="90" y="0" type="line"/>
			<point x="205" y="0" type="line"/>
			<point x="205" y="520" type="line"/>
			<point x="90" y="520" type="line"/>
		</contour>
		<contour>
			<point x="355" y="0" type="line"/>
			<point x="470" y="0" type="line"/>
			<point x="470" y="520" type="line"/>
			<point x="355" y="520" type="line"/>
		</contour>
		<contour>
			<point x="620" y="0" type="line"/>
			<point x="735" y="0" type="line"/>
			<point x="735" y="520" type="line"/>
			<point x="620" y="520" type="line"/>
		</contour>
	</outline>
</glyph>
<glyph name="uni044A" format="2">
	<advance width="585"/>
	<unicode hex="044A"/>
	<outline>
		<contour>
			<point x="264" y="415" type="line"/>
			<point x="264" y="520" type="line"/>
			<point x="50" y="520" type="line"/>
			<point x="50" y="415" type="line"/>
		</contour>
		<contour>
			<point x="415" y="180" type="curve"/>
			<point x="525" y="180" type="line"/>
			<point x="525" y="285"/>
			<point x="442" y="360"/>
			<point x="342" y="360" type="curve" smooth="yes"/>
			<point x="250" y="360" type="line"/>
			<point x="250" y="255" type="line"/>
			<point x="342" y="255" type="line" smooth="yes"/>
			<point x="380" y="255"/>
			<point x="415" y="229"/>
		</contour>
		<contour>
			<point x="525" y="180" type="curve"/>
			<point x="415" y="180" type="line"/>
			<point x="415" y="131"/>
			<point x="380" y="105"/>
			<point x="342" y="105" type="curve" smooth="yes"/>
			<point x="175" y="105" type="line"/>
			<point x="175" y="0" type="line"/>
			<point x="342" y="0" type="line" smooth="yes"/>
			<point x="442" y="0"/>
			<point x="525" y="75"/>
		</contour>
		<contour>
			<point x="150" y="520" type="line"/>
			<point x="150" y="0" type="line"/>
			<point x="265" y="0" type="line"/>
			<point x="265" y="520" type="line"/>
		</contour>
	</outline>
</glyph>
<glyph name="uni044B" format="2">
	<advance width="735"/>
	<unicode hex="044B"/>
	<outline>
		<contour>
			<point x="345" y="180" type="curve"/>
			<point x="455" y="180" type="line"/>
			<point x="455" y="285"/>
			<point x="372" y="360"/>
			<point x="272" y="360" type="curve" smooth="yes"/>
			<point x="180" y="360" type="line"/>
			<point x="180" y="255" type="line"/>
			<point x="272" y="255" type="line" smooth="yes"/>
			<point x="310" y="255"/>
			<point x="345" y="229"/>
		</contour>
		<contour>
			<point x="455" y="180" type="curve"/>
			<point x="345" y="180" type="line"/>
			<point x="345" y="131"/>
			<point x="310" y="105"/>
			<point x="272" y="105" type="curve" smooth="yes"/>
			<point x="105" y="105" type="line"/>
			<point x="105" y="0" type="line"/>
			<point x="272" y="0" type="line" smooth="yes"/>
			<point x="372" y="0"/>
			<point x="455" y="75"/>
		</contour>
		<contour>
			<point x="80" y="520" type="line"/>
			<point x="80" y="0" type="line"/>
			<point x="195" y="0" type="line"/>
			<point x="195" y="520" type="line"/>
		</contour>
		<contour>
			<point x="540" y="520" type="line"/>
			<point x="540" y="0" type="line"/>
			<point x="655" y="0" type="line"/>
			<point x="655" y="520" type="line"/>
		</contour>
	</outline>
</glyph>
<glyph name="uni044C" format="2">
	<advance width="535"/>
	<unicode hex="044C"/>
	<outline>
		<contour>
			<point x="365" y="180" type="curve"/>
			<point x="475" y="180" type="line"/>
			<point x="475" y="285"/>
			<point x="392" y="360"/>
			<point x="292" y="360" type="curve" smooth="yes"/>
			<point x="90" y="360" type="line"/>
			<point x="90" y="255" type="line"/>
			<point x="292" y="255" type="line" smooth="yes"/>
			<point x="330" y="255"/>
			<point x="365" y="229"/>
		</contour>
		<contour>
			<point x="475" y="180" type="curve"/>
			<point x="365" y="180" type="line"/>
			<point x="365" y="131"/>
			<point x="330" y="105"/>
			<point x="292" y="105" type="curve" smooth="yes"/>
			<point x="90" y="105" type="line"/>
			<point x="90" y="0" type="line"/>
			<point x="292" y="0" type="line" smooth="yes"/>
			<point x="392" y="0"/>
			<point x="475" y="75"/>
		</contour>
		<contour>
			<point x="80" y="520" type="line"/>
			<point x="80" y="0" type="line"/>
			<point x="195" y="0" type="line"/>
			<point x="195" y="520" type="line"/>
		</contour>
	</outline>
</glyph>
<glyph name="uni044D" format="2">
	<advance width="634"/>
	<unicode hex="044D"/>
	<outline>
		<contour>
			<point x="489" y="210" type="line"/>
			<point x="489" y="310" type="line"/>
			<point x="268" y="310" type="line"/>
			<point x="268" y="210" type="line"/>
		</contour>
		<contour>
			<point x="574" y="260" type="curve" smooth="yes"/>
			<point x="574" y="406"/>
			<point x="455" y="525"/>
			<point x="309" y="525" type="curve" smooth="yes"/>
			<point x="195" y="525"/>
			<point x="97" y="452"/>
			<point x="60" y="350" type="curve"/>
			<point x="189" y="350" type="line"/>
			<point x="216" y="386"/>
			<point x="260" y="410"/>
			<point x="309" y="410" type="curve" smooth="yes"/>
			<point x="392" y="410"/>
			<point x="459" y="343"/>
			<point x="459" y="260" type="curve" smooth="yes"/>
			<point x="459" y="177"/>
			<point x="392" y="110"/>
			<point x="309" y="110" type="curve" smooth="yes"/>
			<point x="260" y="110"/>
			<point x="216" y="134"/>
			<point x="189" y="170" type="curve"/>
			<point x="60" y="170" type="line"/>
			<point x="97" y="68"/>
			<point x="195" y="-5"/>
			<point x="309" y="-5" type="curve" smooth="yes"/>
			<point x="455" y="-5"/>
			<point x="574" y="114"/>
		</contour>
	</outline>
</glyph>
<glyph name="uni044E" format="2">
	<advance width="860"/>
	<unicode hex="044E"/>
	<outline>
		<contour>
			<point x="404" y="210" type="line"/>
			<point x="404" y="320" type="line"/>
			<point x="80" y="320" type="line"/>
			<point x="80" y="210" type="line"/>
		</contour>
		<contour>
			<point x="550" y="110" type="curve" smooth="yes"/>
			<point x="474" y="110"/>
			<point x="415" y="176"/>
			<point x="415" y="260" type="curve" smooth="yes"/>
			<point x="415" y="344"/>
			<point x="474" y="410"/>
			<point x="550" y="410" type="curve" smooth="yes"/>
			<point x="626" y="410"/>
			<point x="685" y="344"/>
			<point x="685" y="260" type="curve" smooth="yes"/>
			<point x="685" y="176"/>
			<point x="626" y="110"/>
		</contour>
		<contour>
			<point x="550" y="-5" type="curve" smooth="yes"/>
			<point x="690" y="-5"/>
			<point x="800" y="112"/>
			<point x="800" y="260" type="curve" smooth="yes"/>
			<point x="800" y="408"/>
			<point x="690" y="525"/>
			<point x="550" y="525" type="curve" smooth="yes"/>
			<point x="410" y="525"/>
			<point x="300" y="408"/>
			<point x="300" y="260" type="curve" smooth="yes"/>
			<point x="300" y="112"/>
			<point x="410" y="-5"/>
		</contour>
		<contour>
			<point x="80" y="520" type="line"/>
			<point x="80" y="0" type="line"/>
			<point x="195" y="0" type="line"/>
			<point x="195" y="520" type="line"/>
		</contour>
	</outline>
</glyph>
<glyph name="uni044F" format="2">
	<advance width="534"/>
	<unicode hex="044F"/>
	<outline>
		<contour>
			<point x="79" y="340" type="curve"/>
			<point x="184" y="340" type="line"/>
			<point x="184" y="395"/>
			<point x="214" y="420"/>
			<point x="252" y="420" type="curve" smooth="yes"/>
			<point x="409" y="420" type="line"/>
			<point x="409" y="520" type="line"/>
			<point x="247" y="520" type="line" smooth="yes"/>
			<point x="153" y="520"/>
			<point x="79" y="445"/>
		</contour>
		<contour>
			<point x="184" y="340" type="curve"/>
			<point x="79" y="340" type="line"/>
			<point x="79" y="235"/>
			<point x="153" y="160"/>
			<point x="247" y="160" type="curve" smooth="yes"/>
			<point x="409" y="160" type="line"/>
			<point x="409" y="260" type="line"/>
			<point x="252" y="260" type="line" smooth="yes"/>
			<point x="214" y="260"/>
			<point x="184" y="284"/>
		</contour>
		<contour>
			<point x="187" y="0" type="line"/>
			<point x="266" y="170" type="line"/>
			<point x="189" y="256" type="line"/>
			<point x="70" y="0" type="line"/>
		</contour>
		<contour>
			<point x="339" y="0" type="line"/>
			<point x="454" y="0" type="line"/>
			<point x="454" y="520" type="line"/>
			<point x="339" y="520" type="line"/>
		</contour>
	</outline>
</glyph>
<glyph name="uni0456" format="2">
	<advance width="295"/>
	<unicode hex="0456"/>
	<anchor x="148" y="0" name="bottom"/>
	<anchor x="163" y="0" name="ogonek"/>
	<anchor x="148" y="520" name="top"/>
	<outline>
		<contour>
			<point x="90" y="0" type="line"/>
			<point x="205" y="0" type="line"/>
			<point x="205" y="520" type="line"/>
			<point x="90" y="520" type="line"/>
		</contour>
		<contour>
			<point x="148" y="581" type="curve" smooth="yes"/>
			<point x="182" y="581"/>
			<point x="208" y="607"/>
			<point x="208" y="641" type="curve" smooth="yes"/>
			<point x="208" y="675"/>
			<point x="182" y="701"/>
			<point x="148" y="701" type="curve" smooth="yes"/>
			<point x="114" y="701"/>
			<point x="88" y="675"/>
			<point x="88" y="641" type="curve" smooth="yes"/>
			<point x="88" y="607"/>
			<point x="114" y="581"/>
		</contour>
	</outline>
</glyph>
<glyph name="uni0490" format="2">
	<advance width="530"/>
	<unicode hex="0490"/>
	<outline>
		<contour>
			<point x="167" y="535" type="line"/>
			<point x="480" y="535" type="line"/>
			<point x="480" y="650" type="line"/>
			<point x="167" y="650" type="line"/>
		</contour>
		<contour>
			<point x="360" y="750" type="line"/>
			<point x="360" y="535" type="line"/>
			<point x="480" y="535" type="line"/>
			<point x="480" y="750" type="line"/>
		</contour>
		<contour>
			<point x="100" y="0" type="line"/>
			<point x="220" y="0" type="line"/>
			<point x="220" y="650" type="line"/>
			<point x="100" y="650" type="line"/>
		</contour>
	</outline>
</glyph>
<glyph name="uni0491" format="2">
	<advance width="505"/>
	<unicode hex="0491"/>
	<outline>
		<contour>
			<point x="405" y="410" type="line"/>
			<point x="405" y="520" type="line"/>
			<point x="90" y="520" type="line"/>
			<point x="90" y="410" type="line"/>
		</contour>
		<contour>
			<point x="310" y="410" type="line"/>
			<point x="425" y="410" type="line"/>
			<point x="425" y="620" type="line"/>
			<point x="310" y="620" type="line"/>
		</contour>
		<contour>
			<point x="90" y="0" type="line"/>
			<point x="205" y="0" type="line"/>
			<point x="205" y="520" type="line"/>
			<point x="90" y="520" type="line"/>
		</contour>
	</outline>
</glyph>
<glyph name="uni1E9E" format="2">
	<advance width="615"/>
	<unicode hex="1E9E"/>
	<outline>
		<contour>
			<point x="274" y="535" type="line"/>
			<point x="462" y="535" type="line"/>
			<point x="462" y="650" type="line"/>
			<point x="274" y="650" type="line"/>
		</contour>
		<contour>
			<point x="274" y="535" type="curve"/>
			<point x="274" y="650" type="line"/>
			<point x="170" y="650"/>
			<point x="100" y="580"/>
			<point x="100" y="475" type="curve"/>
			<point x="220" y="475" type="line"/>
			<point x="220" y="509"/>
			<point x="242" y="536"/>
		</contour>
		<contour>
			<point x="100" y="475" type="line"/>
			<point x="100" y="0" type="line"/>
			<point x="220" y="0" type="line"/>
			<point x="220" y="475" type="line"/>
		</contour>
		<contour>
			<point x="290" y="0" type="line"/>
			<point x="349" y="0" type="line" smooth="yes"/>
			<point x="470" y="0"/>
			<point x="565" y="96"/>
			<point x="565" y="218" type="curve" smooth="yes"/>
			<point x="565" y="337"/>
			<point x="469" y="431"/>
			<point x="347" y="431" type="curve"/>
			<point x="347" y="316" type="line"/>
			<point x="411" y="316"/>
			<point x="445" y="267"/>
			<point x="445" y="218" type="curve" smooth="yes"/>
			<point x="445" y="168"/>
			<point x="411" y="115"/>
			<point x="344" y="115" type="curve" smooth="yes"/>
			<point x="290" y="115" type="line"/>
		</contour>
		<contour>
			<point x="417" y="316" type="line"/>
			<point x="557" y="650" type="line"/>
			<point x="438" y="650" type="line"/>
			<point x="298" y="316" type="line"/>
		</contour>
	</outline>
</glyph>
<glyph name="endash" format="2">
	<advance width="635"/>
	<unicode hex="2013"/>
	<outline>
		<contour>
			<point x="100" y="220" type="line"/>
			<point x="535" y="220" type="line"/>
			<point x="535" y="340" type="line"/>
			<point x="100" y="340" type="line"/>
		</contour>
	</outline>
</glyph>
<glyph name="emdash" format="2">
	<advance width="735"/>
	<unicode hex="2014"/>
	<outline>
		<contour>
			<point x="100" y="220" type="line"/>
			<point x="635" y="220" type="line"/>
			<point x="635" y="340" type="line"/>
			<point x="100" y="340" type="line"/>
		</contour>
	</outline>
</glyph>
<glyph name="quoteleft" format="2">
	<advance width="321"/>
	<unicode hex="2018"/>
	<outline>
		<contour>
			<point x="42" y="419" type="line"/>
			<point x="162" y="419" type="line"/>
			<point x="263" y="649" type="line"/>
			<point x="143" y="649" type="line"/>
		</contour>
	</outline>
</glyph>
<glyph name="quoteright" format="2">
	<advance width="321"/>
	<unicode hex="2019"/>
	<outline>
		<contour>
			<point x="50" y="419" type="line"/>
			<point x="170" y="419" type="line"/>
			<point x="271" y="649" type="line"/>
			<point x="151" y="649" type="line"/>
		</contour>
	</outline>
</glyph>
<glyph name="quotesinglbase" format="2">
	<advance width="321"/>
	<unicode hex="201A"/>
	<outline>
		<contour>
			<point x="52" y="-181" type="line"/>
			<point x="172" y="-181" type="line"/>
			<point x="273" y="49" type="line"/>
			<point x="153" y="49" type="line"/>
		</contour>
	</outline>
</glyph>
<glyph name="quotedblleft" format="2">
	<advance width="517"/>
	<unicode hex="201C"/>
	<outline>
		<contour>
			<point x="50" y="419" type="line"/>
			<point x="170" y="419" type="line"/>
			<point x="271" y="649" type="line"/>
			<point x="151" y="649" type="line"/>
		</contour>
		<contour>
			<point x="246" y="419" type="line"/>
			<point x="366" y="419" type="line"/>
			<point x="467" y="649" type="line"/>
			<point x="347" y="649" type="line"/>
		</contour>
	</outline>
</glyph>
<glyph name="quotedblright" format="2">
	<advance width="521"/>
	<unicode hex="201D"/>
	<outline>
		<contour>
			<point x="50" y="419" type="line"/>
			<point x="170" y="419" type="line"/>
			<point x="271" y="649" type="line"/>
			<point x="151" y="649" type="line"/>
		</contour>
		<contour>
			<point x="250" y="419" type="line"/>
			<point x="370" y="419" type="line"/>
			<point x="471" y="649" type="line"/>
			<point x="351" y="649" type="line"/>
		</contour>
	</outline>
</glyph>
<glyph name="quotedblbase" format="2">
	<advance width="517"/>
	<unicode hex="201E"/>
	<outline>
		<contour>
			<point x="50" y="-181" type="line"/>
			<point x="170" y="-181" type="line"/>
			<point x="271" y="49" type="line"/>
			<point x="151" y="49" type="line"/>
		</contour>
		<contour>
			<point x="246" y="-181" type="line"/>
			<point x="366" y="-181" type="line"/>
			<point x="467" y="49" type="line"/>
			<point x="347" y="49" type="line"/>
		</contour>
	</outline>
</glyph>
<glyph name="dagger" format="2">
	<advance width="484"/>
	<unicode hex="2020"/>
	<guideline x="339" y="709" angle="0"/>
	<outline>
		<contour>
			<point x="212" y="248" type="line"/>
			<point x="272" y="248" type="line"/>
			<point x="272" y="709" type="line"/>
			<point x="212" y="709" type="line"/>
		</contour>
		<contour>
			<point x="90" y="582" type="line"/>
			<point x="91" y="520" type="line"/>
			<point x="394" y="520" type="line"/>
			<point x="394" y="582" type="line"/>
		</contour>
	</outline>
</glyph>
<glyph name="daggerdbl" format="2">
	<advance width="484"/>
	<unicode hex="2021"/>
	<outline>
		<contour>
			<point x="212" y="248" type="line"/>
			<point x="272" y="248" type="line"/>
			<point x="272" y="709" type="line"/>
			<point x="212" y="709" type="line"/>
		</contour>
		<contour>
			<point x="90" y="607" type="line"/>
			<point x="91" y="545" type="line"/>
			<point x="394" y="545" type="line"/>
			<point x="394" y="607" type="line"/>
		</contour>
		<contour>
			<point x="90" y="412" type="line"/>
			<point x="91" y="350" type="line"/>
			<point x="394" y="350" type="line"/>
			<point x="394" y="412" type="line"/>
		</contour>
	</outline>
</glyph>
<glyph name="bullet" format="2">
	<advance width="355"/>
	<unicode hex="2022"/>
	<outline>
		<contour>
			<point x="178" y="203" type="curve" smooth="yes"/>
			<point x="248" y="203"/>
			<point x="305" y="260"/>
			<point x="305" y="330" type="curve" smooth="yes"/>
			<point x="305" y="401"/>
			<point x="248" y="458"/>
			<point x="178" y="458" type="curve" smooth="yes"/>
			<point x="107" y="458"/>
			<point x="50" y="401"/>
			<point x="50" y="330" type="curve" smooth="yes"/>
			<point x="50" y="260"/>
			<point x="107" y="203"/>
		</contour>
	</outline>
</glyph>
<glyph name="ellipsis" format="2">
	<advance width="690"/>
	<unicode hex="2026"/>
	<outline>
		<contour>
			<point x="125" y="-5" type="curve" smooth="yes"/>
			<point x="172" y="-5"/>
			<point x="210" y="33"/>
			<point x="210" y="80" type="curve" smooth="yes"/>
			<point x="210" y="127"/>
			<point x="172" y="165"/>
			<point x="125" y="165" type="curve" smooth="yes"/>
			<point x="78" y="165"/>
			<point x="40" y="127"/>
			<point x="40" y="80" type="curve" smooth="yes"/>
			<point x="40" y="33"/>
			<point x="78" y="-5"/>
		</contour>
		<contour>
			<point x="345" y="-5" type="curve" smooth="yes"/>
			<point x="392" y="-5"/>
			<point x="430" y="33"/>
			<point x="430" y="80" type="curve" smooth="yes"/>
			<point x="430" y="127"/>
			<point x="392" y="165"/>
			<point x="345" y="165" type="curve" smooth="yes"/>
			<point x="298" y="165"/>
			<point x="260" y="127"/>
			<point x="260" y="80" type="curve" smooth="yes"/>
			<point x="260" y="33"/>
			<point x="298" y="-5"/>
		</contour>
		<contour>
			<point x="565" y="-5" type="curve" smooth="yes"/>
			<point x="612" y="-5"/>
			<point x="650" y="33"/>
			<point x="650" y="80" type="curve" smooth="yes"/>
			<point x="650" y="127"/>
			<point x="612" y="165"/>
			<point x="565" y="165" type="curve" smooth="yes"/>
			<point x="518" y="165"/>
			<point x="480" y="127"/>
			<point x="480" y="80" type="curve" smooth="yes"/>
			<point x="480" y="33"/>
			<point x="518" y="-5"/>
		</contour>
	</outline>
</glyph>
<glyph name="guilsinglleft" format="2">
	<advance width="407"/>
	<unicode hex="2039"/>
	<outline>
		<contour>
			<point x="317" y="130" type="line"/>
			<point x="214" y="325" type="line"/>
			<point x="317" y="520" type="line"/>
			<point x="193" y="520" type="line"/>
			<point x="90" y="325" type="line"/>
			<point x="193" y="130" type="line"/>
		</contour>
	</outline>
</glyph>
